<svg width="48" height="48" viewBox="0 0 48 48" fill="none" xmlns="http://www.w3.org/2000/svg">
<path d="M22 30H26V34H22V30ZM22 14H26V26H22V14ZM24 4C12.94 4 4 13 4 24C4 29.3043 6.10714 34.3914 9.85786 38.1421C11.715 39.9993 13.9198 41.4725 16.3463 42.4776C18.7728 43.4827 21.3736 44 24 44C29.3043 44 34.3914 41.8929 38.1421 38.1421C41.8929 34.3914 44 29.3043 44 24C44 21.3736 43.4827 18.7728 42.4776 16.3463C41.4725 13.9198 39.9993 11.715 38.1421 9.85786C36.285 8.00069 34.0802 6.5275 31.6537 5.52241C29.2272 4.51732 26.6264 4 24 4ZM24 40C19.7565 40 15.6869 38.3143 12.6863 35.3137C9.68571 32.3131 8 28.2435 8 24C8 19.7565 9.68571 15.6869 12.6863 12.6863C15.6869 9.68571 19.7565 8 24 8C28.2435 8 32.3131 9.68571 35.3137 12.6863C38.3143 15.6869 40 19.7565 40 24C40 28.2435 38.3143 32.3131 35.3137 35.3137C32.3131 38.3143 28.2435 40 24 40Z" fill="#D6A701"/>
</svg>
