<svg width="420" height="221" viewBox="0 0 420 221" fill="none" xmlns="http://www.w3.org/2000/svg">
<path d="M225.135 24.4982C228.437 17.1627 230.419 7.2172 223.017 2.71355C217.422 -0.698309 209.807 1.31467 203.552 3.65179C153.08 22.5364 110.866 57.4568 85.3584 100.037C81.0262 107.253 68.2821 124.142 72.3812 132.432C78.1121 143.999 96.9756 134.616 105.795 131.306C130.895 121.907 153.935 108.345 173.556 91.6948C195.839 72.7931 213.751 49.8313 225.135 24.4982Z" fill="#CED7CE"/>
<path d="M216.024 131.545C251.788 133.507 288.214 132.057 322.463 122.811C356.713 113.565 388.787 96.0278 409.457 70.3365C416.528 61.551 422.376 50.5819 418.704 40.3292C415.848 32.3796 407.611 26.5795 398.597 23.9353C379.578 18.3399 358.986 25.01 340.511 31.8679C308.476 43.7582 276.771 56.5527 246.912 72.2984C231.837 80.248 217.247 88.9312 203.532 98.6038C195.761 104.08 167.009 121.054 166.291 130.061C165.611 138.676 177.947 132.279 183.872 131.511C194.479 130.146 205.378 130.965 216.024 131.545Z" fill="#597765"/>
<path d="M248.233 209.233C254.508 210.12 260.958 210.871 267.194 209.745C273.43 208.619 279.472 205.224 281.725 200.004C284.076 194.596 281.861 188.302 277.704 183.798C273.547 179.294 267.718 176.275 261.949 173.494C219.948 153.33 171.789 141.696 123.746 143.316C114.46 143.623 95.8294 142.702 87.7478 147.137C77.3933 152.818 88.4277 157.868 96.3539 161.928C118.403 173.187 141.716 182.621 165.669 190.332C192.42 198.929 220.103 205.293 248.233 209.25V209.233Z" fill="#CED7CE"/>
<path d="M338.549 219.759C338.627 219.639 338.704 219.52 338.743 219.383C339.268 219.196 339.384 218.377 338.763 218.104C337.539 217.558 336.276 217.029 335.033 216.5C334.022 215.818 332.993 215.153 331.983 214.47C332.08 214.146 332.021 213.771 331.672 213.464C316.402 200.414 299.579 188.608 281.589 178.578C264.571 169.076 246.291 161.228 227.116 155.701C209.36 150.6 190.866 147.496 172.177 146.967C162.502 146.694 152.847 147.206 143.231 148.246C132.915 149.355 122.677 150.925 112.342 151.812C110.225 151.999 108.068 152.119 105.912 152.238C91.6138 151.863 77.1407 150.089 63.8527 145.397C63.5225 145.244 63.1922 145.107 62.862 144.954C62.7454 144.903 62.6483 144.903 62.5706 144.937C61.1913 144.425 59.8314 143.879 58.4909 143.316C58.2384 143.18 57.9858 143.043 57.7527 142.89C56.5094 142.139 55.3049 141.32 54.1004 140.501C58.8017 140.365 63.5031 140.177 68.2044 139.972C68.4958 140.126 68.8649 140.177 69.2534 140.007C69.3117 139.972 69.37 139.938 69.4283 139.921C70.2442 139.887 71.0601 139.853 71.8566 139.819C75.8974 140.075 79.9965 139.819 84.0567 139.29C111.74 138.181 139.501 137.431 167.126 135.452C167.34 135.742 167.709 135.946 168.156 135.895C171.07 135.571 173.964 135.179 176.839 134.684C182.94 134.172 189.059 133.592 195.159 132.859C202.891 134.189 210.72 135.196 218.51 136.134C227.544 137.226 236.635 138.011 245.766 138.267C262.687 138.727 279.919 137.175 295.926 132.108C311.798 127.076 325.261 118.307 336.936 107.765C348.903 96.966 359.025 84.7174 370.001 73.1683C380.783 61.8068 392.439 51.2301 406.796 43.3316C408.389 42.4616 410.001 41.6427 411.652 40.858C411.691 40.858 411.73 40.8239 411.769 40.8239C411.924 40.7727 412.041 40.7045 412.138 40.6192C412.157 40.6192 412.196 40.6022 412.216 40.5851C412.313 40.551 412.352 40.4827 412.41 40.4145C413.77 40.3121 415.149 40.2098 416.509 40.1074C418.024 40.0051 417.849 37.9579 416.334 38.0432C400.229 38.9303 384.163 41.3186 368.525 44.7646C352.886 48.2106 337.578 52.8678 322.852 58.6338C308.146 64.3998 294.003 71.2577 280.676 79.1902C274.79 82.6874 269.078 86.3893 263.425 90.1423C267.485 86.2357 271.293 82.1244 274.965 77.9278C284.192 67.3852 292.76 56.3137 303.289 46.7264C306.164 44.0993 309.195 41.6086 312.4 39.3227C315.373 37.1903 318.52 35.2626 321.706 33.4031C321.997 33.3861 322.289 33.3519 322.58 33.3519C323.493 33.3008 323.435 32.2943 322.735 32.0555C322.794 32.0555 322.871 32.0213 322.93 32.0043C323.668 31.8337 323.415 30.7419 322.658 30.8442C319.957 31.2195 317.276 31.6801 314.596 32.1919C307.99 32.789 301.463 34.3926 295.285 36.525C291.478 37.5144 287.709 38.5891 283.998 39.8003C271.682 43.8093 259.948 49.2341 249.807 56.6037C239.841 63.8369 231.39 72.5201 223.503 81.4762C215.48 90.5688 207.942 100.003 199.569 108.873C191.371 117.54 182.298 125.694 171.497 131.869C170.545 132.415 169.593 132.927 168.622 133.439C144.96 135.213 121.181 135.981 97.4807 137.072C96.8784 137.107 96.2956 137.124 95.6934 137.158C99.9673 136.117 104.164 134.838 108.263 133.319C120.696 128.662 132.041 121.958 142.221 114.162C153.333 105.649 162.949 95.7889 171.769 85.4339C180.511 75.1813 188.496 64.4681 196.422 53.7378C204.329 43.0587 212.196 32.3284 220.764 22.0416C221.852 20.7281 222.94 19.4316 223.989 18.1009C224.766 17.1286 223.231 15.9344 222.337 16.8897C221.988 17.248 221.677 17.6403 221.346 17.9986C221.133 17.9133 220.88 17.9303 220.667 18.1521C218.471 20.421 216.179 22.6216 213.653 24.6005C211.167 26.5623 208.486 28.3536 205.766 30.0424C200.268 33.4543 194.537 36.525 189.001 39.9027C183.464 43.2804 178.18 46.9994 173.77 51.503C169.263 56.092 165.533 61.2098 161.415 66.0546C157.296 70.9165 152.653 75.2495 147.213 78.9855C141.968 82.6021 136.296 85.6898 130.604 88.7434C119.181 94.8336 107.622 100.856 98.7823 109.846C90.0985 118.665 83.5322 129.532 72.4589 136.305C71.371 136.97 70.2248 137.584 69.0592 138.147C69.0592 138.147 69.0397 138.147 69.0203 138.147C68.8649 138.164 68.7678 138.232 68.6901 138.318C68.6512 138.335 68.5929 138.369 68.5541 138.386C62.9203 138.642 57.267 138.881 51.6332 139.051C51.2641 139.051 50.8756 139.068 50.487 139.085C50.3511 139 50.1956 138.915 50.0596 138.83C49.6711 138.591 49.2437 138.829 49.166 139.119C36.4026 139.461 23.5031 139.222 11.031 136.663C7.61191 135.964 4.25106 135.094 0.948487 134.07C0.365681 133.882 -0.042297 134.633 0.54051 134.855C12.9349 139.324 26.3783 140.57 39.6857 140.689C43.3768 140.723 47.0679 140.689 50.7784 140.604C50.8367 140.638 50.8756 140.655 50.9339 140.689C52.0023 141.44 53.0902 142.139 54.1781 142.873C66.3394 154.507 80.3073 164.708 95.3631 173.34C111.759 182.757 129.496 190.4 148.01 196.012C166.466 201.591 185.718 205.19 205.183 206.538C227.213 208.056 249.263 206.35 271.312 206.708C286.116 206.947 301.21 208.193 315.45 211.928C319.588 213.344 323.726 214.743 327.884 216.142C328.971 216.62 330.059 217.08 331.108 217.592C333.109 218.548 335.071 219.571 337.014 220.629C337.869 221.089 338.588 220.475 338.665 219.759H338.549ZM173.673 132.995C173.809 132.927 173.925 132.842 174.061 132.756C174.061 132.825 174.061 132.893 174.061 132.961C173.945 132.961 173.809 132.978 173.692 132.995H173.673ZM220.142 109.061C215.266 112.797 210.312 116.448 205.339 120.098C202.891 121.89 200.463 123.698 198.015 125.455C196.752 126.376 195.47 127.28 194.227 128.219C194.11 128.219 193.993 128.219 193.877 128.253C192.944 128.526 192.012 128.799 191.079 129.089C194.168 127.144 196.985 124.841 199.53 122.64C208.836 114.605 217.675 106.161 226.514 97.7337C235.353 89.3064 244.212 80.8962 253.556 72.9124C262.337 65.4063 271.546 58.2926 281.453 51.9636C288.971 47.17 296.917 42.8369 305.251 39.2033C301.308 41.711 297.5 44.3893 293.809 47.2041C285.455 53.5501 277.723 60.5103 270.011 67.4364C253.984 81.8686 237.471 95.823 220.142 109.061ZM323.512 98.0749C311.293 106.809 298.044 114.247 283.571 119.757C269.836 124.994 255.363 128.611 240.54 130.453C228.942 131.886 217.267 132.193 205.611 131.46C222.512 129.055 239.219 125.609 255.324 120.44C282.25 111.808 305.853 97.7166 328.971 83.1309C348.515 70.797 368.117 58.0367 389.816 48.7735C380.064 54.1131 371.031 60.5103 362.425 67.1975C349.331 77.3649 337.092 88.3852 323.512 98.0919V98.0749ZM399.977 45.5493C390.108 51.4859 381.482 59.0262 373.556 66.9076C362.327 78.0814 352.284 90.1423 340.841 101.146C329.574 111.995 316.868 121.856 301.424 127.826C286.057 133.763 269.156 136.032 252.449 136.083C237.102 136.134 221.852 134.377 206.737 132.193C216.062 132.773 225.446 132.637 234.732 131.818C249.516 130.505 264.086 127.468 277.976 122.845C292.293 118.085 305.756 111.432 317.995 103.329C332.002 94.066 344.649 83.3015 357.626 72.9807C370.487 62.7451 383.988 52.8166 399.491 45.7711C399.666 45.7029 399.821 45.6175 399.996 45.5493H399.977ZM401.473 41.8475C391.604 45.1058 382.123 49.5412 373.109 54.1984C360.909 60.4933 349.311 67.607 337.85 74.8572C314.809 89.4258 291.924 104.66 265.717 114.639C243.726 123.016 220.278 127.775 196.597 130.675C196.325 130.641 196.053 130.624 195.781 130.59C195.684 130.59 195.606 130.573 195.509 130.556C194.965 130.488 194.421 130.402 193.877 130.334C193.955 130.317 194.032 130.283 194.091 130.266C200.346 129.413 206.543 127.86 212.507 126.154C219.812 124.073 226.922 121.531 233.819 118.597C248.058 112.575 261.521 105.189 274.498 97.2901C288.661 88.6752 302.415 79.5655 316.771 71.1894C329.904 63.5127 343.561 56.4673 358.17 51.1448C371.944 46.1293 386.514 42.5981 401.453 41.8304L401.473 41.8475ZM275.761 84.5639C289.049 76.3072 303.075 69.0058 317.801 62.8816C331.575 57.1496 345.873 52.4413 360.521 48.7735C347.31 53.3795 334.819 59.4356 322.833 66.1229C308.301 74.2601 294.508 83.3186 280.482 92.1041C267.33 100.327 253.964 108.413 239.666 115.049C227.019 120.917 213.673 125.728 199.686 128.475C204.465 126.769 209.088 124.756 213.595 122.623C221.016 119.126 228.107 115.134 235.004 110.903C248.855 102.442 261.988 93.1277 275.761 84.581V84.5639ZM313.508 36.7297C310.322 38.8109 307.33 41.1139 304.494 43.5022C299.054 48.0571 294.139 53.0725 289.457 58.2244C279.996 68.6476 271.39 79.7191 261.036 89.494C258.219 92.1553 255.266 94.7142 252.119 97.1025C248.913 99.5419 245.494 101.777 242.211 104.131C242.192 104.148 242.172 104.182 242.133 104.199C241.356 104.711 240.56 105.223 239.783 105.734C226.495 114.264 212.604 122.197 197.335 127.69C199.919 125.95 202.464 124.141 204.97 122.35C209.457 119.177 213.867 115.919 218.258 112.643C226.922 106.161 235.412 99.4908 243.726 92.6841C252.099 85.8263 260.278 78.7808 268.34 71.633C276.033 64.7922 283.668 57.8661 291.847 51.4348C296.431 47.8182 301.152 44.3381 306.145 41.148C308.554 39.6127 311.002 38.1286 313.527 36.7468L313.508 36.7297ZM295.829 38.0091C301.152 36.6103 306.553 35.3649 311.954 34.222C312.75 34.1026 313.546 33.9831 314.362 33.8978C314.052 34.0514 313.741 34.2049 313.43 34.3755C312.264 35.0067 311.118 35.6379 309.991 36.3032C306.825 37.5144 303.697 38.8451 300.666 40.261C295.382 42.7175 290.254 45.4299 285.3 48.3812C275.276 54.3178 265.951 61.1074 257.092 68.3064C247.709 75.9319 238.889 84.0692 230.186 92.2576C221.308 100.6 212.566 109.027 203.435 117.164C199.588 120.576 195.781 124.107 191.41 127.024C187.66 129.532 183.328 131.699 178.549 132.057C178.433 132.057 178.316 132.057 178.199 132.057C183.348 129.208 188.282 126.189 192.906 122.691C197.782 119.007 202.386 115.049 206.796 110.938C215.81 102.527 223.989 93.4859 232.342 84.581C240.754 75.6419 249.379 66.8393 259.035 58.9238C267.466 52.0148 276.81 45.8735 287.165 41.3186C289.982 40.0733 292.896 38.9815 295.829 38.0091ZM221.424 86.8328C229.176 77.7914 237.238 68.8353 246.737 61.1415C256.431 53.2943 267.66 47.3065 279.841 42.9222C280.307 42.7516 280.773 42.5981 281.24 42.4446C274.596 45.8564 268.36 49.8653 262.551 54.3007C252.527 61.9604 243.765 70.7288 235.295 79.702C226.864 88.6411 218.704 97.7848 209.865 106.434C205.475 110.716 200.909 114.878 196.111 118.802C191.274 122.76 186.106 126.359 180.841 129.873C179.637 130.675 178.355 131.392 177.073 132.108C176.47 132.108 175.868 132.074 175.266 132.023C183.581 126.956 190.924 120.593 197.51 113.957C206.077 105.325 213.634 95.9936 221.463 86.8499L221.424 86.8328ZM74.3433 137.107C74.6735 136.902 74.9844 136.68 75.2952 136.458C75.1592 136.612 75.0038 136.748 74.8678 136.902C74.8289 136.936 74.8289 136.97 74.8095 137.004C74.6541 137.038 74.4987 137.072 74.3627 137.107H74.3433ZM197.723 48.0059C189.894 58.5997 182.143 69.2447 173.731 79.4973C165.242 89.8523 156.053 99.7808 145.659 108.72C135.81 117.198 124.698 124.636 112.245 129.942C103.93 133.49 95.0718 136.134 85.9411 137.533C82.4443 137.704 78.9669 137.874 75.47 138.028C85.164 136.151 94.3335 132.637 102.862 128.15C113.566 122.504 123.221 115.441 132.371 107.986C142.745 99.5249 152.672 90.6029 162.347 81.5103C172.41 72.0424 182.104 62.2674 191.662 52.3901C195.956 47.9547 200.191 43.4851 204.426 38.9986C202.172 41.9839 199.938 44.9864 197.723 47.9888V48.0059ZM207.631 32.7378C202.969 37.685 198.287 42.6151 193.547 47.5282C184.202 57.2349 174.703 66.8564 164.931 76.256C155.237 85.5704 145.349 94.7483 135.033 103.534C126.135 111.091 116.752 118.273 106.456 124.329C97.2087 129.771 87.2233 134.002 76.5191 136.595C84.1733 129.072 94.6638 124.704 104.455 119.706C114.907 114.384 124.018 107.44 132.585 100.003C141.366 92.3941 149.836 84.4957 158.442 76.7337C167.145 68.9205 175.79 61.0562 184.494 53.2431C189.37 48.8588 194.207 44.4575 199.044 40.0562C201.473 37.8556 203.901 35.655 206.329 33.4714C207.592 32.3284 208.894 31.1854 210.157 30.0254C209.302 30.9295 208.447 31.8336 207.592 32.7549L207.631 32.7378ZM96.5676 114.742C100.764 110.033 105.368 105.769 110.749 102.084C116.072 98.4502 121.803 95.3283 127.553 92.2576C139.035 86.1334 150.73 80.0432 159.394 70.8483C163.804 66.174 167.495 61.0392 171.672 56.2284C175.868 51.3836 180.686 47.187 186.242 43.5363C192.517 39.408 199.355 35.8426 205.766 31.8507C203.726 33.7272 201.667 35.6208 199.627 37.5144C195.334 41.4722 191.002 45.3958 186.728 49.3536C178.141 57.2691 169.516 65.1334 160.89 73.0148C152.264 80.8962 143.658 88.7775 134.897 96.5225C126.291 104.131 117.316 111.449 107.019 117.249C99.0154 121.753 90.0985 125.336 82.522 130.47C87.5924 125.557 91.9246 119.928 96.5482 114.759L96.5676 114.742ZM163.066 148.519C181.91 148.195 200.754 150.634 218.84 155.206C238.015 160.051 256.179 167.353 273.275 176.343C289.205 184.719 304.066 194.545 318.015 205.292C306.883 198.042 295.615 190.963 283.94 184.412C266.941 174.859 248.991 166.466 229.991 160.392C211.633 154.507 192.459 150.993 172.896 150.566C157.354 150.225 141.852 151.453 126.33 152.033C138.53 150.532 150.691 148.758 163.046 148.536L163.066 148.519ZM109.506 153.722C127.301 154.012 145.057 152.409 162.852 152.187C173.032 152.067 183.192 152.46 193.255 153.825C202.872 155.121 212.332 157.168 221.56 159.829C240.521 165.288 258.452 173.204 275.431 182.348C279.996 184.804 284.484 187.346 288.933 189.956C283.959 187.568 278.908 185.316 273.78 183.184C258.957 177.042 243.551 172.01 227.796 168.069C211.808 164.077 195.45 161.433 178.996 159.539C162.502 157.646 145.912 156.503 129.341 155.292C122.6 154.797 115.839 154.302 109.098 153.756C109.234 153.756 109.37 153.739 109.506 153.722ZM100.725 154.115C108.01 154.763 115.315 155.309 122.6 155.872C139.093 157.134 155.625 158.328 172.06 160.154C188.437 161.979 204.737 164.453 220.705 168.137C236.577 171.805 252.041 176.684 266.98 182.621C276.577 186.442 285.96 190.707 295.052 195.398C290.662 193.539 286.213 191.816 281.706 190.246C264.999 184.463 247.534 180.608 229.894 177.759C211.244 174.739 192.42 172.812 173.634 170.645C155.47 168.547 137.306 166.329 119.433 162.73C106.961 160.222 94.7026 157.1 82.8522 153.006C88.758 153.893 94.7609 154.217 100.744 154.115H100.725ZM280.696 205.071C258.646 204.115 236.597 205.975 214.528 205.344C194.732 204.781 175.072 201.864 156.13 196.797C137.442 191.816 119.491 184.736 102.784 175.848C87.3981 167.66 73.3525 157.868 60.4142 146.916C64.0276 149.099 67.7576 151.163 71.5458 153.125C83.2602 160.87 95.7517 167.694 108.845 173.545C125.281 180.898 142.59 186.749 160.404 190.98C179.093 195.415 198.19 197.769 217.481 198.946C237.549 200.158 257.714 200.669 277.646 203.228C283.804 204.013 289.962 205.002 296.043 206.265C290.934 205.668 285.785 205.292 280.676 205.071H280.696ZM79.7051 157.117C86.1159 160.085 92.7211 162.747 99.404 165.101C117.724 171.566 136.878 175.439 156.383 177.929C176.179 180.454 196.13 181.87 215.829 184.907C235.781 187.977 255.285 192.822 274.46 198.503C279.491 200.004 284.503 201.574 289.477 203.194C288.272 202.989 287.048 202.802 285.844 202.631C266.261 199.765 246.407 199.322 226.631 198.281C207.126 197.24 187.719 195.586 168.661 191.628C150.555 187.875 132.896 182.416 116.072 175.422C103.425 170.15 91.2835 164.009 79.7051 157.117ZM312.439 208.363C311.876 208.175 311.293 207.971 310.73 207.783C301.366 204.576 291.963 201.471 282.483 198.554C263.561 192.737 244.27 187.738 224.591 184.327C205.009 180.932 185.115 179.431 165.339 177.196C145.679 174.978 126.213 171.856 107.524 165.954C98.4326 163.088 89.5351 159.659 80.9484 155.752C76.5579 153.756 72.3035 151.59 68.0878 149.321C70.2831 150.123 72.5171 150.839 74.7901 151.419C75.606 151.624 76.4219 151.795 77.2184 151.982C88.4472 156.264 100.123 159.608 111.954 162.388C129.36 166.466 147.252 169.007 165.067 171.191C183.833 173.494 202.658 175.439 221.327 178.305C239.18 181.051 256.878 184.651 273.935 190.093C289.399 195.023 304.338 201.488 317.665 210.018C315.936 209.438 314.188 208.909 312.439 208.397V208.363Z" fill="#272727"/>
</svg>
