<svg width="310" height="474" viewBox="0 0 310 474" fill="none" xmlns="http://www.w3.org/2000/svg">
<path d="M225.862 118.466C233.128 103.539 236.042 87.1966 236.741 70.9733C237.188 60.7206 235.381 48.4038 224.891 43.8661C217.781 40.7954 208.864 42.7572 202.705 47.1415C196.547 51.5086 192.681 57.8717 189.612 64.286C178.499 87.3843 175.488 113.946 181.646 138.477C189.728 170.668 219.296 131.943 225.862 118.466Z" fill="#CED7CE"/>
<path d="M117.577 114.832C109.748 107.224 100.714 100.008 89.5242 97.0397C78.3343 94.0713 64.5995 96.4938 58.111 105.023C52.6326 112.239 53.6233 122.304 58.9463 129.623C64.2693 136.924 73.2639 141.718 82.686 144.345C92.8074 147.16 122.647 153.796 131.311 146.682C141.977 137.914 124.162 121.23 117.557 114.832H117.577Z" fill="#CED7CE"/>
<path d="M283.094 128.634C287.581 121.622 291.428 112.12 285.211 106.201C281.734 102.891 276.003 102.021 271.01 102.993C266.018 103.966 261.627 106.525 257.547 109.237C235.343 124.079 219.529 145.915 212.846 169.661C210.593 177.696 206.202 192.811 221.316 192.179C233.07 191.702 245.445 174.898 252.341 167.665C263.939 155.519 274.255 142.435 283.094 128.617V128.634Z" fill="#CED7CE"/>
<path d="M157.732 294.757C151.515 292.437 144.192 290.663 138.208 293.426C131.778 296.412 129.446 303.918 131.253 310.11C133.06 316.303 138.072 321.352 143.395 325.719C153.283 333.84 202.997 365.792 210.321 343.359C216.848 323.331 174.264 300.915 157.751 294.757H157.732Z" fill="#CED7CE"/>
<path d="M276.761 240.269C277.46 235.561 277.926 230.682 276.411 226.127C274.896 221.572 270.933 217.359 265.629 216.455C260.442 215.568 255.1 218.041 251.739 221.607C248.359 225.172 246.61 229.676 245.134 234.128C241.093 246.223 238.587 258.813 238.548 271.454C238.529 277.885 238.548 303.832 247.523 306.238C262.482 310.23 275.381 249.823 276.78 240.286L276.761 240.269Z" fill="#597765"/>
<path d="M174.983 193.868C165.969 183.513 153.886 174.745 139.568 171.299C136.693 170.616 133.526 170.156 130.845 171.265C127.212 172.749 125.581 176.741 126.163 180.238C126.746 183.735 129.039 186.806 131.467 189.603C143.628 203.643 160.374 213.947 178.091 221.931C187.3 226.076 196.761 229.915 190.874 217.666C186.872 209.324 181.239 201.084 174.983 193.885V193.868Z" fill="#597765"/>
<path d="M131.564 101.305C141.53 82.9658 148.66 63.433 152.681 43.4224C155.012 31.8562 156.217 19.4882 150.738 8.77501C148.271 3.93018 142.948 -0.914661 137.081 0.381845C132.205 1.45658 129.738 6.16494 128.261 10.3956C124.24 21.9107 122.492 34.0569 123.113 46.0837C120.685 41.1024 118.121 35.9505 113.614 32.2486C109.087 28.5467 102.035 26.6702 96.5957 29.2632C91.8749 31.515 89.602 36.5475 89.6992 41.2559C89.7963 45.9643 91.8361 50.4508 93.9342 54.801C100.423 68.2778 107.902 81.874 120.18 91.7855" fill="#597765"/>
<path d="M309.106 375.874C291.195 375.669 273.594 382.237 261.044 393.411C260.597 393.82 260.151 394.246 259.723 394.673C266.639 383.141 273.341 371.455 278.043 359.07C280.918 351.462 283.035 343.615 283.832 335.614C283.91 334.778 282.899 334.351 282.142 334.778C273.866 339.469 267.552 346.361 263.162 354.038C258.208 362.704 255.818 372.308 254.789 381.913C254.167 387.781 254.051 393.666 254.109 399.552C254.109 399.757 254.187 399.927 254.303 400.081C253.915 400.729 253.545 401.377 253.157 402.026C252.671 402.674 252.205 403.305 251.758 403.953C251.603 404.192 251.583 404.414 251.622 404.636C250.806 406.052 249.99 407.484 249.194 408.9C249.097 409.02 248.98 409.122 248.902 409.242C248.825 409.344 248.805 409.463 248.825 409.583C247.504 411.971 246.241 414.394 245.095 416.85C243.366 420.552 241.986 424.407 241.423 428.382C241.171 430.071 241.112 431.794 241.209 433.5C240.432 431.606 239.694 429.679 238.975 427.751C238.975 427.7 238.975 427.666 238.975 427.614C238.956 426.608 238.354 425.499 237.81 424.544C234.216 414.155 231.593 403.459 229.495 392.745C229.456 391.926 229.262 391.073 229.009 390.272C228.97 390.084 228.932 389.896 228.893 389.709C226.484 376.914 224.502 364.069 222.521 351.223C232.953 338.429 241.035 324.065 247.407 309.394C247.834 308.421 248.223 307.432 248.63 306.459C248.844 306.613 249.136 306.715 249.485 306.698C258.383 306.169 267.203 303.303 275.226 300.028C279.325 298.356 283.327 296.531 287.309 294.654C290.826 293 294.478 291.43 297.683 289.315C300.831 287.251 303.511 284.504 303.997 280.956C304.094 280.256 303.434 279.813 302.695 279.847C302.443 279.847 302.19 279.881 301.938 279.898C301.666 279.71 301.297 279.642 300.947 279.898C300.908 279.932 300.869 279.949 300.83 279.983C285.211 281.041 269.845 286.5 257.975 295.524C255.1 297.708 252.438 300.079 250.126 302.741C255.508 289.076 259.354 274.934 261.549 260.604C262.987 251.153 263.609 241.685 263.589 232.149C263.589 231.245 262.462 230.784 261.724 231.484C254.342 238.495 248.669 246.905 245.231 255.964C241.559 265.602 240.432 275.906 241.909 285.988C242.764 291.788 244.493 297.486 246.999 302.911C247.115 303.167 247.309 303.303 247.504 303.406C244.026 312.089 239.966 320.567 235.284 328.807C231.282 335.87 226.814 342.71 222.19 349.449C221.647 345.986 221.122 342.506 220.578 339.043C217.683 320.755 214.789 302.485 211.894 284.197C211.039 278.806 210.224 273.381 209.388 267.974C210.185 262.941 211.098 257.926 212.419 252.979C213.74 248.083 215.391 243.255 217.334 238.512C217.742 238.734 218.266 238.802 218.771 238.512C234.799 229.778 247.814 216.267 254.594 200.76C256.673 196.035 257.916 190.763 255.818 185.867C255.585 185.339 254.653 185.083 254.148 185.492C253.643 185.919 253.157 186.345 252.652 186.772C248.941 188.119 245.406 190.013 242.161 192.043C238.451 194.363 235.07 197.058 232.02 200.027C225.571 206.321 221.025 213.896 218.441 222.033C217.683 224.404 217.12 226.793 216.751 229.232C216.557 230.46 216.421 231.706 216.343 232.951C216.265 234.009 216.168 235.083 216.285 236.141C214.361 240.73 212.749 245.421 211.428 250.181C210.262 254.412 209.291 258.693 208.65 263.027C207.232 253.695 205.755 244.364 204.065 235.066C204.065 234.964 204.065 234.879 204.065 234.776C204.24 234.538 204.318 234.247 204.162 233.906C204.143 233.855 204.104 233.804 204.085 233.753C204.123 231.791 204.221 229.829 204.415 227.867C204.784 224.165 205.464 220.498 206.396 216.881C208.261 209.597 211.175 202.534 214.769 195.779C222.19 181.807 232.526 169.32 243.424 157.31C248.961 151.22 254.653 145.249 260.209 139.193C263.006 136.14 265.784 133.069 268.485 129.964C270.253 127.934 273.749 124.727 272.156 121.895C270.272 118.534 264.755 121.4 262.171 122.458C258.674 123.908 255.313 125.58 252.088 127.456C245.697 131.192 239.927 135.764 235.051 140.967C224.522 152.192 218.305 166.454 217.509 180.971C217.411 182.763 217.392 184.554 217.45 186.362C217.45 186.55 217.509 186.686 217.606 186.806C216.46 188.631 215.352 190.473 214.303 192.333C208.067 203.473 203.657 215.533 202.686 227.936C202.53 227.151 202.394 226.366 202.22 225.564C202.725 220.992 202.394 216.318 201.87 211.763C201.268 206.407 200.238 201.101 199.053 195.813C196.664 185.134 193.652 174.557 191.865 163.793C190.797 157.327 190.272 150.828 190.292 144.328C198.839 137.146 206.066 128.838 211.739 119.729C214.614 115.105 217.062 110.278 219.043 105.313C221.044 100.281 222.773 95.0608 223.492 89.7383C224.269 83.887 223.706 77.7115 220.228 72.5426C219.859 72.0137 219.121 71.7067 218.499 72.1502C209.893 78.2062 203.871 86.5482 199.5 95.3508C195.692 103.01 192.934 111.114 191.069 119.319C190.777 116.948 190.389 114.577 189.884 112.239C187.902 102.891 184.269 93.8155 179.14 85.4564C176.226 80.731 172.846 76.2274 169.019 72.0308C168.475 71.4337 167.232 71.6725 167.154 72.4914C167.096 73.0373 167.076 73.5832 167.038 74.1291C167.018 74.1802 166.999 74.2485 167.018 74.3338C167.018 74.3338 167.018 74.3508 167.018 74.3679C165.717 93.3378 172.147 111.932 180.617 129.179C182.948 133.922 185.318 138.75 188.174 143.27C187.785 143.714 187.883 144.277 188.213 144.652C188.213 149.412 188.504 154.171 189.126 158.914C190.544 169.832 193.516 180.545 196.12 191.275C198.373 200.624 200.277 209.989 200.937 219.508C198.004 205.963 194.352 192.572 189.378 179.487C179.762 154.154 164.395 129.572 141.491 111.677C141.685 111.574 141.821 111.387 141.724 111.131C139.102 104.887 136.576 98.6262 134.672 92.1778C134.206 90.5913 133.779 89.0048 133.371 87.4012C133.487 87.333 133.584 87.2306 133.682 87.1282C133.973 87.0771 134.226 86.9065 134.342 86.5653C141.277 67.6977 144.697 47.8237 144.619 28.0178C144.619 23.1218 144.502 17.8846 141.608 13.5345C141.239 12.9886 140.345 12.7327 139.859 13.3468C131.37 23.8554 128.883 37.1787 128.067 49.7855C127.523 58.2298 127.892 66.7424 129.136 75.1356C127.718 71.8261 126.066 68.5677 124.143 65.4629C120.044 58.8098 114.915 52.6003 108.854 47.2266C107.358 45.913 105.843 44.6336 104.25 43.4053C102.754 42.2453 100.967 41.0511 98.8492 41.4776C96.6345 41.9041 95.9352 43.7294 96.4985 45.5036C97.0813 47.2778 97.9555 49.0007 98.7714 50.7067C102.093 57.5474 106.445 63.9959 111.613 69.8984C117.285 76.3809 124.007 82.164 131.525 86.9918C131.778 87.9812 132.011 88.9706 132.283 89.9601C134.264 97.125 136.829 104.256 140.481 110.909C138.325 109.271 136.149 107.651 133.856 106.132C126.047 100.929 117.674 96.6473 108.932 93.0819C108.971 92.9113 108.932 92.7066 108.718 92.536C104.366 89.073 99.6651 85.9853 95.2357 82.6075C93.9147 81.601 92.6132 80.5945 91.331 79.571C84.4927 65.2412 84.4538 46.8854 69.4368 36.5304C65.9011 34.0909 61.7827 32.385 57.3339 31.805C56.654 31.7197 56.0517 32.2826 56.1489 32.8627C57.8001 42.5523 62.3461 51.6961 68.5044 59.8163C74.041 67.1177 80.8599 73.5661 88.2227 79.4686C88.4364 79.9292 88.6695 80.3898 88.9609 80.8163C89.1552 81.1234 89.5437 81.1404 89.7962 80.9869C89.9517 81.0722 90.1265 81.1063 90.3014 81.1234C90.8647 81.5669 91.4087 82.0105 91.9915 82.4369C96.0128 85.5076 100.17 88.5612 104.541 91.3078C82.5694 83.034 58.4413 79.008 34.8182 76.2956C30.3888 75.7838 25.9983 75.4256 21.5301 75.1697C20.9473 75.1356 20.8502 75.8521 21.4136 75.9544C38.9755 78.8374 56.654 80.6969 74.0022 84.6205C84.3178 86.9576 94.5364 89.9089 104.308 93.679C102.249 93.679 100.17 93.679 98.1109 93.5937C94.245 93.4572 90.3791 93.1672 86.5325 92.809C78.8978 92.0925 71.3213 91.0007 63.7448 90.0454C49.9905 88.3053 35.9255 86.9918 22.0935 88.8853C14.6919 89.9089 7.44569 91.8707 0.879404 95.0779C0.180036 95.4191 -0.0725138 96.545 0.879404 96.8009C18.6356 101.39 37.6934 101.833 55.7021 98.0291C60.7531 96.9714 65.7263 95.5726 70.5442 93.8837C71.1658 93.6619 71.2824 93.1672 71.127 92.7407C75.4592 93.2866 79.7914 93.8325 84.1236 94.2761C88.3392 94.7026 92.5743 95.0267 96.8093 95.1461C100.287 95.2314 103.842 95.3167 107.3 94.8732C112.837 97.142 118.218 99.6498 123.366 102.533C145.124 114.696 161.501 132.438 173.39 152.295C167.31 149.651 160.86 147.518 154.449 145.573C147.727 143.526 140.87 141.803 133.895 140.558C130.962 140.029 127.989 139.62 124.998 139.296C124.823 139.006 124.532 138.767 124.182 138.698C122.783 132.523 119.675 126.638 115.731 121.417C111.554 115.873 106.173 110.977 100.015 107.088C96.4791 104.853 92.6909 102.942 88.6695 101.458C87.9701 101.202 86.9211 101.765 87.1542 102.499C91.2921 115.276 99.5486 126.74 111.185 135.287C112.798 136.464 114.468 137.59 116.197 138.647H116.217C108.99 138.391 101.763 138.767 94.653 140.012C82.7443 142.076 71.2047 146.409 61.9186 153.369C60.7725 154.239 59.6457 155.144 58.5772 156.082C57.5282 157.003 56.4791 158.01 56.2071 159.323C55.9546 160.466 56.5762 161.626 57.7807 162.138C59.1406 162.718 60.753 162.394 62.1518 162.189C69.4368 161.114 76.7219 159.92 83.8904 158.3C97.1202 155.331 110.136 150.879 120.957 143.407C121.268 143.202 121.54 142.963 121.831 142.759C121.851 142.759 121.87 142.759 121.909 142.759C122.647 142.451 123.385 142.161 124.124 141.854C124.279 141.854 124.434 141.786 124.551 141.684C124.706 141.616 124.862 141.564 124.998 141.496C125.192 141.411 125.309 141.291 125.386 141.138C126.94 141.309 128.514 141.496 130.068 141.718C143.609 143.714 156.625 147.723 169.272 152.312C170.826 152.875 172.361 153.438 173.934 153.949C174.07 154.001 174.187 154.001 174.303 153.984C177.897 160.159 181.083 166.505 183.842 172.971C191.069 189.876 195.731 207.413 199.306 225.189C197.926 222.92 196.469 220.702 194.973 218.519C191.554 213.555 187.805 208.761 183.745 204.189C175.702 195.131 166.416 186.891 156.178 179.726C150.369 175.666 144.25 172.032 137.761 168.876C137.295 168.655 136.848 169.337 137.295 169.593C137.334 169.593 137.353 169.627 137.392 169.644C137.334 169.832 137.295 170.019 137.295 170.292C137.295 170.821 137.334 171.35 137.392 171.896C137.489 172.988 137.684 174.079 137.936 175.154C138.402 177.269 139.043 179.351 139.859 181.364C140.52 182.967 141.297 184.52 142.152 186.055C142.113 186.123 142.113 186.209 142.152 186.26C142.229 186.379 142.346 186.482 142.443 186.601C143.667 188.716 145.066 190.763 146.639 192.691C149.495 196.205 152.934 199.378 156.819 202.04C161.035 204.94 165.775 207.072 170.729 208.829C176.77 210.979 183.084 212.702 188.699 215.687C189.223 215.96 189.845 215.977 190.311 215.636C190.816 216.318 191.321 217.018 191.807 217.7C195.09 222.391 197.926 227.253 200.665 232.183C203.366 246.735 205.483 261.389 207.776 275.906C207.97 277.186 208.164 278.448 208.378 279.728C207.834 278.892 207.271 278.056 206.649 277.254C204.24 274.081 201.268 271.266 198.082 268.656C198.082 268.23 197.829 267.82 197.188 267.769C197.11 267.769 197.052 267.769 196.974 267.752C196.294 267.206 195.614 266.677 194.935 266.148C190.622 262.839 186.192 259.632 181.705 256.493C177.373 253.456 172.924 250.522 168.203 247.98C162.977 245.165 157.46 242.777 151.477 241.532C151.107 241.447 150.933 241.856 151.088 242.095C151.088 242.095 151.069 242.112 151.069 242.129C150.874 242.845 151.243 243.494 151.613 244.142C152.059 244.927 152.545 245.677 153.05 246.428C154.06 247.895 155.148 249.294 156.333 250.641C158.645 253.252 161.287 255.657 164.162 257.806C169.99 262.174 176.848 265.517 184.153 267.53C188.155 268.639 192.409 269.458 196.605 269.594C199.014 271.624 201.326 273.774 203.346 276.128C205.173 278.26 206.765 280.563 207.97 283.037C208.553 284.231 209.077 285.477 209.446 286.739C209.446 286.773 209.446 286.807 209.466 286.858C212.846 308.404 216.129 329.967 219.587 351.513C219.451 351.598 219.335 351.718 219.257 351.871C218.83 352.622 218.616 353.424 218.538 354.242C214.323 348.169 208.3 343.342 202.317 338.616C189.845 328.773 178.208 318.111 165.367 308.626C161.773 305.965 158.082 303.406 154.255 301.018C150.486 298.646 146.581 296.412 142.385 294.671C142.307 294.637 142.249 294.654 142.191 294.671C141.899 294.399 141.258 294.45 141.258 294.91C141.316 300.165 143.007 305.316 145.435 310.093C147.883 314.904 151.205 319.39 155.148 323.365C163.56 331.844 174.672 337.849 186.659 341.636C190.136 342.727 193.672 343.649 197.246 344.416C199.014 344.792 200.782 345.133 202.569 345.44C204.337 345.747 206.163 346.122 207.97 346.054C210.612 348.391 213.099 350.848 215.216 353.577C217.8 356.887 219.723 360.571 220.967 364.41C221.608 366.355 222.055 368.35 222.346 370.346C222.521 371.643 222.598 372.957 222.715 374.253C222.482 374.099 222.074 374.185 222.152 374.509C222.793 377.358 223.842 380.138 224.813 382.919C226.678 393.684 228.854 404.619 231.865 415.332C231.535 414.871 231.224 414.411 230.894 413.95C229.281 411.783 227.552 409.685 225.687 407.655C224.425 406.273 223.084 404.789 221.588 403.51C221.627 403.254 221.53 402.981 221.258 402.759C220.967 402.52 220.675 402.281 220.384 402.043C219.723 399.313 218.868 396.618 217.975 393.956C216.654 390.016 215.177 386.126 213.468 382.305C210.029 374.594 205.833 367.156 200.996 360.06C198.257 356.051 195.284 352.178 192.098 348.425C191.574 347.811 190.272 348.238 190.486 349.039C194.643 364.853 199.072 381.162 210.049 394.554C208.223 393.086 206.358 391.671 204.454 390.306C197.518 385.376 189.942 381.162 181.977 377.614C173.254 373.741 164.143 370.602 154.993 367.617C144.755 364.273 134.42 361.066 124.454 357.108C124.454 357.057 124.454 357.006 124.493 356.972C124.726 356.341 123.696 355.931 123.385 356.563C122.55 358.303 123.094 360.145 124.065 361.766C124.998 363.318 126.163 364.785 127.348 366.201C129.777 369.101 132.594 371.762 135.644 374.185C141.783 379.081 148.912 383.039 156.43 386.109C165.017 389.623 174.09 392.114 183.24 394.212C192.059 396.225 201.248 397.556 209.621 400.814C213.915 402.486 217.955 404.857 221.219 407.86C222.54 409.293 223.803 410.76 225.027 412.261C226.056 413.779 226.892 415.4 227.475 417.14C227.669 417.72 228.698 417.447 228.66 416.884C231.01 420.04 233.186 423.316 235.148 426.659C235.265 426.847 235.42 426.966 235.595 427.069C240.393 440.648 246.921 453.647 256.421 465.281C258.791 468.181 261.355 470.945 264.114 473.589C265.221 474.647 267.203 473.316 266.134 472.207C256.187 462.091 248.883 450.73 243.346 438.669C242.608 435.53 242.511 432.203 242.938 429.047C243.424 425.448 244.609 421.951 246.124 418.59C247.64 415.212 249.408 411.903 251.292 408.645C252.496 407.826 253.701 407.024 255.002 406.342C256.906 405.352 258.927 404.516 260.966 403.783C265.202 402.247 269.631 401.138 273.924 399.757C282.802 396.908 291.078 392.694 298.344 387.389C302.482 384.369 306.289 381.008 309.709 377.341C310.175 376.846 309.806 375.908 309.009 375.891L309.106 375.874ZM248.65 300.659C248.592 300.54 248.553 300.42 248.514 300.301C248.3 282.679 250.457 265.108 256.032 248.134C257.023 245.131 258.15 242.18 259.335 239.246C259.257 239.655 259.179 240.065 259.102 240.474C258.655 242.589 258.208 244.705 257.781 246.82C256.887 251.153 256.032 255.503 255.197 259.836C253.507 268.52 251.952 277.237 250.67 285.971C249.971 290.68 249.31 295.388 248.864 300.113C248.786 300.301 248.728 300.472 248.669 300.659H248.65ZM296.401 287.609C293.409 289.588 290.01 291.038 286.727 292.59C279.15 296.156 271.399 299.55 263.22 301.905C259.004 303.116 254.73 303.883 250.359 304.446C250.709 304.139 251.059 303.832 251.408 303.525C265.61 300.437 279.208 295.013 291.37 287.95C294.575 286.091 297.742 284.112 300.714 281.962C300.966 281.945 301.219 281.911 301.472 281.911C300.656 284.282 298.635 286.125 296.382 287.609H296.401ZM297.509 282.252C292.555 285.596 287.465 288.735 282.045 291.481C275.44 294.825 268.485 297.64 261.355 299.994C259.354 300.659 257.314 301.256 255.255 301.819C256.285 301.461 257.295 301.086 258.305 300.693C261.025 299.636 263.706 298.51 266.348 297.316C271.535 294.961 276.566 292.3 281.365 289.4C284.123 287.728 286.824 285.954 289.446 284.112C289.699 283.941 289.757 283.702 289.718 283.481C292.283 282.935 294.866 282.542 297.489 282.269L297.509 282.252ZM267.902 291.533C273.73 288.325 280.121 285.835 286.746 284.18C278.198 290.1 268.893 295.183 259.024 299.226C257.431 299.875 255.838 300.489 254.225 301.103C258.46 297.572 262.909 294.279 267.902 291.533ZM249.932 297.179C251.253 289.673 252.419 282.133 253.72 274.61C255.216 265.995 256.848 257.414 258.713 248.85C259.238 246.428 259.781 243.988 260.345 241.566C260.617 240.406 260.889 239.246 261.161 238.086C261.258 237.659 261.374 237.233 261.491 236.789C261.083 251.87 258.83 266.967 254.886 281.604C253.468 286.841 251.816 292.027 249.951 297.145L249.932 297.179ZM243.715 272.358C244.473 262.873 247.64 253.627 252.866 245.302C254.323 242.982 255.974 240.781 257.742 238.649C255.1 245.319 253.002 252.194 251.35 259.069C249.252 267.837 247.931 276.759 247.543 285.715C247.368 289.861 247.368 294.006 247.601 298.152C244.376 289.878 242.997 281.075 243.696 272.358H243.715ZM218.985 235.732C228.116 223.381 237.052 210.927 246.552 198.781C247.931 197.024 249.33 195.267 250.709 193.527C251.311 192.759 251.914 191.992 252.516 191.207C251.37 194.039 249.913 196.819 248.456 199.515C246.61 202.961 244.57 206.321 242.375 209.614C238.004 216.199 232.934 222.374 227.241 228.14C224.755 230.665 222.113 233.07 219.471 235.459C219.315 235.561 219.14 235.646 218.985 235.749V235.732ZM252.73 199.685C251.098 203.404 249 207.004 246.668 210.416C242.006 217.205 236.197 223.415 229.456 228.703C227.494 230.239 225.435 231.689 223.317 233.07C227.552 229.249 231.418 225.104 234.993 220.856C240.199 214.663 244.862 208.13 248.766 201.238C250.942 197.417 252.671 193.425 254.711 189.552C255.158 192.964 254.128 196.495 252.73 199.685ZM251.972 190.098C251.311 190.951 250.631 191.787 249.99 192.623C248.805 194.175 247.62 195.745 246.455 197.297C244.104 200.419 241.753 203.524 239.383 206.646C234.624 212.923 229.942 219.218 225.318 225.564C223.298 228.328 221.316 231.126 219.354 233.923C224.444 222.698 231.243 212.105 239.597 202.5C243.405 198.133 247.543 193.988 251.952 190.081L251.972 190.098ZM218.441 230.239C218.674 228.14 219.082 226.076 219.568 224.012C220.559 219.867 222.229 215.823 224.386 212.036C228.446 204.906 234.41 198.679 241.637 193.885C244.162 192.213 246.804 190.815 249.544 189.535C241.073 197.212 233.672 205.793 227.572 215.073C224.055 220.412 220.967 225.957 218.325 231.672C218.363 231.194 218.383 230.733 218.441 230.256V230.239ZM270 124.761C269.242 126.279 267.863 127.576 266.717 128.872C264.133 131.824 261.491 134.724 258.83 137.624C253.39 143.526 247.892 149.361 242.492 155.297C234.255 164.356 226.348 173.704 219.704 183.718C219.704 183.496 219.704 183.291 219.723 183.07C221.763 179.078 223.783 175.103 226.134 171.248C228.815 166.829 231.69 162.496 234.74 158.265C240.763 149.941 247.523 142.008 254.983 134.621C259.238 130.408 263.725 126.348 268.426 122.509C268.543 122.424 268.601 122.322 268.64 122.219C268.66 122.219 268.679 122.219 268.698 122.219C270.719 121.98 270.563 123.601 269.981 124.761H270ZM258.499 126.262C260.112 125.478 261.744 124.744 263.395 124.062C263.9 123.857 264.425 123.652 264.949 123.465C257.625 129.794 250.767 136.532 244.551 143.714C237.654 151.681 231.515 160.176 226.29 169.064C224.833 171.538 223.473 174.045 222.113 176.553C221.336 178.003 220.559 179.453 219.801 180.92C220.287 172.681 222.54 164.543 226.367 157.02C228.193 155.553 229.884 153.932 231.554 152.363C233.788 150.265 235.964 148.115 238.062 145.915C242.336 141.445 246.416 136.788 250.126 131.943C250.359 131.636 250.243 131.329 250.029 131.124C252.73 129.35 255.527 127.729 258.48 126.279L258.499 126.262ZM247.815 132.659C244.493 136.941 240.996 141.104 237.207 145.096C235.109 147.296 232.953 149.463 230.719 151.561C229.825 152.397 228.912 153.216 227.999 154.035C229.67 151.152 231.574 148.371 233.711 145.727C237.693 140.814 242.472 136.447 247.815 132.659ZM217.567 103.215C213.798 112.837 208.378 121.963 201.481 130.135C198.295 133.905 194.799 137.47 191.03 140.797C202.317 125.46 210.729 108.486 216.129 90.8642C216.887 88.3736 217.606 85.8488 218.247 83.324C218.849 80.9869 219.607 78.5986 219.937 76.2103C223.842 84.7058 220.792 94.9414 217.567 103.215ZM219.024 74.4873C219.024 74.4873 218.985 74.4873 218.946 74.4873C218.946 74.4873 218.985 74.4532 219.004 74.4532C219.004 74.4532 219.004 74.4703 219.004 74.4873H219.024ZM216.926 76.0568C217.392 75.6644 217.897 75.3062 218.383 74.9308C218.383 74.9308 218.383 74.9479 218.383 74.965C217.683 77.268 217.411 79.6904 216.848 82.0275C216.324 84.3135 215.721 86.5823 215.08 88.8342C213.798 93.389 212.283 97.8926 210.593 102.345C207.193 111.267 202.977 119.95 198.082 128.309C195.867 132.079 193.516 135.781 191.03 139.415C191.127 138.716 191.224 138.016 191.302 137.3C192.681 135.031 193.847 132.642 194.973 130.288C196.605 126.893 198.082 123.465 199.383 119.967C201.987 112.973 203.949 105.791 205.27 98.5238C205.95 94.8561 206.416 91.1542 206.746 87.4353C209.563 83.2728 212.904 79.4004 216.906 76.0568H216.926ZM199.888 100.076C201.345 96.7497 203.016 93.4402 204.939 90.2671C203.541 103.369 200.005 116.248 194.468 128.48C193.575 130.459 192.564 132.404 191.574 134.348C191.729 132.165 191.787 129.981 191.768 127.798C193.264 118.313 195.984 108.981 199.908 100.059L199.888 100.076ZM183.123 97.2956C183.881 99.0697 184.561 100.861 185.182 102.669C184.988 102.396 184.794 102.123 184.599 101.85C183.706 100.52 182.812 99.1721 181.977 97.8244C180.345 95.2143 178.83 92.536 177.392 89.8236C175.547 86.2923 173.876 82.6758 172.361 79.008C176.732 84.7058 180.364 90.8472 183.123 97.2956ZM169.213 75.1014C169.68 75.6303 170.107 76.1762 170.554 76.7221C172.263 81.3451 174.245 85.8829 176.557 90.3013C177.975 93.0137 179.49 95.692 181.083 98.3191C181.88 99.6327 182.715 100.929 183.55 102.226C184.386 103.488 185.163 104.87 186.192 106.013C186.212 106.047 186.251 106.064 186.29 106.081C187.805 111.131 188.815 116.283 189.32 121.469C181.821 110.124 175.818 98.0632 171.506 85.5076C170.651 83.017 169.854 80.5092 169.097 77.9845C169.116 77.0121 169.136 76.0397 169.194 75.0844L169.213 75.1014ZM182.773 113.195C184.774 116.743 186.911 120.223 189.204 123.618C189.301 123.755 189.417 123.823 189.534 123.874C189.534 124.13 189.573 124.386 189.592 124.642C189.65 125.614 189.65 126.586 189.67 127.542C189.106 131.192 188.757 134.86 188.563 138.545C184.25 125.068 179.063 111.762 173.371 98.6944C172.302 96.2208 171.175 93.7643 170.049 91.3078C169.932 90.5401 169.796 89.7554 169.699 88.9877C169.388 86.5482 169.213 84.1087 169.136 81.6693C172.38 92.5531 177.12 103.13 182.773 113.195ZM177.431 116.914C174.478 109.664 172.089 102.209 170.612 94.6173C175.508 105.689 179.995 116.914 183.842 128.309C184.697 130.834 185.512 133.359 186.309 135.901C185.357 134.041 184.386 132.199 183.492 130.322C181.355 125.904 179.276 121.452 177.431 116.914ZM142.249 41.2217C141.452 50.9114 139.82 60.5499 137.353 70.0178C136.129 74.7091 134.692 79.3663 133.079 83.9893C132.982 83.9211 132.905 83.8529 132.807 83.7846C132.924 83.8358 133.099 83.8358 133.157 83.6993C136.032 74.982 137.975 66.0771 139.471 57.1039C140.947 48.1648 141.763 39.1405 141.957 30.1161C142.016 27.6425 142.035 25.1689 141.996 22.6953C141.996 21.4329 141.957 20.1706 141.919 18.9082C141.919 18.8058 141.919 18.7205 141.919 18.6182C142.676 21.2794 142.812 24.0771 142.832 26.8237C142.851 31.6344 142.676 36.4281 142.268 41.2217H142.249ZM140.306 16.2128C140.287 16.9634 140.364 17.714 140.384 18.4646C140.442 19.6247 140.481 20.7676 140.52 21.9277C140.578 24.1795 140.617 26.4313 140.598 28.7002C140.578 33.1697 140.384 37.6393 140.054 42.0917C139.374 51.0479 138.15 59.9869 136.265 68.8066C135.197 73.7538 133.992 78.6839 132.691 83.5799C132.691 83.6311 132.691 83.6652 132.73 83.6993C132.399 82.2322 132.108 80.7481 131.836 79.2639C132.419 77.4386 132.768 75.545 133.176 73.6855C133.604 71.7408 133.992 69.796 134.381 67.8513C135.139 63.9106 135.799 59.9357 136.362 55.9609C137.45 48.0113 138.169 40.0276 138.48 32.0097C138.558 29.8261 138.616 27.6425 138.655 25.4419C138.655 24.316 138.674 23.2071 138.674 22.0812C138.674 21.0576 138.771 19.9829 138.538 18.9935C139.102 18.0381 139.704 17.1169 140.364 16.2128H140.306ZM132.633 33.6645C133.623 29.5532 135.041 25.476 137.004 21.6377C137.004 22.6953 137.004 23.7359 137.004 24.7936C137.004 26.7213 136.984 28.632 136.926 30.5597C136.809 34.5174 136.596 38.4581 136.304 42.3988C135.702 50.2802 134.692 58.1445 133.351 65.9577C132.963 68.1754 132.555 70.3931 132.108 72.5937C131.855 73.8391 131.564 75.1014 131.292 76.3468C131.098 75.1185 130.923 73.8732 130.768 72.6278C129.213 59.731 129.544 46.3566 132.613 33.6474L132.633 33.6645ZM100.034 43.0812C101.064 43.1494 101.957 43.8318 102.696 44.4118C104.23 45.5889 105.707 46.8342 107.125 48.1137C112.739 53.1632 117.674 58.8098 121.656 64.9512C123.871 68.3801 125.853 71.9455 127.504 75.6132C128.048 76.8244 128.553 78.0356 129.039 79.2639C125.755 75.0503 122.492 70.8196 119.189 66.623C115.187 61.5734 111.108 56.558 106.95 51.6108C104.58 48.779 102.249 45.8789 99.6262 43.2176C99.568 43.1494 99.4708 43.1153 99.4126 43.1153C99.6068 43.0812 99.8205 43.0471 100.054 43.0641L100.034 43.0812ZM99.1017 43.2347C99.0046 43.32 98.9657 43.4565 99.0628 43.593C101.025 46.1689 103.24 48.6084 105.338 51.099C107.436 53.5897 109.515 56.1145 111.574 58.6392C115.653 63.6547 119.636 68.7042 123.502 73.8561C125.037 75.9032 126.571 77.9503 128.067 80.0145C118.995 72.4573 111.108 63.8935 104.872 54.3403C102.735 51.0479 100.753 47.6701 98.9657 44.2241C98.8492 44.0194 98.5966 44.0365 98.4412 44.1559C98.4801 43.7294 98.7326 43.4224 99.1211 43.2518L99.1017 43.2347ZM102.987 54.2379C102.093 52.6685 101.258 51.0649 100.481 49.4613C100.092 48.6596 99.7234 47.8407 99.3543 47.0219C99.024 46.2542 98.5578 45.4183 98.4218 44.5824C104.483 57.0357 113.283 68.5507 124.007 78.2745C125.988 80.0657 128.048 81.7716 130.146 83.4434C118.781 75.5962 109.398 65.5994 102.968 54.2209L102.987 54.2379ZM58.7909 34.2445C61.0445 36.5986 63.3951 38.8505 65.5515 41.2729C68.0964 44.1047 70.5053 47.0389 72.72 50.0755C77.1687 56.1656 81.1901 62.6141 84.2596 69.3525C85.0172 70.9902 85.6778 72.6449 86.3577 74.3167C85.4058 72.952 84.4344 71.5872 83.4631 70.2225C81.3455 67.2201 79.2086 64.2176 77.091 61.1981C72.8948 55.2103 68.6987 49.2396 64.5025 43.2347C62.7152 40.6758 60.9279 38.134 59.1018 35.6092C58.9852 35.1486 58.8686 34.7051 58.7715 34.2445H58.7909ZM75.634 45.1795C80.4713 51.9008 82.5694 59.8163 84.823 67.4077C84.9007 67.6465 84.9784 67.8854 85.0561 68.1413C83.6768 65.4459 82.2586 62.7505 80.685 60.1405C76.8385 53.7262 72.312 47.6189 67.2222 41.887C64.8327 39.1917 62.3461 36.4622 59.568 34.0227C66.3674 35.5751 71.9041 40.0105 75.634 45.1624V45.1795ZM82.686 72.0478C75.0124 64.9512 68.2907 56.9674 63.7059 48.0113C61.9964 44.6677 60.6365 41.2217 59.6263 37.6734C62.7152 42.2964 65.9789 46.8172 69.1454 51.389C73.3028 57.3939 77.4408 63.4329 81.5593 69.4548C82.4917 70.8196 83.4242 72.1672 84.3373 73.532C83.7739 73.0373 83.2299 72.5426 82.6665 72.0478H82.686ZM40.5685 89.7895C50.0683 90.0283 59.4709 91.2054 68.8541 92.4166C68.3878 92.5872 67.9021 92.7237 67.4359 92.8772C65.9011 92.6725 64.3082 92.5702 62.7734 92.4337C60.6753 92.246 58.5578 92.0584 56.4597 91.8878C52.3023 91.5466 48.145 91.3931 43.9682 91.2907C35.6147 91.086 27.2999 91.4101 18.9852 92.1096C16.8288 92.2972 14.6919 92.5019 12.5355 92.7407C21.5302 90.2501 31.127 89.5507 40.5491 89.7724L40.5685 89.7895ZM4.4345 95.5896C4.64819 95.4873 4.88131 95.402 5.095 95.3167C5.13386 95.3167 5.17273 95.3167 5.23101 95.3167C21.6079 92.7578 38.2762 91.7001 54.9056 92.6725C57.1979 92.809 59.4903 92.9455 61.7826 93.1672C62.2877 93.2184 62.8123 93.2866 63.3368 93.3378C47.9702 94.9243 32.5064 95.7432 17.0231 95.7432C14.5559 95.7432 12.1081 95.7261 9.64089 95.692C7.95075 95.6579 6.16349 95.5214 4.4345 95.5726V95.5896ZM16.8483 97.8585C14.3034 97.5515 11.7585 97.1591 9.25239 96.6814C11.3699 96.7156 13.468 96.7497 15.5855 96.7497C19.8789 96.7667 24.1722 96.7497 28.4655 96.6473C37.1882 96.4597 45.9109 96.0502 54.6142 95.402C56.6346 95.2485 58.6355 95.0779 60.6559 94.9073C46.5131 98.6091 31.4768 99.6156 16.8483 97.8585ZM118.723 129.828C120.024 132.284 121.073 134.809 122.006 137.385C114.779 128.173 106.95 119.336 98.4801 110.977C96.4597 108.981 94.381 107.019 92.2634 105.092C103.784 110.619 113.167 119.336 118.723 129.828ZM119.267 135.577C110.583 128.753 102.851 121.093 96.5374 112.461C94.9055 110.227 93.3902 107.941 91.8943 105.638C100.831 114.201 109.281 123.14 116.936 132.642C117.732 133.615 118.49 134.604 119.267 135.594V135.577ZM113.963 134.536C111.127 132.557 108.446 130.391 105.979 128.053C101.044 123.379 96.9065 118.057 93.7787 112.308C92.3411 109.664 91.1172 106.934 90.1459 104.119C90.1459 104.119 90.1654 104.119 90.1848 104.119C93.1571 109.561 96.9842 114.696 101.044 119.541C105.357 124.676 109.981 129.623 115.148 134.127C117.033 135.764 119.014 137.334 121.035 138.852C120.141 138.34 119.228 137.863 118.354 137.351C116.858 136.464 115.381 135.525 113.963 134.536ZM99.4902 141.104C97.0424 142.281 94.5947 143.509 92.0886 144.601C89.0191 145.949 85.872 147.194 82.686 148.32C77.1299 150.282 71.399 151.834 65.6292 153.233C73.7302 147.689 83.3854 144.038 93.3902 142.076C95.4106 141.684 97.4504 141.36 99.5097 141.104H99.4902ZM62.5209 155.485C63.0648 155.058 63.6476 154.666 64.211 154.257C70.6024 153.096 76.8579 151.322 82.9191 149.19C86.1634 148.047 89.3494 146.785 92.4772 145.42C95.5272 144.089 98.616 142.707 101.452 141.036C101.53 140.984 101.569 140.933 101.588 140.865C103.822 140.626 106.057 140.473 108.31 140.387C107.591 140.728 106.892 141.104 106.231 141.394C104.561 142.127 102.89 142.844 101.2 143.543C97.839 144.942 94.4393 146.29 91.0007 147.586C84.143 150.162 77.2076 152.551 70.1362 154.632C66.8142 155.604 63.4534 156.508 60.1314 157.464C60.8891 156.764 61.7049 156.099 62.5209 155.468V155.485ZM59.1794 158.436C66.1343 157.02 72.9531 154.871 79.6166 152.704C86.6297 150.435 93.5262 147.996 100.306 145.232C102.21 144.464 104.094 143.663 105.979 142.844C106.911 142.434 107.863 142.025 108.796 141.616C109.651 141.24 110.564 140.899 111.282 140.336C114.119 140.302 116.936 140.387 119.772 140.558C120.024 140.694 120.296 140.814 120.568 140.933C112.72 143.799 104.93 146.733 96.9453 149.309C88.9609 151.885 80.8016 154.137 72.6229 156.235C67.9798 157.43 63.298 158.504 58.6549 159.767C58.5578 159.801 58.5189 159.869 58.5189 159.954C58.4024 159.511 58.7715 158.914 59.1406 158.436H59.1794ZM69.2232 159.067C67.5136 159.357 65.8235 159.613 64.1139 159.886C63.2397 160.023 62.3461 160.159 61.4719 160.296C60.8114 160.398 60.1119 160.551 59.432 160.483C58.9463 160.432 58.6938 160.278 58.5967 160.057C58.6355 160.125 58.7132 160.176 58.8298 160.159C67.1445 158.726 75.3232 156.491 83.4048 154.239C91.5835 151.971 99.7234 149.514 107.747 146.853C110.466 145.949 113.167 145.027 115.867 144.089C107.941 148.866 99.024 152.295 89.8157 154.768C83.0551 156.577 76.1586 157.907 69.2232 159.05V159.067ZM167.97 190.934C171.933 194.414 175.683 198.099 179.238 201.92C177.004 199.975 174.692 198.133 172.38 196.342C165.639 191.122 158.626 186.14 151.768 181.057C147.708 178.037 143.628 175.052 139.548 172.066C139.432 171.981 139.335 171.998 139.238 172.066C139.121 171.503 139.005 170.94 138.888 170.378C149.301 176.417 159.15 183.206 167.97 190.968V190.934ZM140.054 175.598C139.782 174.608 139.548 173.619 139.335 172.629C146.27 177.935 153.244 183.189 160.16 188.512C166.571 193.442 173.176 198.201 179.102 203.592C180.559 204.906 181.919 206.287 183.24 207.686C173.798 201.374 162.453 197.502 152.39 191.975C150.661 191.036 148.971 190.03 147.339 188.972C146.853 188.648 146.348 188.307 145.862 187.949C144.638 186.157 143.55 184.281 142.618 182.353C141.569 180.17 140.695 177.901 140.054 175.598ZM160.51 201.613C155.459 198.594 151.107 194.738 147.65 190.337C148.582 190.934 149.534 191.514 150.486 192.06C153.419 193.749 156.45 195.284 159.539 196.768C165.794 199.788 172.186 202.654 178.091 206.185C180.87 207.857 183.531 209.665 185.979 211.695C177.567 208.181 168.3 206.236 160.53 201.596L160.51 201.613ZM179.14 256.203C183.414 259.188 187.552 262.327 191.671 265.466C192.234 265.892 192.798 266.336 193.361 266.78C192.895 266.541 192.448 266.302 191.982 266.063C182.812 259.205 173.002 252.91 162.822 247.281C160.782 246.155 158.723 245.063 156.644 243.988C159.888 245.2 163.055 246.564 166.086 248.134C170.651 250.522 174.983 253.269 179.16 256.169L179.14 256.203ZM176.052 262.583C169.427 259.598 163.463 255.418 158.684 250.386C157.382 249.021 156.158 247.588 155.032 246.104C154.468 245.37 153.924 244.62 153.4 243.852C153.089 243.391 152.798 242.914 152.409 242.521C152.545 242.572 152.681 242.624 152.837 242.658C152.837 242.743 152.875 242.828 152.972 242.897C164.318 248.884 175.255 255.299 185.493 262.668C185.649 262.788 185.804 262.907 185.979 263.027C183.531 261.713 181.103 260.348 178.694 258.966C173.332 255.879 168.048 252.672 162.9 249.328C159.947 247.417 157.013 245.472 154.099 243.511C153.808 243.306 153.478 243.698 153.75 243.903C163.832 251.119 174.556 257.602 185.532 263.709C187.436 264.767 189.32 265.875 191.243 266.916C191.302 266.967 191.379 267.018 191.438 267.07C189.786 266.831 188.135 266.541 186.503 266.148C182.89 265.278 179.393 264.067 176.071 262.566L176.052 262.583ZM142.851 296.309C148.99 304.276 156.1 311.594 163.929 318.299C171.855 325.088 180.636 331.178 190.02 336.364C192.39 337.678 194.799 338.906 197.227 340.1C189.631 337.849 182.385 334.71 175.721 330.769C166.552 325.344 158.334 318.452 151.923 310.52C148.388 306.135 145.59 301.461 142.909 296.65C142.89 296.531 142.851 296.412 142.832 296.309H142.851ZM145.046 297.862C146.387 299.056 147.863 300.147 149.262 301.273C151.224 302.86 153.186 304.429 155.168 306.016C159.111 309.155 163.094 312.294 167.076 315.398C175.003 321.591 182.87 327.852 190.913 333.942C192.836 335.409 194.799 336.842 196.741 338.309C190.544 335.273 184.58 331.861 178.888 328.125C170.068 322.359 161.928 315.774 154.682 308.524C151.282 305.112 148.077 301.546 145.066 297.862H145.046ZM162.103 307.995C168.397 312.635 174.342 317.616 180.248 322.632C184.91 326.589 189.553 330.564 194.235 334.505C181.724 325.446 169.349 316.251 157.246 306.767C155.071 305.061 152.914 303.355 150.758 301.649C148.524 299.892 146.367 297.947 143.939 296.394C143.9 296.377 143.881 296.377 143.842 296.377C143.686 296.19 143.531 296.002 143.376 295.814C149.767 299.721 156.139 303.576 162.103 307.995ZM142.987 295.576C142.89 295.576 142.793 295.627 142.735 295.712C142.715 295.61 142.676 295.49 142.657 295.388C142.773 295.456 142.871 295.524 142.987 295.593V295.576ZM190.272 340.305C184.269 338.582 178.422 336.347 173.002 333.498C162.764 328.125 154.002 320.585 148.465 311.253C146.231 307.5 144.716 303.559 143.609 299.482C145.396 302.945 147.65 306.255 150.039 309.377C153.186 313.505 156.761 317.463 160.704 321.028C168.572 328.159 177.858 334.061 188.057 338.343C192.662 340.271 197.441 341.823 202.356 343.052C201.345 342.881 200.335 342.71 199.344 342.506C196.275 341.892 193.244 341.158 190.272 340.288V340.305ZM216.168 393.018C216.731 394.571 217.237 396.123 217.722 397.692C217.722 397.658 217.683 397.624 217.664 397.59C216.751 395.987 215.838 394.383 214.925 392.779C213.099 389.521 211.292 386.246 209.505 382.953C205.95 376.385 202.589 369.732 199.344 363.045C198.451 361.203 197.577 359.36 196.702 357.501C196.43 356.938 196.178 356.375 195.925 355.829C204.551 367.344 211.389 379.866 216.168 393.001V393.018ZM205.988 385.188C201.715 378.074 198.742 370.415 196.333 362.67C195.304 359.36 194.41 356.034 193.516 352.69C193.516 352.69 193.516 352.707 193.536 352.724C194.021 354.123 194.663 355.488 195.284 356.853C196.061 358.558 196.858 360.264 197.674 361.97C199.286 365.382 200.937 368.777 202.608 372.155C205.95 378.859 209.349 385.546 212.924 392.165C213.934 394.025 214.944 395.867 215.974 397.71C216.032 397.829 216.09 397.948 216.168 398.051C212.186 394.161 208.766 389.845 205.969 385.171L205.988 385.188ZM177.586 377.358C188.971 382.203 199.461 388.463 208.728 395.952C208.456 395.782 208.184 395.611 207.912 395.441C205.153 393.735 202.297 392.148 199.364 390.664C193.536 387.713 187.475 385.137 181.336 382.749C168.903 377.904 156.1 373.758 143.92 368.368C140.481 366.849 137.12 365.212 133.837 363.437C132.225 362.567 130.651 361.646 129.097 360.708C127.562 359.77 126.086 358.729 124.512 357.825C124.512 357.791 124.512 357.774 124.512 357.74C141.763 365.195 160.277 370.005 177.567 377.358H177.586ZM124.784 359.411C124.687 359.121 124.609 358.831 124.57 358.524C126.902 360.367 129.66 361.902 132.283 363.369C135.041 364.922 137.897 366.389 140.772 367.77C146.717 370.654 152.895 373.161 159.111 375.584C171.525 380.394 184.25 384.744 196.1 390.613C198.587 391.841 201.015 393.172 203.405 394.571C201.112 393.581 198.82 392.626 196.489 391.688C190.039 389.095 183.453 386.792 176.751 384.779C163.774 380.872 149.922 378.143 138.363 371.37C132.924 368.18 128.475 364.137 124.803 359.428L124.784 359.411ZM141.433 376.078C137.742 373.639 134.323 370.892 131.292 367.839C130.904 367.446 130.515 367.02 130.146 366.61C131.797 368.009 133.565 369.306 135.372 370.483C140.539 373.878 146.329 376.454 152.293 378.603C158.975 381.008 165.911 382.8 172.768 384.83C179.607 386.843 186.328 389.146 192.914 391.722C196.605 393.172 200.238 394.707 203.813 396.345C204.667 396.737 205.503 397.147 206.358 397.556C201.287 396.021 196.003 394.98 190.797 393.888C173.487 390.255 155.828 385.632 141.433 376.078ZM254.245 404.294C254.089 404.414 253.934 404.516 253.779 404.636C253.876 404.482 254.012 404.329 254.109 404.175C254.148 404.226 254.187 404.26 254.245 404.294ZM301.744 378.143C288.009 383.602 274.934 390.357 262.851 398.272C260.364 399.91 257.916 401.616 255.527 403.356C264.755 393.649 276.625 385.939 290.068 381.316C293.876 380.002 297.78 378.944 301.744 378.143ZM288.844 380.394C279.111 383.96 270.136 389.078 262.54 395.509C259.937 397.71 257.528 400.064 255.294 402.554C263.239 392.148 275.284 384.301 288.844 380.394ZM267.669 376.795C264.56 382.629 261.2 388.361 257.858 394.093C259.937 387.201 262.054 380.326 264.716 373.571C267.727 365.877 271.263 358.337 275.187 350.95C277.052 347.453 279.034 343.99 281.093 340.578C278.936 353.185 273.808 365.263 267.669 376.778V376.795ZM281.52 337.763C281.306 337.78 281.093 337.883 280.957 338.104C272.137 352.656 265.143 368.043 259.917 383.874C259.412 385.427 258.907 386.979 258.441 388.549C260.5 374.918 265.376 361.561 272.72 349.432C275.051 345.576 277.654 341.84 280.413 338.207C280.801 337.951 281.17 337.661 281.578 337.422C281.578 337.541 281.54 337.661 281.52 337.763ZM271.574 345.832C273.613 343.546 275.925 341.465 278.451 339.589C268.271 352.434 261.472 367.446 258.208 382.783C257.256 387.252 256.615 391.756 256.265 396.294C256.362 378.654 258.791 360.128 271.574 345.849V345.832ZM286.765 392.421C282.647 394.571 278.295 396.413 273.827 397.914C269.631 399.313 265.338 400.439 261.18 401.94C259.626 402.503 257.975 403.151 256.382 403.885C268.116 395.85 280.665 388.805 293.973 382.936C298.111 381.111 302.326 379.388 306.581 377.784C306.639 377.767 306.678 377.733 306.736 377.699C306.736 377.699 306.775 377.699 306.795 377.699C301.064 383.499 294.303 388.498 286.785 392.421H286.765Z" fill="#272727"/>
</svg>
