<svg width="1707" height="858" viewBox="0 0 1707 858" fill="none" xmlns="http://www.w3.org/2000/svg">
<path d="M514.533 4.26658C508.533 7.19991 502.533 11.9999 494.667 19.9999C475.467 39.3332 463.467 60.1332 455.6 87.3332C448 113.733 445.6 117.867 426 138.667C411.867 153.6 409.867 157.2 403.333 180C391.733 220 374.667 267.733 368.933 276.533C365.867 281.067 345.6 290.933 326.667 297.067C304.8 304.133 291.6 308 288.8 308C287.6 308 281.067 304.933 274.4 301.2C267.6 297.333 253.6 289.867 243.467 284.4C220.8 272.267 210.533 265.467 190.667 249.2C149.733 215.867 139.333 208 125.6 200.267C109.2 190.933 90.8 178.267 81.0667 169.467C72.4 161.733 64.8 151.6 55.3333 135.333C43.3333 114.667 40.8 112.8 34.4 119.6C29.4667 124.933 28 128.4 28 134.933C28 155.467 56.1333 182.267 108.667 212C131.2 224.667 128.933 223.067 169.6 253.867C229.467 299.333 263.333 319.6 342 357.067C364.133 367.733 391.333 388.133 400 400.8C404 406.533 404 406.8 402.667 415.333C400.533 428.4 397.067 436.4 388.4 447.733C375.2 465.067 367.867 478.933 363.2 496C359.333 509.6 359.733 544.533 363.867 561.333C370 586.533 389.6 632.933 405.733 660.133C416.933 679.333 429.2 694 459.6 724.933C487.733 753.467 497.6 761.333 505.6 761.333C508.667 761.333 509.333 760.667 510.133 756.4C511.6 748.533 509.733 707.733 506.667 683.333C494.533 583.867 471.867 472.667 457.333 440.4C452.4 429.6 438.133 415.067 424.933 407.467C418.4 403.733 415.067 400.8 413.333 397.333C411.867 394.533 409.2 390.533 407.333 388.133C405.333 385.867 404.133 384 404.533 384C406.8 384 420 389.733 420 390.8C420 391.467 421.2 392 422.8 392C424.267 392 434 395.067 444.4 398.8C473.333 409.333 490.933 415.2 527.733 426.667C546.267 432.533 563.067 438.133 565.067 439.2C574.4 444 584.533 459.2 590.533 477.467L593.467 486.267L590.533 492.8C577.067 524 570.667 554.267 570.667 586.533C570.667 610 572.667 620.667 580.667 641.333C596 681.2 630.8 732.667 653.867 749.467C671.733 762.667 672.933 740.8 657.333 685.333C644.4 639.2 643.067 630.8 645.333 610.667C649.467 572.133 649.733 565.067 647.467 556C642.933 538 628.667 515.067 608.133 493.067C603.067 487.6 598.4 481.467 597.867 479.467L597.067 475.867L604.133 478.667C608.133 480.267 614.667 483.333 618.667 485.6C629.867 491.867 655.067 509.2 657.733 512.533C660.4 515.733 664.267 528 664.667 534.267C664.8 536.667 666.8 542.4 669.067 546.933C672.267 553.467 673.6 558.933 675.2 571.467C678.933 599.2 684.4 616.4 694.8 631.6C697.2 635.2 706.133 645.2 714.667 654C723.067 662.8 734.133 674.533 738.933 680.133C749.067 691.6 759.867 698.267 770.667 699.6C780.4 700.667 781.867 699.067 780.933 687.733C779.067 665.6 756.667 615.6 730.4 575.333C726.133 568.667 724.4 565.333 726.533 567.867L730.533 572.4L740.933 571.6C753.467 570.533 766.4 567.333 769.6 564.4C771.2 562.933 772 560.267 772 556C772 550.267 771.467 549.2 766 544.133C754.533 533.6 720 512.4 717.2 514.133C716.133 514.667 716 514.533 716.533 513.467C718.4 510.533 688.933 498.667 679.733 498.667C673.333 498.667 662.667 501.2 662.667 502.8C662.667 503.467 663.733 503.6 665.067 503.2C666.8 502.533 666.933 502.667 665.6 503.733C662.4 505.867 666.4 511.2 677.333 519.333C691.2 529.733 704.667 542 714.667 553.467C720.4 560.133 718 558.133 707.333 547.2C698.533 538.267 685.6 526.8 678.667 521.6C666.133 512.267 665.867 512 657.467 496.133C652.667 487.333 644.8 474.533 639.867 467.733C634.933 460.933 631.2 455.2 631.333 454.933C631.6 454.667 644 456.533 658.933 459.2C673.733 461.733 700.4 466.4 718 469.467C735.6 472.533 751.867 475.733 754 476.667C756.267 477.467 761.067 478.933 764.667 479.867C774.267 482.267 782 487.2 792.8 498L802.4 507.467L808.533 527.333C812 538.4 819.333 559.067 825.067 573.333L835.333 599.333V641.333C835.333 676.8 835.733 684.667 837.6 692.4C842.267 710.133 851.867 724.933 871.733 744.667C894 766.933 924.4 786.8 932.8 784.8C942.4 782.4 949.6 772 951.333 758.667C952.533 748.933 948.667 706.667 944.533 684C938.133 649.2 927.867 613.733 919.2 596.667C902.8 564.4 868.667 534.133 822.667 510.933C807.6 503.467 805.2 501.733 798.4 493.733C794.267 488.8 790.933 484.533 791.067 484.4C792.4 483.067 927.067 517.333 941.333 522.667C965.467 531.6 994.533 547.2 998.533 553.333C999.6 555.2 1004.53 562 1009.47 568.667C1014.27 575.2 1018.53 581.333 1018.93 582C1019.33 582.8 1022.27 592.8 1025.2 604.4C1038.8 656.133 1058.4 702.933 1080.53 735.867C1099.6 764.4 1116.53 775.6 1126 766C1130.93 761.2 1130.8 749.467 1125.87 720.267C1124.13 709.467 1122.67 695.733 1122.67 688.667C1122.67 680.133 1121.87 673.733 1120 667.867C1116.8 657.333 1104.67 638.4 1093.2 626C1084.93 617.067 1084.53 616.267 1082.93 606.8C1080.67 593.6 1075.6 582.4 1068.93 576.533C1062.4 570.533 1042.27 560.933 1019.33 552.667C1007.47 548.4 998.133 544 990 538.8C983.467 534.533 976.533 530.267 974.933 529.467C973.2 528.533 972 527.6 972.267 527.333C972.533 527.067 978.933 528 986.667 529.467C1008 533.2 1043.47 538.4 1068.27 541.2C1087.2 543.467 1091.73 544.4 1097.33 547.467C1105.87 552.133 1137.87 585.733 1141.33 593.733C1142.67 596.8 1145.07 605.2 1146.4 612.267C1152.4 641.333 1167.87 659.2 1204.13 678.533C1220.8 687.467 1234.4 692.933 1247.33 696.133C1261.47 699.467 1268.8 699.467 1270.67 696.133C1273.07 691.467 1272.13 684.8 1268.13 678.533C1260.13 666 1219.2 624.8 1193.07 603.067C1172.27 585.6 1162.53 580.533 1149.33 579.867C1145.33 579.733 1140.93 579.067 1139.73 578.4C1138.4 577.867 1132.53 571.2 1126.4 563.6C1120.4 556.133 1114 548.533 1112.27 546.8L1109.07 543.6L1126.27 544.4C1151.47 545.467 1187.2 552.267 1216 561.467C1235.47 567.6 1261.07 580.8 1285.6 597.2C1297.87 605.467 1308.27 612.667 1308.67 613.2C1309.07 613.867 1310 620.667 1310.67 628.267C1315.07 672.533 1325.2 707.067 1338 721.2C1345.73 729.733 1357.87 738.8 1374 747.867C1389.87 756.933 1406.93 769.333 1422.67 783.467C1438.13 797.2 1441.47 799.2 1448.8 798.267C1452.27 798 1456.53 796.4 1458.53 795.067C1463.73 791.067 1464 779.067 1459.33 765.333C1451.6 743.333 1424.67 693.2 1404.93 664.133C1393.07 646.533 1377.87 631.067 1368 626.267C1340.8 613.2 1333.47 610.4 1323.07 609.733C1314.13 609.067 1311.73 608.267 1306 604.267C1293.07 595.467 1294.67 594.533 1320.67 595.6C1337.07 596.267 1342 596 1348.27 594.133C1357.73 591.467 1366.67 591.467 1378.27 594.133C1397.33 598.667 1412.13 593.333 1427.47 576.933C1432.67 571.333 1438 563.733 1441.07 557.6C1445.33 548.8 1446 546 1446.53 536.4C1447.07 521.733 1445.33 518.667 1436.27 518.8H1430L1424.13 528C1412.8 545.733 1380 575.867 1362.4 584.8C1354.53 588.8 1342.53 592 1335.33 592C1330.27 592 1307.87 588.667 1286.67 584.533C1279.2 583.2 1271.73 580.133 1257.33 572.8C1234.8 561.333 1219.2 555.6 1185.6 546.8C1172.13 543.2 1160.8 540 1160.4 539.467C1158.27 537.467 1165.07 533.467 1175.47 530.667C1185.6 528 1189.2 527.733 1209.87 528.267C1227.47 528.533 1233.47 529.2 1235.6 530.667C1237.07 531.733 1243.33 536.8 1249.47 541.733C1262.53 552.267 1273.33 557.867 1284.93 560.267C1292.53 561.733 1294.13 561.6 1303.87 558.8C1315.87 555.333 1316.93 555.2 1330.27 556.667C1341.87 557.867 1350 555.467 1355.33 549.2C1359.47 544.133 1359.47 542.533 1355.2 537.467C1351.87 533.467 1331.87 522.667 1327.87 522.667C1326.8 522.667 1324.27 521.733 1322 520.533C1319.87 519.333 1314.4 517.6 1310 516.667C1305.6 515.733 1303.6 514.8 1305.47 514.8C1307.33 514.667 1311.6 515.467 1315.07 516.533C1321.07 518.267 1321.33 518.267 1329.33 513.733C1338.93 508.4 1365.33 490.933 1365.33 489.867C1365.33 489.467 1364.8 489.6 1364 490C1361.87 491.333 1362.53 489.867 1364.93 487.867C1366.4 486.533 1366.8 486.533 1366.13 487.6C1361.73 495.2 1385.47 473.867 1394 462.667C1400.13 454.667 1401.33 452.4 1398.4 454.133C1397.33 454.667 1397.07 454.533 1397.73 453.867C1398.4 453.2 1399.6 452.667 1400.4 452.667C1402.53 452.667 1403.2 444.8 1401.33 441.333C1399.47 437.733 1397.2 437.867 1397.73 441.6C1398 443.333 1398 443.867 1397.73 442.933C1397.33 441.867 1395.2 440.267 1392.93 439.2L1388.67 437.2L1392.67 438C1396.27 438.667 1396.4 438.533 1394 437.067C1387.87 433.467 1373.87 435.6 1332.67 446.8C1292.13 457.733 1238.8 477.333 1239.6 481.067C1239.87 481.867 1239.07 482.267 1238.13 481.867C1235.33 480.8 1224.53 491.2 1218.4 500.533C1215.6 504.933 1213.33 508.933 1213.33 509.467C1213.33 510.133 1216.53 509.333 1220.4 507.867C1230.53 503.733 1232.27 503.467 1224.53 507.2C1220.67 509.067 1216.53 510.667 1215.2 510.933C1213.73 511.2 1212.13 512 1211.33 512.8C1208.27 516.267 1180.27 524.4 1146.67 531.6C1131.73 534.8 1087.33 534.8 1062 531.467C1028.13 527.2 1005.33 523.6 1005.33 522.4C1005.33 521.867 1006.13 521.333 1007.2 521.333C1010.4 521.333 1044 503.733 1056 495.733C1071.73 485.333 1082.67 476.4 1096.67 462.8L1108.67 451.067L1120 449.867C1126.27 449.333 1143.07 448.8 1157.33 448.667C1178.8 448.533 1185.47 448 1195.33 445.733C1232.27 437.067 1273.07 416.133 1292.93 395.733C1297.33 391.067 1305.47 380.8 1310.67 372.8C1316 364.8 1324.67 353.6 1330 347.867C1344.27 332.667 1344.4 330.4 1330.93 325.2C1321.47 321.6 1298.67 320.267 1286.27 322.533C1260.53 327.467 1231.07 341.867 1217.87 356.267C1214.93 359.467 1207.07 369.333 1200.67 378.133C1184.8 399.467 1169.33 418.667 1158.27 430.267C1149.6 439.333 1148.8 439.867 1140.8 441.2C1136.27 442 1128.8 442.667 1124.27 442.667H1116.13L1126 427.6C1131.33 419.467 1140.27 407.867 1145.73 402C1165.07 381.333 1174.67 366.267 1178.53 350C1179.73 345.2 1180 336 1179.33 316.667L1178.4 290L1182.53 275.333C1187.87 257.067 1189.33 239.2 1186.27 231.6C1182.8 223.6 1177.2 225.6 1168.27 238.4C1161.33 248.4 1156.93 257.2 1149.73 275.867C1136.67 309.6 1132 337.067 1131.33 382.533L1130.93 412.4L1122.8 424C1108.8 443.867 1085.6 465.733 1061.33 482C1045.33 492.667 1014.13 507.867 995.6 513.867C980 519.067 980 519.067 969.6 517.467C950.667 514.4 936 510.8 899.6 500.133C879.6 494.267 857.067 487.867 849.333 486C841.6 484 834.4 482.133 833.333 481.867C832.267 481.467 840.4 478.8 851.333 476C876.267 469.733 890.933 464.667 910.533 455.467C919.067 451.467 931.467 446.667 938 444.667C960.133 438 974.8 429.333 988.267 414.933C1003.07 398.8 1011.6 376.8 1013.47 349.333C1014.4 334.933 1016.4 325.2 1028.53 276.267C1036.27 245.333 1043.6 213.6 1044.8 205.733L1047.2 191.6L1044.13 189.2C1040 185.733 1037.6 186 1030.53 190.4C1017.6 198.667 1002.8 214.533 990 234C968.933 266 938.8 323.2 926.667 354.267C919.067 373.467 918.667 380.267 923.867 401.333C926.8 413.067 928 421.067 928 428.933V440L914.4 446.533C889.2 458.533 853.2 467.867 813.6 472.667L795.867 474.8L773.6 470.8C761.333 468.533 737.2 464.267 720 461.333C684.4 455.2 640.267 446.933 637.333 445.867C636.133 445.467 638.533 443.867 643.2 442C647.467 440.267 654.4 436.8 658.533 434.267C662.667 431.733 675.067 426.133 686 422C726.667 406.4 756.667 391.2 777.333 376C789.333 366.933 800.4 353.867 812.133 334.533L819.6 322L832.133 317.6C856.933 308.933 874 298.933 882.133 288.267C886 283.2 886.667 281.2 886.4 276.667C886 271.6 885.733 271.2 879.333 269.067C875.733 267.867 866.4 266.533 858.667 266.133C850.933 265.733 844.533 265.467 844.533 265.333C844.4 265.333 846.133 259.733 848.267 252.933C850.533 246.267 852.4 237.6 852.533 234C852.667 228 852.4 227.333 849.6 226.933C844.267 226.133 829.067 231.6 816.533 238.933C806 245.067 778.933 263.333 769.333 270.667C767.333 272.267 759.467 274.533 748.933 276.667C710 284.4 670.933 301.333 643.467 322.4C634 329.733 634.133 329.467 651.067 307.333C667.067 286.667 689.867 263.333 699.867 257.6C711.2 251.2 718.267 250 729.067 252.533C736.4 254.4 739.333 254.533 744.667 253.333C753.733 251.333 774.533 241.333 784.533 234.133C801.2 222.267 837.2 185.333 856.267 160.4C879.067 130.667 894.8 93.3332 895.067 67.9999C895.2 53.9999 892.8 50.1332 884.8 50.9332C873.733 52.2666 852.933 64.7999 821.067 89.3332C791.867 112 781.467 124.533 770.667 150C755.2 186.8 749.867 193.867 696.533 248C676 268.933 653.2 293.2 646 302C638.8 310.8 627.867 323.867 621.733 330.933C610.8 343.467 610.4 343.867 599.6 347.733C588.133 351.867 563.867 357.867 552.667 359.467L546 360.267L556 353.733C586.533 333.333 610.933 303.733 638.933 253.2C656.533 221.333 674.667 174.133 681.2 143.333C684.8 126.533 690.533 88.2666 689.6 87.3332C687.733 85.4666 683.733 87.1999 680.667 91.1999C677.867 94.7999 675.2 96.3999 667.6 98.6666C654.133 102.8 645.067 108.667 632.533 121.6C602.933 152.267 549.333 227.2 536.533 255.6C531.867 266 529.733 278.267 528 303.467C526.133 329.2 524 340.133 518.667 351.867C514.533 360.667 514.4 360.933 504.267 365.6C498.667 368.267 490.667 371.467 486.667 372.667C476.267 375.733 453.333 376.667 436.267 374.667C423.333 373.2 420 372.133 401.333 364C390 358.933 375.333 352.8 368.667 350.133C362.133 347.467 346.533 340 334.133 333.467L311.6 321.6L328.133 313.733C337.2 309.333 348.133 303.6 352.4 300.933L360 296H378.4C398.533 296 406.4 294.533 417.467 288.533C430.4 281.467 471.6 238 478.8 223.733C484 213.467 486.4 203.867 488 186.133C490.133 164.667 492.133 158.8 500.4 149.733C509.467 139.867 512.133 135.2 517.067 121.2C529.733 85.0666 539.067 10.5332 531.867 1.86658C529.467 -1.06676 523.733 -0.40009 514.533 4.26658ZM644.267 341.867C654 346 666.133 347.067 682.933 345.467C691.733 344.533 699.2 344.133 699.467 344.4C699.867 344.667 696 350.533 690.933 357.2C677.733 374.8 665.733 396.533 660.133 413.067C655.333 427.067 655.067 427.333 649.333 430.267C641.2 434.267 629.6 437.2 617.467 438.133C608 438.933 606 438.533 584.667 432C524.667 413.867 466.133 393.333 470.133 391.867C471.467 391.467 477.467 389.733 483.2 388.133C488.933 386.533 497.333 383.467 501.867 381.467C508 378.667 513.867 377.333 525.333 376.133C560.133 372.4 590.4 363.733 619.6 349.333C629.733 344.267 638.4 340.133 638.8 340.133C639.333 340 641.733 340.8 644.267 341.867ZM1380.93 438.133C1380.53 438.533 1379.33 438.667 1378.4 438.267C1377.33 437.867 1377.73 437.467 1379.2 437.467C1380.67 437.333 1381.47 437.733 1380.93 438.133ZM1364.67 441.467C1358.8 442.8 1353.47 443.733 1352.67 443.467C1350.93 442.933 1367.73 438.933 1372 438.933C1373.87 438.933 1370.53 440 1364.67 441.467ZM594.667 446C599.467 447.2 605.733 448.8 608.533 449.467C615.2 451.2 625.467 460.933 636.533 475.867C646.267 488.933 655.333 504.8 653.733 505.733C653.067 506.133 646.667 501.333 639.333 495.2C623.2 481.6 608.133 471.333 599.867 468.4C595.067 466.667 593.333 465.2 592.133 462C591.333 459.733 588.667 454.4 586.133 450.267C582.533 444.4 582 442.667 583.733 443.2C584.933 443.6 589.867 444.8 594.667 446ZM1348 445.333C1343.47 446.8 1340 446.8 1343.33 445.333C1344.8 444.667 1347.2 444.267 1348.67 444.267C1350.8 444.267 1350.67 444.533 1348 445.333ZM1322.8 452.133C1312.93 454.933 1304.67 457.067 1304.27 456.8C1304 456.533 1307.33 455.2 1311.6 454C1315.87 452.8 1322.93 450.667 1327.33 449.333C1331.73 448 1336.53 446.933 1338 446.933C1339.47 446.933 1332.67 449.2 1322.8 452.133ZM1401.07 450C1400.67 450.4 1399.87 449.733 1399.47 448.4C1398.67 446.533 1398.8 446.4 1400.13 447.6C1401.07 448.533 1401.47 449.6 1401.07 450ZM1394.67 460C1393.2 462.133 1391.2 464.4 1390.4 464.8C1389.47 465.333 1390.53 463.6 1392.53 460.933C1397.07 455.067 1398.67 454.267 1394.67 460ZM1298.67 459.333C1296.13 460.267 1293.07 461.067 1292 461.067C1290.93 461.067 1292.13 460.267 1294.67 459.333C1297.2 458.4 1300.27 457.6 1301.33 457.6C1302.4 457.6 1301.2 458.4 1298.67 459.333ZM1288 462.667C1286.93 463.333 1285.07 463.867 1284 463.867C1282.67 463.867 1282.93 463.467 1284.67 462.667C1288.27 461.067 1290.4 461.067 1288 462.667ZM1280 465.2C1278.93 465.867 1276.53 466.667 1274.67 467.2C1271.87 467.867 1272 467.6 1275.33 466C1279.6 464 1283.33 463.333 1280 465.2ZM1389.33 467.067C1389.33 467.2 1386.13 470.4 1382.4 474L1375.33 480.667L1382 473.6C1388.13 467.2 1389.33 466 1389.33 467.067ZM1269.33 469.333C1268.27 470 1266.8 470.667 1266 470.667C1265.33 470.667 1265.6 470 1266.67 469.333C1267.73 468.667 1269.33 468 1270 468C1270.8 468 1270.4 468.667 1269.33 469.333ZM1257.2 474C1256 475.067 1246.67 478.667 1246.67 478C1246.67 477.6 1248.67 476.533 1251.07 475.467C1255.33 473.467 1258.27 472.8 1257.2 474ZM1245.33 479.2C1245.33 479.467 1244.4 480.133 1243.2 480.533C1242.13 480.933 1241.6 480.8 1242 480C1242.8 478.667 1245.33 478.133 1245.33 479.2ZM1334.67 479.867C1333.6 480.533 1330.27 481.467 1327.33 481.867L1322 482.667L1328 480.8C1335.07 478.533 1337.47 478.267 1334.67 479.867ZM1338.27 482.4C1335.6 485.333 1335.33 487.467 1337.73 488.4C1338.93 488.933 1338.93 489.2 1337.6 489.2C1336.67 489.333 1335.47 488 1334.8 486.4C1334 484 1334.27 483.067 1336.53 481.867C1340.53 479.6 1340.67 479.733 1338.27 482.4ZM1374.67 480.4C1374.67 480.667 1373.07 482.267 1371.07 484.133L1367.33 487.333L1370.53 483.6C1373.6 480.267 1374.67 479.333 1374.67 480.4ZM1231.73 488C1228.4 490.933 1223.73 496.267 1221.33 500C1216.53 507.467 1214.53 509.067 1218.27 502.4C1220.93 497.6 1234.8 482.667 1236.53 482.667C1237.2 482.667 1234.93 485.067 1231.73 488ZM1300.67 484.133C1290.4 484.667 1278.4 486 1274.13 487.2C1269.87 488.4 1266 489.2 1265.73 488.933C1265.2 488.267 1274.27 485.733 1282.67 484.133C1286 483.467 1295.6 482.933 1304 483.067H1319.33L1300.67 484.133ZM1330.67 485.333C1329.6 486 1326.53 486.533 1324 486.4L1319.33 486.267L1324.67 485.333C1332.53 483.867 1332.8 483.867 1330.67 485.333ZM1340.93 486.933C1340.53 488 1340.13 487.6 1340.13 486.133C1340 484.667 1340.4 483.867 1340.8 484.4C1341.2 484.8 1341.33 486 1340.93 486.933ZM1313.07 487.6C1309.47 487.867 1303.87 487.867 1300.4 487.6C1296.8 487.333 1299.73 487.2 1306.67 487.2C1313.6 487.2 1316.53 487.333 1313.07 487.6ZM1286 489.333C1281.6 490 1275.07 491.467 1271.6 492.667C1268 493.867 1264.8 494.667 1264.53 494.267C1264.13 494 1267.47 492.667 1271.6 491.467C1275.87 490.133 1280 488.933 1280.67 488.667C1281.47 488.4 1284.67 488.267 1288 488.267C1293.6 488.4 1293.47 488.4 1286 489.333ZM1263.87 489.867C1263.6 490.133 1260 491.733 1256 493.333C1252 494.933 1249.2 495.733 1249.73 495.067C1250.4 494.533 1253.33 492.933 1256.4 491.733C1261.87 489.6 1265.07 488.8 1263.87 489.867ZM1361.33 491.2C1361.33 491.6 1359.33 493.067 1357.07 494.667L1352.67 497.6L1356.67 494.133C1360.8 490.533 1361.33 490.267 1361.33 491.2ZM1244.67 503.867C1226.93 512.533 1226.27 513.067 1230.67 513.6C1234.4 514.133 1234.13 514.267 1229.6 514C1226.53 513.867 1223.6 514.133 1223.2 514.8C1222.8 515.467 1225.2 516 1228.4 516C1231.73 516 1236.93 516.933 1240 518C1247.07 520.533 1248.4 520.533 1244 518C1240.27 515.867 1241.47 515.333 1245.33 517.333C1247.2 518.4 1250.53 518.133 1256.67 516.667C1261.6 515.6 1267.07 514.8 1269.07 514.8C1272.67 515.067 1272.67 515.067 1269.33 515.6C1258.93 517.333 1246.67 520.4 1246.67 521.333C1246.67 522 1243.47 523.2 1239.73 524C1234.27 525.2 1228.8 525.067 1215.33 523.6L1198 521.867L1208.67 518.4C1214.53 516.4 1228.67 510.4 1240 504.8C1251.33 499.333 1261.33 494.8 1262 494.8C1262.8 494.8 1254.93 498.933 1244.67 503.867ZM1244.8 498.267C1239.33 501.067 1231.07 504.533 1232.27 503.333C1233.6 502 1245.73 496.267 1247.33 496.133C1248.13 496.133 1246.93 497.067 1244.8 498.267ZM691.2 502.133C694.667 503.333 697.2 504.533 696.933 504.8C696.667 505.2 694.667 504.667 692.533 503.867C690.4 503.067 684.8 501.867 680 501.333L671.333 500.4L678.133 500.133C681.867 500.133 687.733 500.933 691.2 502.133ZM1342 504.8C1338.53 507.467 1334.67 509.6 1334.67 508.8C1334.67 508.133 1343.07 502.667 1344 502.667C1344.4 502.8 1343.47 503.733 1342 504.8ZM702.667 506.667C703.733 507.333 704.133 508 703.333 508C702.667 508 701.067 507.333 700 506.667C698.933 506 698.667 505.333 699.333 505.333C700.133 505.333 701.6 506 702.667 506.667ZM708.667 509.333C709.067 510.133 708.533 510.267 707.467 509.867C705.067 508.933 704.667 508 706.533 508C707.333 508 708.267 508.533 708.667 509.333ZM1333.33 510C1333.33 510.8 1323.2 516 1321.73 516C1321.2 515.867 1323.33 514.4 1326.67 512.667C1333.33 509.067 1333.33 509.067 1333.33 510ZM714 512C714.4 512.8 713.867 512.933 712.8 512.533C710.4 511.6 710 510.667 711.867 510.667C712.667 510.667 713.6 511.2 714 512ZM1295.07 514.267C1291.2 514.533 1284.67 514.533 1280.4 514.267C1276.13 514 1279.33 513.867 1287.33 513.867C1295.47 513.867 1298.93 514 1295.07 514.267ZM729.333 520.8C729.333 521.067 727.6 520.533 725.333 519.333C723.2 518.133 721.333 516.933 721.333 516.533C721.333 516.267 723.2 516.8 725.333 518C727.6 519.2 729.333 520.4 729.333 520.8ZM738 526L740.667 528.133L738 526.8C736.533 526.133 734.133 524.533 732.667 523.333L730 521.2L732.667 522.533C734.133 523.2 736.533 524.8 738 526ZM753.067 535.733C755.067 537.467 753.2 536.533 749.067 533.867C744.8 531.2 741.333 528.667 741.333 528.4C741.333 527.467 749.067 532.267 753.067 535.733ZM670.133 546.267C669.467 546.933 665.333 534.8 665.467 532.8C665.467 532 666.667 534.533 668.133 538.533C669.467 542.533 670.4 546 670.133 546.267ZM767.867 547.2C773.6 553.333 770.133 551.467 763.333 544.8C759.333 540.8 758.267 539.333 760.667 540.933C762.933 542.533 766.133 545.333 767.867 547.2ZM769.2 563.333C768.133 564.267 765.6 565.467 763.333 565.867C759.6 566.667 759.6 566.533 763.867 564.933C766.4 564 768.8 562.4 769.067 561.467C769.333 560.533 770 560.133 770.4 560.667C770.8 561.067 770.267 562.267 769.2 563.333ZM756 568C754.133 568.533 751.2 569.067 749.333 569.067C746.4 569.067 746.4 568.933 750 568C752.267 567.467 755.2 566.933 756.667 566.933C758.8 566.933 758.667 567.2 756 568ZM740.4 570.267C738.667 570.533 735.733 570.533 733.733 570.267C731.6 570 733.067 569.733 736.667 569.733C740.4 569.733 742 570 740.4 570.267Z" fill="#597765"/>
<path d="M94 315.2C106.933 326.267 109.6 330.667 106.8 335.867C106 337.333 103.333 339.2 100.933 339.867C96.6667 341.067 96.6667 341.067 102.667 341.2C114 341.6 131.067 347.2 132.4 351.067C132.667 352.133 134.667 351.867 138.933 350.267C146 347.467 148.8 342.667 147.467 335.6C146.4 330 143.067 326.933 131.467 320.8C122.667 316.133 122 316 110.133 316.267C100.267 316.533 97.2 316.267 94 314.267L90 311.867L94 315.2Z" fill="#597765"/>
<path d="M155.467 390.533C154.933 391.2 153.467 395.6 152 400.4C150.533 405.2 147.2 413.6 144.667 419.2C140.4 428.667 138.933 435.733 140.8 437.733C144.133 441.067 151.733 426.533 156 409.2C157.333 403.6 159.067 397.733 160 396.133C160.8 394.4 161.2 392.267 160.8 391.2C160 389.067 156.533 388.667 155.467 390.533Z" fill="#597765"/>
<path d="M136 454.667C136 455.333 136.667 456 137.467 456C138.133 456 138.4 455.333 138 454.667C137.6 453.867 136.933 453.333 136.533 453.333C136.267 453.333 136 453.867 136 454.667Z" fill="#597765"/>
<path d="M75.0667 491.067C75.3334 492.667 76.1334 495.067 76.6667 496.4C77.4667 498.133 76.6667 499.067 73.4667 500.133C71.2001 500.933 69.3334 501.733 69.3334 502C69.3334 502.133 70.1334 504.4 71.2001 506.8C73.3334 511.867 72.0001 516 68.4001 516C65.2001 516 54.8001 524.267 54.6667 526.933C54.6667 529.067 56.8001 531.333 66.9334 540C72.4001 544.533 75.2001 552.667 72.0001 554.667C70.9334 555.333 71.8667 556.267 75.2001 557.467C77.8667 558.4 80.0001 559.867 80.0001 560.8C80.0001 561.6 81.3334 562 83.2001 561.733C87.0667 560.933 92.0001 563.333 92.0001 566.133C92.0001 567.733 92.4001 567.733 95.2001 566C100 562.8 105.733 563.867 106.8 568C107.6 571.333 107.6 571.2 108.133 567.333C108.533 563.867 109.2 563.333 112.667 563.333C114.933 563.333 117.333 562.933 118.267 562.267C119.067 561.733 120.667 561.733 121.867 562.133C123.333 562.667 124 562.133 124 560.267C124 556.8 127.067 554.4 130 555.6C131.733 556.133 132.133 556 131.467 554.8C130.533 553.333 135.867 541.2 138.8 538.133C139.333 537.467 141.333 537.867 143.333 539.2C145.867 540.8 146.533 542.133 146 544.4C145.467 546.533 146 548.267 147.867 549.867C149.467 551.333 150.667 553.067 150.667 554C150.667 554.8 152.933 556.8 155.733 558.4C160.4 560.933 161.6 561.067 169.733 559.733L178.533 558.267L181.2 551.867C184.667 544 184.667 539.6 181.467 532.667C178.667 526.533 175.6 523.467 170.267 521.467C166.933 520.133 165.867 520.4 162.4 523.333C160.267 525.2 157.867 526.667 157.2 526.667C156.4 526.667 153.467 524.8 150.667 522.533C141.6 515.2 137.467 521.067 146 529.333C150.4 533.6 151.867 537.733 149.6 539.2C146.933 540.8 134.4 531.6 128.667 523.733C122.267 514.933 121.067 509.333 124.267 503.6C125.2 502 126 497.733 126.133 494.267C126.4 487.867 126.4 487.867 123.6 489.733C121.733 490.933 120.4 493.6 120 496.933C119.467 499.867 118.133 504 116.8 506C114.933 508.933 113.867 509.467 110.933 508.667C108.933 508.133 106 506.667 104.533 505.2C102.933 503.733 95.6001 499.333 88.0001 495.333C75.7334 488.933 74.4001 488.533 75.0667 491.067Z" fill="#597765"/>
<path d="M7.2 500.533C2.13333 502.8 -0.666672 508.8 1.2 513.6C2.8 517.733 11.3333 524 15.3333 524C20.8 524 24.1333 522.267 26.1333 518.4C28.8 513.2 27.4667 507.733 22.4 502.667C18 498.267 13.8667 497.733 7.2 500.533Z" fill="#597765"/>
<path d="M145.733 598.133C144.667 601.067 148.667 604 153.6 604C156.667 604 157.333 603.467 157.333 600.8C157.333 595.867 147.467 593.733 145.733 598.133Z" fill="#597765"/>
<path d="M302.133 618.133C300.667 621.867 301.333 624.933 304.133 628.533C307.067 632.267 312.933 633.2 315.733 630.4C318.133 628 317.6 620.667 314.933 618.267C311.733 615.333 303.2 615.2 302.133 618.133Z" fill="#597765"/>
<path d="M135.2 651.2C130 655.733 130 655.733 132.533 658.533C136.267 662.533 144.4 664.8 148.667 662.933C153.2 660.8 153.2 654.4 148.667 650C144.4 645.6 141.467 645.867 135.2 651.2Z" fill="#597765"/>
<path d="M311.067 666.933C312.4 675.867 315.333 685.333 316.8 685.333C318.4 685.333 317.467 677.733 314.533 667.867C312.533 661.6 310.133 660.933 311.067 666.933Z" fill="#597765"/>
<path d="M66.4 673.467C62.9333 675.467 63.3333 682.933 67.0667 686.4C70.8 690 77.4667 691.467 81.0667 689.467C86.2667 686.667 85.8667 678.133 80.1333 673.733C77.6 671.733 69.4667 671.6 66.4 673.467Z" fill="#597765"/>
<path d="M322.267 724.267C322 725.2 322.667 728.667 323.867 731.867L326 737.6L319.333 743.6C315.733 746.8 310.4 750.667 307.6 752.133L302.667 754.8L296.933 750.933C289.2 745.6 282.667 742.4 282.667 743.867C282.667 744.533 285.067 747.6 288.133 750.667C293.6 756.267 293.6 756.267 289.733 755.6C287.733 755.2 283.333 754.4 280 753.867C276.667 753.467 272.933 752.533 271.733 751.733C270.4 751.067 269.333 750.8 269.333 751.2C269.333 751.467 272.933 754 277.333 756.667C281.733 759.333 286.267 763.2 287.333 765.2C289.067 768.533 288.933 769.2 286.4 771.733C284 774.133 283.867 774.8 285.333 776.667C288.4 780.4 283.467 784 267.467 789.6C264.667 790.533 262.667 791.867 262.8 792.667C263.467 794.267 267.467 793.733 272.533 791.2C277.467 788.8 279.867 788.8 280.8 791.333C281.867 794 279.2 797.067 273.733 799.333C270.8 800.533 269.333 802.133 269.333 803.867C269.333 807.467 272.8 807.467 278 804C283.067 800.667 288.933 800.667 294 804C298.8 807.2 305.067 807.467 306.133 804.667C308 799.733 325.333 804 325.333 809.333C325.333 813.2 328.133 818.667 330.267 818.667C332.533 818.667 332.533 817.2 330 813.867C326.933 809.867 327.6 808.933 333.2 809.733C339.2 810.533 345.6 813.333 346.267 815.467C346.533 816.267 344.533 819.067 341.733 821.867C335.6 827.733 337.467 828.133 345.2 822.533C350.933 818.267 356.4 817.2 358.933 819.733C360 820.8 360 821.867 358.667 823.333C357.733 824.4 357.6 825.333 358.4 825.333C359.067 825.333 360.4 824.4 361.333 823.2C363.467 820.667 371.867 817.067 373.467 818C375.467 819.333 392.933 809.6 396.533 805.067C398.4 802.667 401.333 799.333 402.8 797.867C404.8 795.867 406 792 407.067 784.933L408.533 774.8L403.6 765.067C396.4 750.267 392.267 746.8 374.533 740.133C366.133 736.933 357.2 733.067 354.667 731.6L350 728.933L353.733 732.533C355.733 734.533 357.333 736.667 357.333 737.333C357.333 739.467 354.667 740.267 352.667 738.667C351.333 737.467 350.667 737.733 350 739.867C348.933 743.333 345.733 743.467 342.267 740.267C340.267 738.667 339.467 738.4 339.067 739.6C338.133 742.4 335.6 741.6 330.4 736.667C326.667 733.333 325.333 731.067 325.333 728.133C325.333 724 323.333 721.467 322.267 724.267Z" fill="#597765"/>
<path d="M167.067 738.267C166.133 738.533 164.133 741.6 162.8 744.8C161.333 748 159.333 751.067 158.267 751.467C157.2 751.867 156.4 753.6 156.4 755.333C156.4 757.867 157.867 759.067 164.267 762C175.2 766.933 182 765.067 184.533 756.4C185.2 754.133 184.667 752.667 182.133 750.533C180 748.667 178.667 746.133 178.667 744C178.667 739.2 172.267 736.133 167.067 738.267Z" fill="#597765"/>
<path d="M188.133 769.6C185.733 770.267 182.8 771.733 181.733 772.8C180.667 773.867 178.533 774.667 176.933 774.8C175.333 774.8 174.8 775.2 175.733 775.6C176.667 776 179.867 775.333 182.8 774.133C186.667 772.533 188.8 772.4 190.667 773.333C192.133 774.133 195.333 774.8 197.867 774.933C201.067 775.067 202.933 775.867 203.867 777.867C205.067 780.4 205.2 780.267 204.533 776.933C203.6 773.067 205.067 772.4 209.333 774.667C211.333 775.733 211.6 776.8 210.667 780.533C209.867 784.4 210 785.067 211.867 784.4C213.067 784.133 212.267 785.333 210 787.2C205.2 791.333 207.467 791.867 212.533 787.867C216.267 784.933 217.2 779.333 214.533 774.4C211.6 768.8 198.8 766.4 188.133 769.6Z" fill="#597765"/>
<path d="M181.067 787.6C182 788 183.2 787.867 183.6 787.467C184.133 787.067 183.333 786.667 181.867 786.8C180.4 786.8 180 787.2 181.067 787.6Z" fill="#597765"/>
<path d="M186.133 787.733C185.733 788.533 186.267 789.467 187.467 789.867C190.533 791.067 191.2 790.133 188.8 788.133C187.733 787.2 186.533 787.067 186.133 787.733Z" fill="#597765"/>
<path d="M192.933 791.6C191.067 793.467 192.133 794.267 195.467 793.6C198 793.2 198.4 792.667 197.067 791.867C194.933 790.4 194 790.4 192.933 791.6Z" fill="#597765"/>
</svg>
