<svg width="460" height="459" viewBox="0 0 460 459" fill="none" xmlns="http://www.w3.org/2000/svg">
<path d="M278.307 44.237C279.337 33.7456 278.502 20.7464 267.739 16.1233C258.783 12.2679 248.118 16.7716 240.192 22.077C207.865 43.6741 190.906 78.5603 180.163 112.952C171.032 142.191 165.418 172.267 163.359 202.53C162.329 217.747 152.713 269.249 175.733 273.804C201.416 278.87 215.753 237.655 223.601 222.899C237.608 196.576 249.167 169.247 258.123 141.27C268.264 109.574 275.063 77.042 278.307 44.237Z" fill="#CED7CE"/>
<path d="M313.276 229.381C342.338 221.909 371.77 214.642 398.346 201.899C424.922 189.139 448.778 170.169 459.871 145.416C395.665 145.296 331.556 163.021 278.987 195.399C267.564 202.445 256.646 210.309 247.38 219.521C242.037 224.827 224.456 241.835 228.477 249.631C233.47 259.32 301.134 232.503 313.276 229.381Z" fill="#CED7CE"/>
<path d="M134.199 265.667C126.816 241.067 113.412 218.156 98.3172 196.44C100.493 199.579 91.207 221.193 90.2551 225.748C88.0793 235.966 86.5445 246.27 85.6315 256.642C83.7859 277.693 84.5241 298.932 87.8073 319.847C89.9636 333.597 90.8573 361.437 107.448 368.722C125.515 376.637 132.295 345.18 135.597 334.364C142.436 311.931 140.882 287.98 134.199 265.667Z" fill="#CED7CE"/>
<path d="M224.068 328.632C245.864 315.428 266.321 299.87 290.974 291.392C316.365 282.657 344.534 282.043 370.294 274.179C378.841 271.569 388.516 266.076 387.448 258.195C386.282 249.699 374.004 246.799 364.271 246.509C321.318 245.246 278.89 256.079 241.688 274.571C224.126 283.306 151.877 319.489 168.876 343.525C179.269 358.213 213.48 335.047 224.068 328.632Z" fill="#597765"/>
<path d="M331.246 142.328C363.125 113.651 390.206 79.9591 403.922 41.7293C406.35 34.9738 408.351 27.9454 407.69 20.8999C407.03 13.8544 403.261 6.70659 396.365 3.03885C386.593 -2.14717 373.868 0.957607 363.786 5.68303C339.075 17.2833 320.911 37.1915 305.175 57.5603C281.163 88.6253 261.095 122.027 245.379 156.948C241.319 165.972 237.55 175.116 234.072 184.328C232.149 189.429 222.902 206.044 225.699 211.009C231.663 221.602 266.768 192.073 273.859 187.109C293.907 173.12 313.373 158.432 331.265 142.328H331.246Z" fill="#597765"/>
<path d="M434.033 155.924C433.761 156.163 433.509 156.402 433.237 156.641C432.79 156.402 432.188 156.385 431.78 156.828C430.381 158.346 428.943 159.831 427.506 161.315C426.981 161.605 426.476 161.895 425.952 162.185C420.337 164.13 414.645 165.887 408.837 167.388C401.085 169.384 393.237 170.97 385.349 172.472C369.75 175.457 353.995 177.896 338.57 181.513C324.213 184.874 310.303 189.411 297.19 195.587C284.738 201.438 273.082 208.569 262.494 216.775C251.867 225.014 242.329 234.329 234.189 244.513C233.179 245.758 232.207 247.038 231.255 248.3C231.081 248.539 231.061 248.761 231.139 248.982C223.524 255.141 216.316 261.675 209.42 268.43C197.103 280.508 185.583 293.302 174.607 306.37C176.141 304.033 177.56 301.644 178.861 299.205C180.066 297.687 180.998 295.981 181.697 294.19C186.632 286.121 191.819 278.171 197.336 270.409C207.147 256.625 218.045 243.506 230.09 231.156C241.999 218.958 254.743 207.426 267.351 195.792C279.939 184.174 292.431 172.437 303.776 159.865C314.713 147.753 324.427 134.822 332.703 121.157C349.041 94.2036 359.842 64.6057 364.271 34.3084C364.543 34.3084 364.796 34.1549 364.874 33.8478C365.884 29.7024 366.389 25.4547 367.049 21.2581C367.166 20.4734 365.845 20.081 365.456 20.7463C364.932 20.2686 363.941 20.2004 363.65 20.9851C352.402 50.4977 330.682 75.5237 308.691 99.4749C286.719 123.409 263.873 147.19 248.876 175.235C240.658 190.589 235.121 207.068 234.111 224.076V224.127C222.28 235.847 211.246 248.147 201.396 261.214C195.704 268.754 190.362 276.499 185.291 284.38C185.486 283.835 185.641 283.272 185.816 282.726C194.053 269.897 202.018 256.915 208.273 243.251C211.693 235.779 214.607 228.119 216.724 220.272C218.997 211.879 220.143 203.349 220.687 194.734C221.231 185.829 221.251 176.907 221.853 168.002C222.416 159.677 223.601 151.42 225.796 143.3C229.934 128.015 236.85 113.464 242.912 98.7072C247.71 87.0216 252.081 75.0289 254.024 62.6951C254.063 62.5586 254.101 62.4221 254.14 62.2686C254.16 62.2345 254.199 62.2004 254.218 62.1662C255.792 58.3961 256.569 54.2678 256.374 50.2077C256.569 49.5082 256.782 48.7918 256.938 48.0753C257.035 47.6488 256.491 47.4099 256.102 47.5123C256.064 47.2394 256.025 46.9664 255.986 46.6764C255.772 45.6017 254.218 45.7552 253.927 46.6935C253.829 47.0346 253.713 47.3588 253.616 47.7C253.227 47.8023 252.897 48.0582 252.897 48.4676C252.897 48.9965 252.897 49.5083 252.878 50.0371C251.906 52.9372 250.799 55.8202 249.575 58.635C248.74 60.5285 247.846 62.4051 246.797 64.2304C245.728 66.124 244.446 67.8982 243.378 69.7917C243.261 69.9965 243.281 70.167 243.378 70.3206C243.009 70.7982 242.64 71.2759 242.251 71.7365C236.132 79.072 228.924 85.6398 221.581 92.02C214.063 98.5537 206.389 104.951 199.512 112.013C192.81 118.888 187.098 126.411 182.863 134.685C174.432 151.147 171.576 169.435 171.576 187.364C171.576 207.494 175.248 227.437 178.239 247.345C179.794 257.683 181.173 268.072 181.756 278.495C181.911 281.276 181.931 284.278 181.581 287.229C179.308 290.812 177.19 294.445 175.189 298.147C176.938 290.129 176.977 281.856 175.714 273.753C174.043 262.954 170.1 252.531 165.204 242.551C160.153 232.281 154.189 222.37 148.05 212.595C144.922 207.614 141.717 202.666 138.434 197.753C135.267 193.011 131.926 188.337 128.837 183.56C125.865 178.971 123.164 174.212 121.358 169.162C119.998 165.324 119.221 161.315 118.929 157.289C119.026 155.515 119.201 153.723 119.434 151.949C119.551 151.045 119.706 150.158 119.862 149.254C120.037 148.657 120.211 148.06 120.367 147.463C120.406 147.309 120.367 147.173 120.25 147.07C120.114 146.627 119.221 146.473 119.065 147.002C118.929 147.411 118.813 147.821 118.696 148.23L118.502 148.367C118.249 149.254 118.074 150.158 117.919 151.045C116.326 155.856 114.869 160.718 113.567 165.58C111.897 171.806 110.517 178.084 109.721 184.447C108.264 196.099 108.808 208.091 112.907 219.316C116.987 230.473 125.049 239.702 133.674 248.437C142.397 257.273 151.43 265.974 158.269 276.073C165.126 286.189 169.847 297.908 168.953 309.833C168.915 310.294 168.876 310.737 168.856 311.181C168.565 311.829 168.254 312.494 167.982 313.142C167.827 313.518 167.671 313.876 167.516 314.251C167.088 315.036 166.642 315.804 166.214 316.588L166.078 316.742L166.001 316.981C163.747 321.092 161.571 325.237 159.415 329.383C156.87 333.221 154.694 337.247 152.946 341.393C152.499 342.45 152.071 343.542 151.683 344.617C151.061 345.879 150.42 347.124 149.818 348.387C138.842 370.735 128.623 393.423 119.415 416.402C119.337 416.522 119.259 416.624 119.201 416.743C119.687 405.467 118.521 394.208 116.093 383.137C116.268 380.697 116.579 378.241 116.87 375.818C117.2 372.901 117.628 369.984 118.094 367.067C118.249 366.129 118.405 365.207 118.58 364.269C118.832 363.604 119.104 362.956 119.357 362.307C119.434 362.154 119.512 362 119.59 361.847C120.231 360.55 120.833 359.22 121.396 357.889C121.688 357.189 121.999 356.473 122.271 355.756C122.465 355.228 122.698 354.716 122.756 354.187C123.456 352.584 124.136 350.98 124.816 349.359C129.284 338.51 132.003 327.131 132.878 315.616C133.752 304.118 132.839 292.518 130.139 281.242C128.779 275.595 126.972 270.017 124.718 264.592C122.465 259.201 119.706 254.015 116.773 248.897C112.441 241.357 107.681 233.663 105.136 225.458C105 224.042 104.845 222.626 104.709 221.193C104.417 218.361 104.145 215.512 103.854 212.68C103.796 212.049 102.921 211.93 102.475 212.254C102.436 212.254 102.416 212.254 102.377 212.254C101.892 212.186 101.348 212.407 101.27 212.919C101.231 213.158 101.212 213.414 101.192 213.67C100.998 214.164 100.901 214.693 100.746 215.222C100.435 216.246 100.143 217.269 99.8908 218.31C99.6383 219.35 99.3663 220.374 99.1138 221.415C98.8418 222.489 98.7252 223.564 98.4533 224.639V224.707C98.259 225.202 98.0841 225.714 97.8899 226.225C97.8899 226.225 97.8705 226.225 97.851 226.225C97.5985 226.225 97.5596 226.532 97.7733 226.567C95.5587 232.878 94.8399 239.651 95.073 246.168C95.4615 257.137 98.667 267.799 102.358 278.239C106.282 289.311 110.634 300.246 113.295 311.624C115.918 322.866 117.22 334.347 117.181 345.811C117.181 352.123 116.734 358.401 115.957 364.644C115.724 365.054 115.51 365.446 115.277 365.856C115.063 364.696 114.752 363.57 114.267 362.461C113.315 360.26 111.858 358.264 110.459 356.285C110.071 355.739 109.663 355.194 109.235 354.648C109.06 354.238 108.886 353.812 108.711 353.402C108.594 353.146 108.342 353.095 108.128 353.164C107.448 352.208 106.807 351.236 106.321 350.229C104.689 335.831 101.62 321.57 97.1322 307.649C92.5475 293.439 86.5834 279.587 79.2206 266.298C71.9938 253.247 63.3294 240.93 53.9074 229.023C44.7379 217.457 35.0633 206.215 26.1658 194.495C20.0269 186.409 14.2766 178.05 9.38099 169.316C9.4587 169.213 9.49756 169.094 9.47813 168.94C9.40042 168.207 8.97303 167.661 8.5845 167.013C8.19596 166.364 7.80742 165.716 7.45773 165.051C6.73894 163.737 6.11727 162.372 5.55389 160.991C4.81567 159.148 4.2523 157.255 3.80548 155.327C3.80548 155.122 3.8249 154.935 3.84433 154.73C3.84433 154.491 3.7472 154.32 3.57236 154.235C3.4558 153.638 3.33924 153.024 3.2421 152.427C3.14497 151.745 2.32904 151.676 1.8628 152C1.78509 151.966 1.68796 151.932 1.59082 151.915C1.33827 151.864 1.00801 152 0.872021 152.188L0.755464 152.376C0.444634 152.444 0.172651 152.717 0.308639 153.058C0.464054 153.519 0.658331 153.945 0.833173 154.406C1.02744 157.221 1.37712 160.035 1.82393 162.85C0.949724 175.781 1.95993 188.883 4.48542 201.592C7.53544 217.03 12.8973 232.128 20.4543 246.321C28.2833 261.009 38.6379 274.435 49.8861 287.246C61.2896 300.246 73.412 312.75 84.0579 326.244C94.2376 339.158 103.193 353.112 108.128 368.278C108.652 369.882 109.138 371.485 109.604 373.106C109.293 373.055 108.905 373.242 109.002 373.566C109.488 375.187 109.779 376.859 110.265 378.497C110.731 380.083 111.178 381.687 111.586 383.29C112.421 386.549 113.159 389.824 113.781 393.116C115.024 399.701 115.801 406.354 116.093 413.042C116.248 416.795 116.054 420.531 116.171 424.284C116.171 424.386 116.209 424.454 116.248 424.54C113.587 431.38 110.984 438.255 108.516 445.147C107.04 449.275 105.602 453.421 104.223 457.566C104.029 458.18 105.039 458.573 105.272 457.942C109.468 446.717 113.781 435.543 118.249 424.403C118.502 424.284 118.696 424.079 118.735 423.755C118.754 423.516 118.774 423.26 118.793 423.021C119.803 420.514 120.814 418.023 121.843 415.515L122.038 415.293C122.193 415.379 122.387 415.396 122.581 415.293C134.976 408.248 148.613 403.25 162.426 398.763C176.219 394.276 190.226 390.08 203.281 384.041C209.653 381.09 215.714 377.678 221.387 373.771C227.079 369.847 232.343 365.497 237.414 360.96C247.574 351.85 256.724 341.938 266.709 332.709C270.653 329.059 274.733 325.493 279.046 322.167C279.22 322.218 279.415 322.184 279.57 322.047C281.357 320.444 283.358 319.011 285.476 317.697C285.631 317.834 285.864 317.885 286.098 317.731C288.215 316.367 290.507 315.258 292.916 314.337C293.363 314.251 293.791 314.166 294.237 314.098V313.944V313.842C294.412 313.774 294.587 313.722 294.781 313.654C294.898 313.637 294.995 313.603 295.112 313.552C295.617 313.467 296.122 313.364 296.607 313.245C296.86 313.194 297.054 313.057 297.21 312.869C297.404 312.818 297.579 312.75 297.773 312.699C298.492 312.511 299.23 312.341 299.968 312.187C300.648 312.051 301.445 312.034 301.853 311.488C301.93 311.402 301.95 311.283 301.969 311.181C302.746 310.652 302.377 309.372 301.192 309.509C298.356 309.816 295.52 310.242 292.722 310.771C292.47 310.788 292.217 310.805 291.964 310.856C291.867 310.874 291.79 310.925 291.712 310.959C291.401 311.027 291.09 311.078 290.779 311.146C289.847 311.334 288.934 311.556 288.001 311.778C278.812 313.006 269.837 315.65 261.445 319.113C248.468 324.453 236.695 331.72 225.311 339.294C213.577 347.107 202.115 355.194 189.857 362.376C177.462 369.626 164.602 376.262 152.693 384.126C142.125 391.103 132.198 399.104 124.718 408.726C131.537 392.417 138.706 376.245 146.457 360.243C148.341 356.354 150.245 352.464 152.169 348.592C152.402 348.66 152.635 348.626 152.79 348.404C152.926 348.199 153.082 348.012 153.218 347.807C163.106 347.363 173.072 346.203 182.766 344.549C192.751 342.843 202.62 340.335 211.712 336.292C220.512 332.368 228.089 326.96 234.869 320.7C241.61 314.456 247.574 307.632 254.063 301.184C260.668 294.616 267.914 288.509 276.598 284.073C285.359 279.57 295.053 276.653 304.903 274.64C324.524 270.648 344.747 270.17 364.563 267.236C382.941 264.506 401.882 259.696 416.277 248.812C418.026 247.481 419.58 246.065 420.998 244.462C421.619 243.762 420.57 242.79 419.774 243.285C419.619 243.165 419.424 243.08 419.172 243.114C418.395 243.216 417.87 243.711 417.248 244.086C416.607 244.479 415.947 244.837 415.247 245.144C414.16 245.639 413.013 246.048 411.828 246.355C400.833 245.127 389.837 244.018 378.822 242.961C367.069 241.818 355.335 240.521 343.543 239.685C322.581 238.218 300.027 239.037 281.921 249.562C273.917 254.22 267.409 260.446 260.862 266.519C254.043 272.831 246.952 278.87 238.152 283.033C229.177 287.281 219.366 289.891 209.847 293.03C201.027 295.947 192.635 299.512 185.019 304.408C179.23 308.127 173.927 312.477 169.245 317.288C169.556 316.52 169.866 315.752 170.177 314.985C170.294 314.917 170.391 314.797 170.449 314.644C170.624 314.115 170.78 313.586 170.896 313.057C170.974 312.835 171.052 312.631 171.129 312.409C182.377 299.546 193.587 286.649 205.729 274.418C213.868 266.212 222.436 258.314 231.566 250.944C238.288 248.368 245.01 245.844 251.848 243.523C259.055 241.084 266.34 238.832 273.664 236.683C288.409 232.367 303.29 228.477 318.016 224.127C332.625 219.828 347.098 215.069 360.91 209.081C374.237 203.315 386.884 196.355 398.579 188.32C408.04 181.82 416.879 174.604 425 166.825C425.505 166.416 426.029 166.023 426.534 165.597C428.069 164.334 429.487 162.952 430.886 161.571C431.119 161.434 431.372 161.298 431.605 161.161L431.799 161.076C432.091 160.957 432.149 160.701 432.052 160.496L432.324 160.274C433.548 159.199 434.733 158.091 435.898 156.965C436.831 156.043 435.121 154.952 434.189 155.822L434.033 155.924ZM336.005 111.007C328.273 125.149 319.046 138.643 308.438 151.25C297.579 164.147 285.359 176.122 272.848 187.791C266.574 193.659 260.221 199.476 253.907 205.328C259.463 198.948 264.942 192.516 270.323 186.017C280.211 174.058 289.847 161.929 299.133 149.612C308.011 137.858 316.656 125.968 324.776 113.805C332.761 101.846 340.26 89.6317 346.787 77.0249C351.547 67.8299 355.762 58.4132 359.279 48.8088C354.616 70.3035 346.807 91.2523 335.986 111.007H336.005ZM359.997 40.0062C359.997 40.0062 359.997 39.9892 360.017 39.9721C359.9 40.6374 359.784 41.2857 359.667 41.951C356.248 52.2207 352.091 62.2686 347.292 72.1118C341.114 84.7869 333.946 97.0695 326.156 109.045C318.21 121.26 309.662 133.167 300.901 144.955C291.809 157.186 282.445 169.264 272.81 181.155C264.631 191.254 256.238 201.234 247.71 211.094C245.01 213.619 242.329 216.177 239.667 218.736C239.842 218.344 239.998 217.952 240.172 217.559C248.681 205.788 257.21 194.017 265.68 182.212C274.966 169.264 284.291 156.333 293.577 143.368C302.338 131.12 311.158 118.905 319.687 106.52C328.001 94.4424 336.063 82.2109 343.523 69.6894C349.021 60.4603 354.169 51.1118 358.851 41.5586C359.24 41.0298 359.628 40.518 360.017 39.9892L359.997 40.0062ZM353.645 46.0111C353.645 46.0111 353.645 46.0623 353.645 46.0793C353.528 46.2499 353.412 46.4035 353.295 46.5741C353.412 46.3864 353.528 46.1988 353.645 46.0111ZM352.402 48.0582C352.402 48.1606 352.44 48.2459 352.518 48.3312C352.071 48.9112 351.624 49.4741 351.178 50.0541C351.605 49.3888 351.994 48.7235 352.402 48.0582ZM353.392 48.7235C350.692 53.9948 347.856 59.232 344.883 64.3839C337.54 77.076 329.536 89.4782 321.202 101.693C312.887 113.89 304.301 125.951 295.714 137.995C286.467 150.977 277.278 163.993 268.05 176.992C259.172 189.497 250.333 202.018 241.493 214.557C246.059 204.287 251.168 194.188 256.685 184.294C263.504 172.062 270.983 160.121 278.89 148.384C286.777 136.664 295.112 125.2 303.523 113.771C311.955 102.358 320.639 91.0817 329.342 79.8226C337.365 69.4505 345.388 59.0956 353.373 48.7235H353.392ZM275.607 139.701C290.294 121.584 306.962 104.814 322.465 87.2434C316.811 94.5618 311.158 101.897 305.602 109.267C297.035 120.611 288.623 132.024 280.619 143.693C272.635 155.31 265.039 167.115 258.006 179.193C250.935 191.305 244.485 203.673 238.91 216.382C238.23 217.935 237.55 219.504 236.889 221.073C236.831 221.21 236.831 221.329 236.85 221.449C236.714 221.568 236.598 221.688 236.462 221.824C239.065 191.561 255.85 164.095 275.588 139.735L275.607 139.701ZM242.717 93.3677C236.909 108.09 229.954 122.471 225.253 137.517C222.844 145.245 221.095 153.075 220.279 161.059C219.366 169.862 219.288 178.715 218.997 187.535C218.706 196.252 218.162 204.97 216.394 213.567C214.743 221.636 212.178 229.552 208.992 237.246C203.106 251.507 195.238 265.086 187.098 278.461C187.312 277.727 187.487 277.011 187.681 276.277C193.956 263.602 198.657 250.33 201.435 236.717C204.718 220.664 204.582 204.458 205.165 188.217C205.457 179.978 205.981 171.738 207.36 163.567C208.643 156.026 210.779 148.674 213.694 141.492C219.191 127.947 227.04 115.323 234.558 102.58C239.492 94.2206 244.349 85.7592 248.371 77.0249C246.758 82.535 244.815 87.9769 242.678 93.3677H242.717ZM251.285 65.1345C251.207 65.5098 251.129 65.8681 251.051 66.2434C250.818 66.9258 250.566 67.6252 250.313 68.3076C249.031 71.6512 247.632 74.9437 246.098 78.1849C243.009 84.7869 239.454 91.2182 235.782 97.5813C228.419 110.376 220.532 123.034 214.587 136.408C211.615 143.078 209.187 149.919 207.555 156.931C205.709 164.931 204.854 173.086 204.388 181.24C203.475 197.532 203.961 213.874 201.474 230.081C200.27 237.996 198.385 245.792 196.015 253.503C193.956 260.242 191.489 266.98 188.38 273.428C189.099 270.477 189.721 267.526 190.245 264.558C193.256 247.174 193.354 229.586 193.626 212.049C193.898 193.745 194.422 175.235 198.91 157.289C201.144 148.333 204.427 139.581 209.031 131.325C213.732 122.914 219.619 115.084 225.563 107.305C235.646 94.1183 246.311 80.5391 251.265 65.1175L251.285 65.1345ZM243.805 72.5724C245.515 70.5082 247.108 68.3758 248.604 66.1922C243.902 78.9014 235.782 90.4846 227.254 101.658C221.464 109.25 215.559 116.807 210.488 124.791C205.457 132.74 201.532 141.151 198.793 149.919C193.295 167.49 192.13 185.778 191.78 203.912C191.43 221.483 191.838 239.088 189.74 256.591C188.983 262.903 187.856 269.215 186.302 275.441C188.38 262.238 188.089 248.778 186.982 235.489C185.602 219.009 183.116 202.615 182.688 186.085C182.3 170.527 183.66 154.662 189.546 139.888C192.343 132.86 196.19 126.224 200.988 120.1C205.515 114.316 210.702 108.96 215.986 103.706C225.894 93.8453 236.54 84.1727 243.825 72.5895L243.805 72.5724ZM181.659 258.996C178.978 238.235 174.704 217.61 173.616 196.73C172.664 178.442 174.257 159.643 181.348 142.311C184.922 133.593 189.915 125.439 196.326 118.07C202.912 110.512 210.624 103.791 218.317 97.1378C225.214 91.167 232.324 85.0769 238.599 78.4408C237.2 80.3003 235.743 82.1256 234.169 83.8998C229.293 89.4611 223.893 94.6471 218.55 99.8502C207.632 110.461 196.986 121.328 190.634 134.685C183.893 148.862 181.717 164.385 181.561 179.636C181.406 195.911 183.64 212.083 185.136 228.29C186.729 245.519 187.661 263.09 183.854 280.167C183.776 280.525 183.679 280.883 183.601 281.242C183.582 279.109 183.446 276.96 183.29 274.827C182.902 269.539 182.319 264.268 181.639 258.996H181.659ZM112.072 245.212C115.024 250.33 118.036 255.414 120.542 260.719C123.087 266.093 125.165 271.62 126.816 277.25C130.08 288.458 131.557 300.075 131.168 311.641C130.78 323.259 128.526 334.842 124.388 345.896C123.456 348.404 122.387 350.912 121.319 353.402C121.319 353.402 121.28 353.436 121.26 353.436C120.755 353.965 120.58 354.665 120.328 355.296C120.211 355.569 120.114 355.842 119.998 356.098C120.406 353.999 120.833 351.901 121.241 349.803C123.553 338.322 125.903 326.773 126.253 315.07C126.428 309.458 126.137 303.845 125.224 298.284C124.349 292.927 122.989 287.639 121.358 282.436C118.133 272.03 113.917 261.913 110.323 251.61C107.914 244.701 105.933 237.757 104.631 230.678C106.69 235.659 109.332 240.453 112.052 245.178L112.072 245.212ZM102.766 231.974C103.737 237.212 105.214 242.38 106.865 247.481C110.245 257.904 114.539 268.089 118.094 278.461C121.668 288.918 124.349 299.631 124.641 310.601C124.913 321.587 123.106 332.505 121.027 343.303C121.047 343.133 121.066 342.962 121.086 342.791C121.63 338.339 121.882 333.869 121.902 329.4C121.94 320.546 121.066 311.675 119.434 302.924C117.802 294.121 115.335 285.523 112.479 276.977C109.565 268.191 105.971 259.593 103.427 250.722C102.028 245.826 101.115 240.794 100.92 235.744C100.784 232.23 101.134 228.784 101.795 225.372C102.008 227.59 102.339 229.808 102.747 231.974H102.766ZM116.151 316.708C113.956 305.432 110.109 294.582 106.088 283.715C102.164 273.07 98.2784 262.306 97.0157 251.132C96.0249 242.398 96.6271 233.373 99.8908 225.048C100.143 224.622 100.396 224.178 100.59 223.752C100.94 223.035 101.27 222.302 101.562 221.551C101.562 221.943 101.6 222.336 101.62 222.728C100.474 226.242 100.085 229.978 100.046 233.595C100.007 238.03 100.571 242.449 101.523 246.799C103.485 255.721 106.943 264.285 109.993 272.934C113.023 281.515 115.432 290.266 117.258 299.103C119.065 307.871 120.25 316.742 120.464 325.647C120.6 330.696 120.406 335.746 119.901 340.761C119.648 343.252 119.318 345.743 118.89 348.216V348.336C119.085 337.742 118.172 327.114 116.132 316.674L116.151 316.708ZM14.9954 193.062C22.397 206.13 31.5276 218.31 40.192 230.729C48.837 243.148 56.6855 255.96 63.8734 269.078C70.9836 282.043 77.5111 295.264 83.6305 308.605C84.699 310.925 85.7481 313.262 86.7971 315.582C86.564 315.207 86.3503 314.831 86.1172 314.473C75.5878 297.346 63.7763 280.849 52.3533 264.182C41.0857 247.737 30.1095 231.087 21.1537 213.55C13.2469 198.06 6.89435 181.871 3.43637 165.153C5.68989 174.86 10.0221 184.26 14.9954 193.062ZM57.1129 292.518C45.5344 279.723 34.3251 266.622 25.719 252.07C17.4432 238.065 11.3237 223.069 7.57429 207.631C6.02014 201.268 4.89339 194.836 4.13574 188.371C5.59275 195.007 7.63258 201.558 10.0609 207.972C14.9759 220.988 21.2314 233.578 28.2833 245.809C35.2576 257.922 42.9312 269.71 51.0517 281.259C56.8603 289.515 62.9215 297.636 69.0798 305.705C65.1167 301.303 61.0954 296.919 57.1129 292.518ZM95.1118 336.906C90.5077 330.986 85.9035 325.084 81.2993 319.164C72.5961 307.973 63.9511 296.731 55.6753 285.302C47.38 273.838 39.3178 262.203 32.1104 250.194C24.8836 238.15 18.2979 225.765 12.9361 212.987C8.42908 202.274 5.08765 191.151 3.35866 179.824C3.16439 176.532 3.06725 173.256 3.06725 169.964C3.86376 173.444 4.77682 176.907 5.78702 180.319C8.40965 189.258 11.8288 197.992 15.7725 206.556C23.8735 224.178 34.1503 240.965 45.0876 257.341C56.2969 274.128 68.1279 290.59 78.9681 307.564C85.4955 317.817 91.6538 328.257 97.0739 339.004C97.2099 339.328 97.3459 339.653 97.4819 339.977C96.6854 338.953 95.8889 337.947 95.0924 336.923L95.1118 336.906ZM93.3634 326.807C91.3819 322.303 89.3809 317.8 87.3605 313.313C81.2799 299.939 74.9467 286.649 67.9725 273.616C61.0371 260.668 53.5189 247.959 45.1265 235.693C36.5009 223.086 26.8846 210.974 18.9196 198.009C11.9842 186.716 6.29213 174.587 3.80548 161.895C3.9609 162.236 4.13573 162.594 4.31057 162.935C4.71854 163.891 5.16536 164.829 5.65103 165.75C5.72874 165.904 5.82587 166.057 5.90358 166.194C10.1581 174.604 15.3839 182.673 20.9788 190.418C29.5655 202.308 39.1236 213.636 48.3319 225.151C57.7734 236.939 66.7292 249.017 74.2474 261.845C81.921 274.964 88.2736 288.679 93.208 302.77C98.1619 316.947 101.678 331.532 103.679 346.272C103.737 346.647 103.776 347.022 103.815 347.397C100.648 340.403 97.1322 333.528 93.344 326.773L93.3634 326.807ZM110.343 374.778C110.343 374.778 110.323 374.709 110.304 374.675C110.304 374.675 110.323 374.692 110.343 374.692C110.343 374.709 110.343 374.744 110.343 374.761V374.778ZM110.265 363.45C110.44 363.86 110.615 364.269 110.809 364.661C111.1 365.549 111.372 366.436 111.625 367.34C111.197 366.043 110.75 364.747 110.284 363.45H110.265ZM270.167 326.892C259.871 336.07 250.527 346.016 240.541 355.449C230.595 364.832 219.832 373.669 207.166 380.168C194.344 386.736 180.338 391.206 166.467 395.726C163.145 396.801 159.823 397.893 156.52 399.036C157.2 398.763 157.861 398.49 158.541 398.217C170.177 393.492 181.911 388.971 193.295 383.785C204.505 378.684 215.442 372.935 225.214 365.89C236.17 357.974 245.243 348.37 254.801 339.243C261.017 333.306 267.623 327.506 275.044 322.679C273.392 324.077 271.76 325.493 270.167 326.909V326.892ZM265.33 325.596C253.441 333.835 243.281 343.764 232.052 352.669C226.34 357.207 220.396 361.488 213.888 365.105C207.38 368.722 200.444 371.724 193.431 374.488C179.735 379.878 165.554 384.331 152.363 390.677C147.798 392.877 143.31 395.334 139.055 398.064C147.914 391.291 158.055 386.003 168.39 381.158C179.696 375.852 191.197 370.837 201.843 364.542C213.169 357.821 223.66 350.093 234.344 342.621C244.796 335.32 255.539 328.24 267.389 322.781C269.798 321.672 272.266 320.631 274.752 319.676C271.489 321.519 268.341 323.497 265.311 325.613L265.33 325.596ZM150.032 388.357C161.396 380.407 173.849 373.771 185.991 366.811C192.149 363.28 198.21 359.646 204.097 355.791C209.905 351.986 215.597 348.046 221.328 344.156C232.615 336.48 244.116 328.905 256.782 323.071C264.475 319.523 272.557 316.657 280.93 314.78C280.988 314.9 281.085 315.002 281.241 315.036C281.532 315.104 281.843 315.121 282.154 315.121C278.579 316.213 275.082 317.475 271.702 318.891C259.58 323.975 248.584 330.782 238.074 338.083C227.273 345.589 216.899 353.573 205.767 360.687C200.347 364.167 194.733 367.374 188.905 370.325C183.329 373.14 177.618 375.767 171.945 378.428C160.872 383.614 149.604 388.988 140.085 396.272C138.9 397.193 137.734 398.132 136.588 399.104C136.355 399.292 136.472 399.582 136.685 399.684C135.733 400.332 134.782 400.964 133.868 401.646C138.783 396.818 144.262 392.4 150.032 388.374V388.357ZM124.738 412.154C131.615 404.768 140.202 398.797 149.663 393.969C162.387 387.47 176.219 382.932 189.701 377.831C196.714 375.187 203.65 372.372 210.274 369.046C216.86 365.736 223.038 361.898 228.847 357.633C240.444 349.103 250.585 339.141 262.066 330.509C262.63 330.082 263.232 329.673 263.815 329.246C261.794 330.935 259.832 332.675 257.929 334.449C248.04 343.576 239.065 353.505 228.361 361.949C218.803 369.489 207.982 375.682 196.695 381.072C185.408 386.48 173.694 391.155 162.037 395.897C154.616 398.916 147.195 401.987 139.93 405.314C135.267 407.293 130.702 409.476 126.35 411.967C126.195 412.052 126.059 412.155 125.903 412.24C125.243 412.598 124.563 412.956 123.902 413.315C124.174 412.939 124.466 412.547 124.738 412.172V412.154ZM413.363 248.01C413.266 248.078 413.149 248.147 413.052 248.215C413.013 248.181 412.994 248.164 412.955 248.129C413.091 248.095 413.246 248.061 413.382 248.01H413.363ZM116.501 162.117C116.559 161.878 116.637 161.639 116.695 161.4C116.54 169.077 117.938 176.805 120.289 184.208C124.213 196.559 130.624 208.091 137.696 219.265C144.806 230.49 152.46 241.476 158.754 253.094C164.446 263.619 168.837 274.674 170.43 286.291C169.245 282.64 167.807 279.041 166.175 275.561C161.746 266.025 155.937 257.069 149.837 248.3C143.543 239.276 136.841 230.439 130.993 221.176C125.262 212.1 120.347 202.581 117.53 192.465C114.772 182.588 114.014 172.147 116.52 162.151L116.501 162.117ZM140.066 252.087C131.324 243.472 122.271 234.789 116.987 224.093C111.644 213.26 110.226 201.216 111.042 189.514C111.139 188.2 111.256 186.904 111.411 185.607C111.566 188.047 111.877 190.469 112.324 192.874C114.15 202.632 118.288 211.93 123.339 220.715C128.507 229.654 134.684 238.099 140.901 246.492C147.098 254.868 153.334 263.244 158.56 272.132C159.298 273.394 160.036 274.674 160.736 275.97C154.966 267.321 147.623 259.559 140.046 252.104L140.066 252.087ZM396.5 257.137C387.797 260.566 378.55 262.783 369.225 264.404C349.721 267.765 329.769 268.294 310.284 271.654C300.551 273.326 290.896 275.697 281.921 279.433C272.965 283.152 265.097 288.27 258.142 294.445C244.485 306.575 234.072 321.723 217.559 331.191C200.27 341.103 179.172 343.934 159.065 345.964C157.414 346.135 155.763 346.323 154.111 346.527L154.15 346.476C154.267 346.442 154.383 346.374 154.48 346.254C154.714 345.964 154.927 345.657 155.141 345.35C173.014 342.416 189.235 333.682 203.514 324.163C218.939 313.893 232.887 302.037 248.312 291.767C256.083 286.598 264.223 281.856 272.926 278.017C281.571 274.213 290.682 271.279 299.988 268.942C318.735 264.268 338.239 262.101 357.608 260.583C366.894 259.849 376.219 259.44 385.466 258.382C390.226 257.836 395.005 257.069 399.589 255.84C398.56 256.284 397.53 256.71 396.481 257.137H396.5ZM408.837 249.204C409.633 249.255 410.43 249.307 411.207 249.358C397.336 257.495 379.288 257.87 363.183 259.133C343.951 260.651 324.679 262.323 305.894 266.434C296.724 268.447 287.71 271.023 279.065 274.367C270.342 277.744 262.105 281.941 254.315 286.735C238.443 296.527 224.553 308.468 209.497 319.147C195.005 329.434 179.172 338.817 161.105 343.457C159.24 343.934 157.356 344.361 155.471 344.753L155.549 344.634C165.087 332.675 178.414 323.685 192.771 316.384C210.41 307.393 229.41 300.553 246.37 290.505C262.144 281.139 276.306 269.488 293.616 262.237C311.294 254.834 330.974 253.503 350.265 253.111C369.691 252.718 389.604 253.401 408.603 249.272L408.817 249.221L408.837 249.204ZM385.932 250.177C376.025 250.808 366.097 250.859 356.17 250.995C336.743 251.268 316.831 251.951 298.55 258.314C280.639 264.541 266.049 275.902 250.624 285.694C242.309 290.965 233.528 295.554 224.475 299.751C215.325 303.982 205.981 307.939 196.909 312.324C183.329 318.874 169.614 326.773 159.648 337.401C167.749 327.421 178.997 319.523 190.712 312.972C206.991 303.879 224.747 296.97 240.697 287.417C248.74 282.589 256.083 276.977 263.64 271.603C271.119 266.315 278.89 261.436 287.516 257.7C304.359 250.415 323.086 247.021 341.736 246.031C361.61 244.973 381.503 246.628 401.241 248.556C396.19 249.29 391.1 249.852 385.952 250.194L385.932 250.177ZM181.659 309.185C188.672 304.05 196.481 299.99 204.893 296.902C214.16 293.49 223.854 291.034 233.043 287.434C237.53 285.677 241.882 283.63 245.903 281.139C249.73 278.768 253.227 276.004 256.549 273.104C263.329 267.202 269.429 260.702 276.695 255.226C293.13 242.858 314.966 240.197 335.908 241.067C347.428 241.545 358.91 242.858 370.371 243.967C380.532 244.956 390.692 245.929 400.852 246.833C400.638 246.986 400.561 247.225 400.58 247.481C399.356 247.345 398.132 247.208 396.928 247.089C391.585 246.526 386.224 246.065 380.862 245.656C370.352 244.871 359.803 244.411 349.235 244.632C330.197 245.025 311.003 247.669 293.383 254.168C284.582 257.41 276.423 261.658 268.808 266.707C260.998 271.893 253.713 277.659 245.884 282.845C230.012 293.371 211.809 300.519 194.772 309.389C182.921 315.565 171.343 322.815 162.387 332.095C162.601 331.686 162.815 331.276 163.028 330.85C164.252 328.393 165.418 325.92 166.525 323.429C170.896 318.175 175.967 313.364 181.659 309.185ZM171.052 296.424C169.225 289.106 166.117 282.026 162.407 275.305C157.511 266.434 151.469 258.075 145.311 249.852C139.075 241.511 132.683 233.254 127.147 224.536C121.63 215.87 116.889 206.727 114.306 197.02C112.732 191.083 112.091 185.061 112.363 179.039C112.965 175.628 113.684 172.233 114.519 168.855C114.364 170.288 114.267 171.721 114.228 173.154C114.072 178.203 114.597 183.253 115.665 188.2C117.822 198.316 122.057 207.972 127.322 217.15C132.703 226.549 139.017 235.489 145.311 244.428C151.586 253.333 157.725 262.34 162.601 271.91C166.506 279.587 169.497 287.536 171.09 295.793C171.09 296.015 171.09 296.22 171.09 296.441L171.052 296.424ZM173.247 295.964C173.247 295.008 173.266 294.036 173.247 293.081C172.917 281.156 169.381 269.505 164.136 258.553C158.424 246.662 150.925 235.523 143.679 224.332C136.413 213.107 129.342 201.711 124.563 189.463C122.212 183.424 120.425 177.197 119.473 170.868C119.318 169.776 119.182 168.701 119.085 167.61C120.309 171.789 122.135 175.849 124.31 179.636C127.03 184.413 130.236 188.968 133.344 193.557C136.666 198.47 139.91 203.434 143.057 208.45C149.196 218.225 155.16 228.102 160.464 238.235C165.651 248.129 170.1 258.399 172.431 269.112C174.354 277.932 174.859 287.076 173.247 295.947V295.964ZM260.027 220.971C270.342 212.527 281.804 205.106 294.063 198.982C306.748 192.653 320.25 187.791 334.276 184.225C349.604 180.336 365.32 177.794 380.92 174.877C393.703 172.472 406.661 169.827 418.997 165.87C416.258 167.251 413.48 168.582 410.643 169.827C403.941 172.796 397.064 175.457 390.109 177.913C376.044 182.895 361.629 187.074 347.253 191.305C333.557 195.331 319.803 199.289 306.399 204.031C293.499 208.586 280.891 213.874 269.041 220.289C258.395 226.055 248.409 232.81 239.706 240.709C245.826 233.646 252.625 227.027 260.007 220.971H260.027ZM400.872 184.328C389.546 192.499 377.287 199.664 364.31 205.618C350.711 211.879 336.394 216.843 321.901 221.261C307.351 225.714 292.606 229.637 277.977 233.868C263.426 238.082 248.72 242.432 234.927 248.334L234.849 248.368C235.18 248.112 235.51 247.874 235.84 247.618C242.27 244.871 248.584 241.954 255.092 239.344C262.183 236.495 269.352 233.817 276.559 231.241C291.09 226.072 305.816 221.346 320.464 216.433C334.354 211.759 348.186 206.948 361.688 201.489C374.587 196.269 387.214 190.435 399.162 183.662C403.339 181.291 407.418 178.801 411.42 176.19C408.021 179.005 404.504 181.718 400.91 184.328H400.872ZM239.59 244.803C243.106 242.193 246.7 239.668 250.41 237.263C258.686 231.872 267.409 226.993 276.578 222.831C286.855 218.173 297.618 214.42 308.536 211.128C329.789 204.697 351.663 199.92 372.703 192.96C378.958 190.896 385.194 188.61 391.314 186.051C382.766 190.623 373.907 194.751 364.893 198.572C351.663 204.168 338.123 209.098 324.446 213.772C309.954 218.719 295.384 223.479 280.93 228.545C266.904 233.459 253.014 238.713 239.609 244.82L239.59 244.803ZM418.744 168.855C417.987 169.418 417.229 169.947 416.471 170.51C404.582 178.238 391.294 184.277 377.598 189.138C356.831 196.491 335.112 201.37 313.859 207.494C302.96 210.633 292.178 214.13 281.804 218.429C272.343 222.353 263.31 227.01 254.723 232.281C248.681 235.983 242.892 240.009 237.317 244.223C241.105 240.555 245.068 237.041 249.361 233.817C254.587 229.91 260.124 226.328 265.894 223.069C277.608 216.433 290.158 211.145 303.018 206.471C316.267 201.66 329.866 197.634 343.504 193.727C357.822 189.633 372.197 185.641 386.263 180.899C398.579 176.736 410.585 171.926 422.105 166.279C420.998 167.149 419.891 168.019 418.764 168.872L418.744 168.855Z" fill="#272727"/>
</svg>
