<svg width="377" height="320" viewBox="0 0 377 320" fill="none" xmlns="http://www.w3.org/2000/svg">
<path d="M165.183 267.302C211.322 262.014 251.011 236.749 286.796 210.614C304.61 197.598 322.91 182.91 328.699 163.206C331.069 155.086 330.37 145.055 322.58 140.21C317.548 137.089 310.943 137.003 304.804 137.14C255.557 138.215 206.543 146.284 160.191 160.937C130.215 170.405 100.861 182.91 77.7623 202.17C65.4651 212.422 20.725 259.762 54.0032 267.029C70.0304 270.526 89.6904 266.722 106.164 267.319C125.824 268.036 145.601 269.554 165.203 267.302H165.183Z" fill="#CED7CE"/>
<path d="M103.639 165.287C139.093 130.282 175.596 93.6726 190.438 48.6702C193.313 39.97 195.314 30.7921 193.469 21.8871C191.623 12.9822 185.212 4.35021 175.518 1.27953C163.687 -2.47351 150.71 2.64428 140.084 8.52973C104.066 28.4891 75.8974 59.1276 61.2495 94.2356C46.6016 129.344 45.5914 168.716 58.4132 204.37C76.247 184.155 94.0809 163.957 111.915 143.742" fill="#CED7CE"/>
<path d="M251.788 135.212C290.895 125.659 328.933 111.329 360.909 89.3737C365.805 86.013 370.662 82.3623 373.653 77.5857C376.645 72.8091 377.48 66.6166 374.217 61.9594C369.243 54.8286 357.84 54.2827 348.34 54.931C303.386 57.9846 259.287 69.4314 219.404 87.8554C200.327 96.6751 176.606 107.457 161.842 121.547C153.216 129.77 149.953 147.085 166.155 149.951C177.675 151.998 195.82 146.164 207.34 144.236C222.279 141.712 237.121 138.777 251.788 135.212Z" fill="#597765"/>
<path d="M308.068 165.322L308.573 165.202C309.525 165.015 309.331 163.752 308.34 163.872C307.874 163.923 307.427 163.974 306.961 164.025L306.689 163.889L306.475 163.82C306.32 163.718 306.145 163.633 305.892 163.633H305.853C289.01 158.498 269.719 158.993 252.721 163.275C243.396 165.629 234.712 169.279 226.572 173.885C217.17 179.208 208.602 185.537 199.686 191.457C191.351 196.984 182.648 201.897 173.187 205.837C164.484 209.471 155.431 212.388 146.262 214.981C127.651 220.253 108.554 224.176 90.0984 229.942C81.0261 232.774 72.1286 236.067 63.6973 240.161C59.268 242.31 54.8192 244.716 50.7978 247.547C52.216 244.92 53.673 242.31 55.2077 239.734C55.402 239.41 55.5963 239.069 55.7905 238.745C56.1597 238.267 56.5288 237.79 56.859 237.295C57.8692 235.879 58.8211 234.429 59.6759 232.911C60.0256 232.296 60.453 231.597 60.8221 230.88C61.2495 230.727 61.5798 230.386 61.638 229.857C61.6575 229.635 61.6963 229.396 61.7157 229.175C61.9877 228.765 62.2791 228.356 62.5511 227.929C62.9979 227.827 63.3865 227.571 63.4836 227.076C63.5419 226.752 63.6584 226.445 63.7556 226.121L63.8721 225.95C69.4671 221.464 74.1295 216.158 78.0926 210.426C83.4739 205.36 89.2048 200.583 94.8969 195.807C106.883 185.759 119.763 176.547 133.265 168.119C137.034 165.765 140.861 163.479 144.727 161.262C146.65 160.17 148.573 159.078 150.516 158.02C151.954 157.491 153.391 156.98 154.829 156.451C155.198 156.314 155.586 156.178 155.956 156.024C157.141 155.956 158.306 155.871 159.491 155.803C161.337 155.683 163.202 155.564 165.047 155.393C166.873 155.206 168.738 155.086 170.506 154.626C170.798 154.54 170.895 154.318 170.837 154.097C178.432 153.755 186.009 153.056 193.508 151.947C210.059 149.508 226.242 145.243 241.628 139.34C257.908 133.114 273.294 125.181 287.903 116.362C295.246 111.926 302.415 107.252 309.447 102.441C315.917 98.0057 322.23 93.3827 328.68 88.9473C331.128 87.2754 333.614 85.6036 336.14 83.983C336.859 83.7271 337.578 83.4712 338.296 83.1983C338.724 83.0447 338.763 82.7036 338.588 82.4477C347.563 76.9205 357.218 72.195 367.961 70.1138C368.194 70.0797 368.408 70.0456 368.622 70.0285C370.584 69.8067 372.546 69.602 374.508 69.4144C375.207 69.3461 375.771 68.6808 375.635 68.0667L375.479 67.6232C375.479 67.3331 375.324 67.0602 375.052 66.8896C374.158 65.8319 372.488 65.3372 371.031 66.0196C370.72 66.1561 370.545 66.3778 370.428 66.5996C370.487 65.8661 369.71 65.1154 368.641 65.4396C364.989 66.5484 361.337 67.6743 357.568 68.4591C353.818 69.2438 350.011 69.7726 346.184 70.1309C338.374 70.8474 330.506 70.8474 322.677 70.7621C314.79 70.6768 306.883 70.5232 298.996 70.8303C290.487 71.1715 282.017 72.195 273.702 73.7986C256.937 77.0228 240.832 82.4306 225.31 88.7767C217.481 91.9838 209.768 95.4298 202.153 98.9952C193.683 102.97 185.212 107.15 177.908 112.677C174.353 115.372 171.07 118.375 168.311 121.718C165.747 124.823 163.61 128.201 161.57 131.595C157.49 138.368 153.838 145.516 147.971 151.265C147.544 151.674 147.097 152.067 146.67 152.476C146.126 152.544 145.582 152.595 145.038 152.681V152.903C145.329 152.988 145.64 153.073 145.951 153.158C145.096 153.926 144.222 154.66 143.289 155.359L143.134 155.615C140.336 157.833 137.286 159.777 133.848 161.33C133.382 161.535 133.168 161.876 133.09 162.217C130.04 164.128 127.01 166.089 124.018 168.085C109.972 177.519 96.7424 187.925 84.756 199.338C86.1159 196.779 87.3787 194.203 88.5637 191.644C95.1688 177.485 99.9479 162.66 107.816 148.962C111.818 141.968 116.81 135.57 122.269 129.395C127.845 123.1 133.712 116.993 138.607 110.271C147.932 97.4769 152.303 82.7377 157.704 68.4761C163.046 54.3681 170.098 39.6289 183.658 30.0586C185.31 28.8986 187.039 27.8068 188.865 26.8515C190.108 26.1862 189.817 24.1732 188.107 24.4632C188.049 24.0026 187.583 23.6102 186.98 23.8661C185.795 24.3608 184.63 24.9067 183.445 25.4355C164.737 29.4104 146.903 36.1829 130.72 45.3437C113.216 55.2552 97.7138 67.9302 85.3583 82.6524C73.7604 96.4704 65.0377 112.114 59.5205 128.593C54.0615 144.902 51.6915 161.961 52.5657 178.935C52.9931 187.362 54.2364 195.755 56.3345 203.995C57.5584 208.857 59.3457 214.111 59.7536 219.297C59.5788 220.747 59.3651 222.197 59.2097 223.647C59.0543 224.978 58.9377 226.309 58.8017 227.656C58.588 227.827 58.3743 227.997 58.1606 228.168C57.6944 228.526 57.8109 229.004 58.1412 229.277L58.0829 229.413C53.7896 235.196 49.8653 241.201 46.2908 247.36C46.5628 246.302 46.8153 245.227 47.029 244.153C49.0688 234.054 48.7969 223.664 47.0096 213.548C43.0659 191.303 32.3617 170.644 24.2996 149.422C22.0072 143.4 19.9285 137.31 18.2772 131.118C17.4613 128.064 16.7231 124.976 16.1208 121.872C15.674 119.586 15.3049 117.283 14.8775 114.98C14.9747 114.673 15.0718 114.349 15.1689 114.041C15.5575 113.53 15.946 113.001 16.082 112.438C16.2568 111.67 15.1495 110.954 14.353 111.329C13.3039 111.824 12.7017 113.018 12.1966 113.922C11.7304 114.758 11.3613 115.628 11.0893 116.532C10.7979 117.487 10.5842 118.426 10.6036 119.432C10.6036 119.637 10.6036 119.876 10.6036 120.132C10.4676 120.422 10.3122 120.712 10.1762 121.002C8.9329 123.612 7.82556 126.273 6.83479 128.951C4.81439 134.41 3.31852 140.023 2.32775 145.686C0.326784 156.997 0.326784 168.614 2.32775 179.924C4.54242 192.361 9.61284 203.961 15.6546 215.305C21.9878 227.179 28.9814 238.967 32.3229 251.829C32.5366 252.682 32.7308 253.552 32.9057 254.405C32.7697 257.032 32.8862 259.711 32.7697 262.287C32.5948 266.244 32.2646 270.219 31.7595 274.16C31.2738 278.015 30.6327 281.837 29.8362 285.641C29.2923 286.698 28.7872 287.722 28.3598 288.831C28.2238 289.155 28.2626 289.445 28.3986 289.684C28.1072 290.4 27.8547 291.117 27.5439 291.833C26.961 293.164 26.3394 294.478 25.7177 295.791C25.3875 296.473 25.8149 297.002 26.4171 297.19C25.8537 299.271 25.3292 301.369 24.8629 303.468C24.6687 304.338 24.5133 305.225 24.319 306.112C23.8722 307.511 23.4253 308.893 22.9591 310.291C22.862 310.599 23.1145 310.803 23.3865 310.837C23.1534 312.049 22.9397 313.26 22.726 314.471C22.5317 315.597 21.4244 318.395 22.9591 319.094C24.8629 319.947 25.1155 317.132 25.2709 316.16C25.3292 315.768 25.4069 315.392 25.4846 315L25.5235 314.949C25.4457 315.733 25.4069 316.518 25.4652 317.32C25.5235 318.105 26.8056 318.105 27.097 317.473C27.9712 315.648 28.3598 313.737 28.7872 311.793C29.2146 309.814 29.6808 307.852 30.1665 305.89C31.1378 302.001 32.2257 298.145 33.4108 294.307C35.8003 286.613 38.5589 279.039 41.6478 271.533C42.2112 270.185 42.794 268.854 43.3768 267.507C45.7857 265.084 49.1077 263.327 52.8182 263.105C53.0708 263.105 53.2262 262.952 53.3039 262.798C60.6473 263.737 67.9906 264.59 75.334 265.443C85.0669 266.551 94.7997 267.592 104.61 268.07C124.115 269.008 143.697 267.404 161.589 260.12C179.967 252.631 195.334 240.655 209.516 228.168C223.406 215.92 236.422 202.869 251.478 191.678C265.659 181.119 281.861 171.907 300.239 168.341C302.473 167.915 304.746 167.539 307 167.181C308.165 166.993 308.418 166.021 308.029 165.322H308.068ZM154.11 152.254C166.64 145.413 179.598 139.119 192.77 133.301C219.229 121.599 246.66 111.619 274.149 101.981C292.896 95.4127 311.779 89.1008 330.467 82.3794C326.912 84.1024 323.396 85.8936 319.899 87.7019C319.724 87.7872 319.569 87.8725 319.394 87.9749C319.025 88.0943 318.675 88.2308 318.306 88.3502C312.031 90.5167 305.795 92.7685 299.598 95.1057C287.223 99.797 274.965 104.778 262.901 110.084C250.739 115.423 238.889 121.206 227 126.955C221.191 129.753 215.363 132.568 209.321 134.956C203.551 137.242 197.587 139.085 191.526 140.688C179.171 143.963 166.213 146.488 154.984 152.254C154.693 152.254 154.382 152.254 154.091 152.254H154.11ZM156.13 152.203C166.232 147.597 177.267 145.106 188.204 142.445C194.11 141.012 199.977 139.494 205.669 137.515C211.827 135.366 217.83 132.858 223.658 130.128C235.489 124.584 247.107 118.767 259.073 113.461C271.254 108.054 283.59 102.953 296.121 98.2105C300.375 96.5898 304.668 95.0374 308.962 93.485C306.281 94.918 303.619 96.351 300.958 97.8181C288.272 104.829 275.625 111.892 262.726 118.596C239.666 130.538 215.499 141.353 189.506 147.409C178.53 149.968 167.379 151.504 156.111 152.22L156.13 152.203ZM314.498 95.498C307.602 100.445 300.569 105.256 293.362 109.862C279.005 118.989 263.969 127.331 247.981 134.103C232.633 140.603 216.49 145.55 199.802 148.552C191.507 150.054 183.134 151.026 174.722 151.606C178.199 151.077 181.657 150.463 185.076 149.747C197.704 147.119 210.001 143.332 221.91 138.812C234.382 134.086 246.407 128.542 258.16 122.588C271.215 115.986 283.862 108.787 296.781 101.998C303.969 98.2105 311.099 94.3721 318.325 90.6361C319.336 90.1244 320.346 89.6296 321.356 89.1179C322.638 88.6914 323.92 88.2478 325.222 87.8213C321.628 90.3632 318.054 92.9391 314.479 95.498H314.498ZM346.65 73.5598C325.28 81.2535 303.775 88.7255 282.308 96.2145C254.178 106.024 226.184 116.106 199.083 127.945C183.658 134.683 168.564 141.985 153.974 150.02C156.752 147.546 159.608 145.123 162.58 142.82C168.894 137.942 175.596 133.455 182.57 129.327C196.635 120.985 211.788 114.144 227.349 108.224C242.813 102.339 258.724 97.4257 274.693 92.7003C290.234 88.0943 305.795 83.4883 321.511 79.3599C329.807 77.1934 338.199 75.2145 346.669 73.5427L346.65 73.5598ZM160.094 138.829C164.367 131.92 168.272 124.806 174.392 118.972C180.919 112.745 189.176 108.105 197.529 104.011C205.28 100.223 213.187 96.6581 221.172 93.2803C236.577 86.7466 252.507 80.9806 269.137 77.3299C277.412 75.5216 285.844 74.2251 294.353 73.628C302.279 73.0651 310.244 73.1504 318.17 73.2527C324.717 73.338 331.322 73.4233 337.908 73.1845C334.139 74.0374 330.39 74.9586 326.64 75.914C310.846 79.94 295.285 84.6483 279.724 89.3055C263.561 94.1333 247.476 99.1828 231.72 105C216.101 110.783 200.89 117.436 186.592 125.471C174.217 132.414 162.328 140.432 152.109 149.781C155.198 146.437 157.723 142.633 160.055 138.863L160.094 138.829ZM81.2203 198.894C79.9576 201.931 77.8401 204.626 75.5283 207.117C72.9056 209.949 69.9527 212.627 67.369 215.527C70.4967 204.404 74.2267 193.418 78.5006 182.603C83.979 168.751 90.215 155.154 96.7618 141.66C103.386 127.996 110.244 114.4 117.277 100.889C124.523 86.9684 132.235 73.1845 142.59 60.7994C147.524 54.8969 153.042 49.3527 159.18 44.3884C162.697 41.5566 166.407 39.0318 170.273 36.6947C158.811 44.8149 153.061 57.8482 148.224 69.8238C145.271 77.1764 142.298 84.4948 138.219 91.455C134.1 98.4663 129.244 105.102 124.154 111.585C114.576 123.834 104.163 135.69 96.0625 148.791C92.2742 154.933 88.9911 161.33 86.7181 168.034C85.5914 171.344 84.6977 174.721 84.0761 178.116C83.4544 181.596 83.2407 185.11 83.0465 188.625C82.8522 192.088 82.5608 195.619 81.2009 198.911L81.2203 198.894ZM158.034 60.2365C151.973 74.3445 148.321 89.2884 140.375 102.765C132.061 116.856 118.481 127.808 109.331 141.456C100.453 154.694 95.3437 169.467 89.3019 183.78C88.0197 186.833 86.6404 189.887 85.2028 192.941C85.5525 190.024 85.5914 187.089 85.8051 184.172C86.0576 180.743 86.6404 177.348 87.4758 173.988C89.1659 167.249 91.9634 160.733 95.3243 154.523C102.493 141.285 112.284 129.429 121.784 117.436C126.776 111.124 131.653 104.727 135.965 98.0399C140.259 91.3867 143.814 84.4607 146.747 77.2617C152.556 63.0513 157.432 47.2714 171.128 37.1553C172.002 36.5241 172.876 35.8929 173.789 35.3129C166.835 42.5801 161.822 51.3657 157.995 60.2535L158.034 60.2365ZM60.0062 137.054C64.4549 120.643 72.0314 104.864 82.5414 90.7385C93.8867 75.5045 108.535 62.2324 125.378 51.6215C129.263 49.1821 133.265 46.8791 137.364 44.7296C136.14 45.5484 134.936 46.3673 133.751 47.2203C118.637 58.1041 106.747 72.0586 95.5962 86.0301C84.8726 99.4728 74.8095 113.444 67.369 128.525C60.8027 141.797 56.3539 155.99 55.4603 170.474C55.402 171.429 55.402 172.384 55.3631 173.34C55.2272 161.142 56.7813 148.911 59.9867 137.054H60.0062ZM66.0868 136.338C72.5754 121.002 82.0168 106.791 92.3519 93.2462C97.6749 86.269 103.192 79.3599 108.962 72.6386C114.907 65.6955 121.298 59.0253 128.467 53.0204C135.868 46.8279 144.241 41.3348 153.391 37.2747C156.946 35.8247 160.579 34.5111 164.231 33.2828C166.524 32.6175 168.836 32.0546 171.206 31.5769C160.735 37.36 150.982 44.1496 142.026 51.6045C128.603 62.7783 116.83 75.4875 106.883 89.1861C97.0727 102.68 89.0494 117.095 82.5025 132.022C76.0722 146.676 71.1184 161.807 67.3495 177.144C65.3291 185.383 63.639 193.691 62.2403 202.033C61.8323 200.754 61.3855 199.474 60.9969 198.246C58.86 191.525 57.7527 184.547 57.5778 177.57C57.2281 163.496 60.5113 149.457 66.0674 136.304L66.0868 136.338ZM58.3743 199.816C57.7721 197.12 57.3058 194.391 56.8785 191.678C57.5584 194.937 58.4909 198.11 59.5399 201.283C60.2782 203.5 61.0358 205.82 61.2884 208.14C61.1912 208.806 61.0747 209.471 60.9775 210.136C60.1227 206.69 59.132 203.279 58.3743 199.816ZM62.7259 221.361C64.2801 208.72 66.3005 196.131 69.098 183.66C72.5171 168.426 77.0241 153.346 82.9105 138.692C88.8551 123.902 96.2762 109.538 105.407 96.0439C114.771 82.1918 125.863 69.1755 138.685 57.6264C145.057 51.8945 151.837 46.5379 159.025 41.6077C164.873 37.5988 170.992 34.0164 177.267 30.6045C177.869 30.5363 178.452 30.451 179.054 30.3827C178.549 30.8092 178.025 31.2186 177.519 31.6622C165.319 37.4112 154.887 45.6849 146.106 55.1187C135.091 66.9749 126.815 80.5541 119.219 94.2698C111.721 107.832 104.649 121.616 97.6555 135.4C90.7395 149.047 84.1732 162.831 78.3646 176.854C72.5948 190.74 67.6409 204.882 63.8916 219.297C63.7944 219.69 63.6973 220.082 63.6002 220.474C63.2699 221.02 62.9591 221.566 62.6871 222.146C62.6871 221.873 62.7259 221.617 62.7065 221.344L62.7259 221.361ZM114.071 177.587C107.719 182.193 101.56 186.97 95.6157 191.968C101.075 187.277 106.747 182.79 112.595 178.474C113.197 178.099 113.799 177.724 114.401 177.348L114.071 177.57V177.587ZM15.402 128.883C16.7036 134.274 18.3744 139.579 20.2199 144.851C23.9304 155.393 28.4375 165.68 32.6337 176.069C40.8124 196.25 47.9809 217.438 45.1252 239.086C44.6201 242.924 43.7847 246.729 42.5997 250.447C42.6191 250.175 42.6774 249.885 42.6968 249.612C43.4156 238.932 42.1334 228.219 39.6662 217.779C34.2461 194.732 23.4836 172.981 17.811 149.985C15.6546 141.268 14.2559 132.363 14.1587 123.424C14.5278 125.266 14.9552 127.092 15.3826 128.883H15.402ZM22.0266 221.464C15.5963 209.727 9.2243 198.007 6.03829 185.23C3.22139 173.937 2.52202 162.285 3.86248 150.787C4.54242 145.089 5.70803 139.426 7.37874 133.881C8.0004 131.817 8.73862 129.787 9.49627 127.774C8.66092 136.133 9.12716 144.629 10.3122 152.92C12.0023 164.912 15.2466 176.666 18.6658 188.352C22.0655 199.935 25.8731 211.433 28.7095 223.153C30.3025 229.686 31.6429 236.271 32.556 242.924C29.6614 235.572 25.8537 228.492 22.0072 221.481L22.0266 221.464ZM36.7133 257.237C36.6162 256.64 36.4608 256.043 36.3248 255.446C35.9363 246.251 34.4598 237.09 32.3423 228.083C29.6031 216.397 25.7954 204.916 22.1237 193.435C18.3744 181.733 14.8581 169.962 12.6629 157.952C10.5648 146.488 9.84596 134.888 11.2835 123.339C11.4584 122.929 11.6332 122.537 11.8081 122.128C12.1189 121.855 12.1966 121.479 12.2549 121.104C12.624 120.268 12.9737 119.432 13.3622 118.596C11.9829 138.812 18.0635 158.771 24.727 177.997C32.2257 199.645 40.8318 221.686 40.2879 244.596C40.1519 249.97 39.5108 255.326 38.2869 260.598C37.9567 261.212 37.6458 261.809 37.2961 262.406C37.1602 260.666 36.9853 258.943 36.6745 257.237H36.7133ZM47.7867 253.382C51.4195 250.021 55.7711 247.206 60.2393 244.801C68.418 240.4 77.2184 236.885 86.1742 233.883C104.125 227.861 122.833 223.92 141.191 218.99C159.588 214.06 177.636 207.987 193.547 198.331C210.953 187.789 226.203 174.295 246.271 167.556C255.946 164.315 266.242 162.541 276.597 162.251C268.845 162.916 261.152 164.673 253.925 167.147C235.373 173.51 219.559 184.616 204.231 195.517C188.573 206.656 172.663 218.001 153.799 224.671C135.635 231.085 116.072 233.286 97.0532 236.817C79.6662 240.041 61.8906 244.664 47.437 254.03C47.5535 253.808 47.6701 253.586 47.7867 253.382ZM49.7682 259.796C49.302 259.881 48.8357 259.984 48.3695 260.086H48.3306C48.7969 259.847 49.2631 259.591 49.7294 259.369C53.7896 257.391 58.0441 255.685 62.3763 254.235C71.3126 251.232 80.657 249.27 90.0596 247.786C108.884 244.818 128.039 243.931 146.806 240.69C156.111 239.086 165.358 236.902 174.12 233.661C183.386 230.232 191.856 225.473 199.666 219.911C215.732 208.465 229.195 194.374 246.524 184.292C252.274 180.948 258.296 178.116 264.532 175.694C259.987 178.184 255.596 180.897 251.361 183.78C243.785 188.932 236.81 194.732 229.875 200.532C222.357 206.827 214.994 213.292 207.359 219.502C192.284 231.716 175.965 243.027 156.305 248.895C139.326 253.962 121.259 255.105 103.484 255.787C85.5525 256.469 67.4272 256.572 49.7876 259.796H49.7682ZM168.175 254.32C159.569 258.619 150.322 261.86 140.628 263.686C131.206 265.46 121.531 266.023 111.895 265.869C102.163 265.716 92.4685 264.88 82.7939 263.839C76.2665 263.14 69.739 262.406 63.2116 261.69C73.061 261.007 83.0659 261.314 92.8959 261.655C102.143 261.98 111.429 262.304 120.676 261.877C130.273 261.434 139.715 260.001 148.826 257.305C168.272 251.556 185.29 240.928 200.832 229.413C208.874 223.46 216.606 217.199 224.377 210.972C221.094 213.975 217.83 216.994 214.547 219.997C200.56 232.774 185.854 245.517 168.175 254.337V254.32ZM280.171 171.582C271.682 175.148 263.755 179.703 256.334 184.752C256.004 184.974 255.693 185.213 255.363 185.435C254.741 185.844 254.081 186.236 253.459 186.663C236.907 197.751 222.26 210.733 206.796 222.914C191.371 235.06 174.625 246.558 155.412 253.672C146.223 257.066 136.548 259.284 126.621 260.171C117.335 261.007 108.01 260.854 98.7045 260.564C84.8532 260.137 70.7104 259.318 56.9367 261.007C55.1689 260.802 53.3816 260.615 51.6138 260.427C57.8304 259.54 64.047 258.807 70.3413 258.38C79.3748 257.749 88.4083 257.476 97.4612 257.169C115.179 256.606 133.11 255.958 150.302 251.863C159.588 249.646 168.428 246.37 176.723 242.106C185.582 237.568 193.76 232.075 201.531 226.206C209.457 220.218 216.937 213.804 224.435 207.424C231.448 201.47 238.539 195.687 246.077 190.245C257.519 181.972 270.069 174.329 283.979 169.655C285.241 169.348 286.504 169.041 287.786 168.751C285.203 169.621 282.658 170.576 280.19 171.617L280.171 171.582ZM291.75 165.015C287.126 165.765 282.541 166.772 278.073 168C269.001 170.491 260.22 173.834 251.963 177.98C243.299 182.33 235.353 187.55 227.893 193.367C219.967 199.543 212.527 206.179 204.639 212.371C196.888 218.461 188.651 224.159 179.365 228.356C170.895 232.177 161.803 234.804 152.556 236.715C133.712 240.587 114.343 241.56 95.266 244.272C85.7662 245.637 76.3442 247.411 67.2136 250.089C60.2587 252.136 53.3233 254.746 47.029 258.158C46.6793 257.937 46.0771 257.971 45.8245 258.414C45.708 258.602 45.6109 258.807 45.5137 259.011C45.3 259.131 45.0669 259.25 44.8532 259.387C45.164 258.721 45.4943 258.056 45.8051 257.374C58.86 247.974 75.2757 242.924 91.5749 239.547C110.069 235.708 129.088 233.729 147.175 228.441C156.441 225.729 165.203 222.027 173.498 217.489C181.929 212.866 189.836 207.56 197.587 202.101C213.284 191.047 228.573 179.14 246.718 171.207C261.813 164.622 279.103 161.04 295.868 163.889C296.082 163.923 296.295 163.974 296.529 164.025C294.916 164.298 293.304 164.639 291.711 165.015H291.75Z" fill="#272727"/>
</svg>
