<svg width="362" height="325" viewBox="0 0 362 325" fill="none" xmlns="http://www.w3.org/2000/svg">
<path d="M117.399 86.2532C130.823 67.2321 145.976 46.9827 144.306 24.6521C143.412 12.6936 134.106 -0.783288 120.488 0.0355576C110.639 0.632633 103.509 8.39462 98.5164 15.8836C80.4494 42.9908 73.8831 75.6253 79.0895 106.622C80.0414 112.269 84.2571 142.412 96.1269 134.036C98.9244 132.074 100.867 114.708 102.693 110.699C106.617 102.135 111.882 94.0663 117.399 86.2361V86.2532Z" fill="#CED7CE"/>
<path d="M57.9919 190.502C51.2508 192.038 44.529 194.358 39.5169 198.606C34.5048 202.853 31.5325 209.353 33.4557 215.238C36.0201 223.052 45.6947 227.06 54.5339 229.5C69.2983 233.611 163.208 249.459 152.562 218.991C148.113 206.282 123.324 196.576 110.386 192.652C93.6402 187.585 75.2041 186.596 58.0113 190.502H57.9919Z" fill="#CED7CE"/>
<path d="M213.698 146.438C217.448 138.762 220.168 129.055 213.932 122.743C210.532 119.297 205.151 117.813 199.964 117.642C187.161 117.216 174.922 124.056 167.948 133.49C159.769 144.562 150.095 181.29 169.366 187.926C190.639 195.245 207.773 158.533 213.679 146.438H213.698Z" fill="#CED7CE"/>
<path d="M236.836 171.805C233.728 167.08 230.308 162.321 225.238 159.147C220.187 155.974 213.077 154.729 207.695 157.459C200.294 161.229 199.342 170.185 199.847 177.674C202.062 210.496 216.088 243.301 239.439 269.06C246.355 276.686 261.76 285.813 270.483 273.871C278.04 263.533 267.122 238.507 263.645 227.692C257.389 208.176 248.395 189.342 236.836 171.788V171.805Z" fill="#CED7CE"/>
<path d="M87.9287 270.152C83.3634 271.517 78.7398 273.121 75.2235 276.038C71.7073 278.955 69.5509 283.475 71.0079 287.501C73.7471 295.076 85.5198 295.656 94.5144 294.769C118.118 292.432 141.741 290.077 165.345 287.74C174.514 286.836 214.067 288.866 203.868 272.899C196.7 261.657 162.237 262.066 149.434 261.844C128.589 261.486 107.686 264.25 87.9482 270.152H87.9287Z" fill="#597765"/>
<path d="M16.127 86.4237C11.7171 85.4684 6.53009 84.8542 3.0721 87.4473C-0.580155 90.1938 -0.463594 95.1922 0.799154 99.2693C3.84918 109.147 11.6199 117.506 20.77 123.835C29.9201 130.164 40.4883 134.701 50.9594 139.188C60.5563 143.299 70.1337 147.411 79.7306 151.522C85.5587 154.03 97.5256 161.928 104.461 160.563C118.604 157.766 98.9632 137.721 93.5625 131.563C74.3299 109.607 46.8214 93.0939 16.1075 86.4237H16.127Z" fill="#597765"/>
<path d="M361.032 323.684C335.369 316.161 310.153 307.512 285.792 297.208C284.743 296.543 283.674 295.895 282.606 295.281C281.421 294.598 280.235 293.916 279.012 293.285C278.448 292.978 277.865 292.705 277.283 292.432C276.603 292.108 275.884 291.937 275.184 291.664C275.087 291.63 275.01 291.664 274.951 291.715C274.097 291.442 273.281 291.152 272.465 290.811C270.172 289.344 268.424 287.212 267.336 284.892C266.85 283.885 266.501 282.827 266.19 281.77C266.132 281.599 266.093 281.429 266.034 281.258C265.102 277.727 264.888 274.025 264.403 270.442C263.12 261.264 261.081 252.189 258.361 243.267C255.622 234.362 252.202 225.611 248.084 217.115C243.965 208.62 239.186 200.38 233.766 192.464C228.754 185.129 223.198 178.101 217.156 171.396C216.71 170.833 216.282 170.253 215.816 169.707C215.039 168.769 214.242 167.848 213.368 166.978C213.174 166.773 212.863 166.79 212.63 166.91C212.164 166.91 211.717 167.268 211.775 167.677C211.659 167.814 211.62 168.001 211.736 168.206C213.038 170.441 214.145 172.795 215.039 175.183C215.039 175.217 215.058 175.252 215.078 175.303C215.777 177.879 216.282 180.489 216.651 183.099C217.137 186.511 217.409 189.923 217.642 193.351C217.623 193.642 217.603 193.932 217.584 194.239C217.584 194.358 217.642 194.443 217.72 194.494C217.817 195.945 217.895 197.395 217.992 198.862C218.672 209.404 220.148 219.862 223.101 230.114C226.034 240.265 230.27 250.159 236.117 259.303C241.285 267.389 247.695 274.844 255.233 281.343C255.758 281.787 256.282 282.213 256.826 282.657C257.117 283.015 257.409 283.39 257.72 283.732C258.069 284.141 258.439 284.533 258.808 284.909C236.234 273.888 214.611 261.35 194.485 247.105C191.26 244.819 188.094 242.499 184.947 240.128L184.908 239.992C181.1 233.56 177.059 227.248 172.98 220.936C173.077 220.868 173.135 220.749 173.077 220.629C171.62 217.559 170.104 214.539 169.114 211.332C168.123 208.159 167.443 204.918 167.093 201.625C166.472 195.74 166.86 189.786 168.006 183.969C168.123 183.969 168.22 183.952 168.317 183.884C168.667 183.696 168.803 183.355 168.745 183.014C168.745 182.945 168.706 182.894 168.667 182.86C170.104 181.256 171.678 179.755 173.407 178.391C175.427 176.787 177.584 175.337 179.76 173.904C184.092 171.038 188.385 168.223 191.96 164.607C198.798 157.698 203.15 148.912 204.432 139.837C205.151 134.77 204.917 129.584 203.635 124.586L203.694 124.517C204.082 123.988 203.305 123.443 202.819 123.886L202.567 123.92C192.931 127.349 184.403 133.013 177.953 140.161C171.037 147.82 166.744 157.152 165.52 166.858C164.801 172.522 165.112 178.271 166.491 183.832L166.569 184.003C165.597 189.104 165.209 194.307 165.578 199.476C165.967 205.02 167.268 210.581 169.619 215.767C169.172 215.085 168.725 214.403 168.298 213.72C167.618 212.151 166.782 210.633 165.831 209.165C165.442 208.278 165.073 207.391 164.704 206.504C164.471 205.941 164.257 205.378 164.043 204.798C164.063 204.713 164.063 204.611 164.004 204.491C163.927 204.338 163.83 204.184 163.752 204.048C163.383 203.058 163.033 202.069 162.703 201.062C162.567 200.636 162.431 200.209 162.295 199.766C162.392 199.681 162.431 199.561 162.392 199.425C161.945 198.043 161.479 196.678 160.993 195.313C160.508 193.488 160.061 191.663 159.653 189.82C157.924 182.246 156.642 174.603 154.621 167.097C152.484 159.131 149.454 151.369 146.481 143.624C143.509 135.879 140.614 128.117 138.769 120.099C136.943 112.149 136.127 103.961 137.409 95.8918C137.564 94.8853 137.759 93.8959 137.992 92.8894C138.089 92.4459 137.564 92.0194 137.059 92.0876C136.477 92.19 135.913 92.2923 135.33 92.3776C134.942 92.4458 134.748 92.7017 134.689 92.9576C133.193 94.6806 131.833 96.506 130.59 98.3654C125.811 104.302 122.023 110.87 119.536 117.796C116.214 127.008 115.204 136.817 116.836 146.387C118.41 155.736 122.528 164.504 128.783 172.198C134.476 179.209 141.469 185.282 148.171 191.526C152.815 195.859 157.341 200.329 161.188 205.191C161.887 206.248 162.567 207.306 163.266 208.381C169.463 217.934 175.622 227.521 181.935 237.006C182.324 237.586 182.732 238.166 183.12 238.746C163.169 223.529 144.947 206.555 129.23 187.858C115.962 172.096 104.461 155.156 95.0973 137.363C93.4071 132.143 92.2221 126.803 91.6587 121.378C91.1536 116.653 91.1536 111.876 91.5616 107.134L91.6587 107.083C94.2813 105.001 96.7291 102.835 99.0409 100.498C101.372 98.1436 103.587 95.6871 105.646 93.1282C109.745 88.0616 113.339 82.6709 116.37 77.0413C119.4 71.4117 121.887 65.5604 123.771 59.5555C125.656 53.5507 126.977 47.4093 127.637 41.2168C128.298 35.0584 128.356 28.8318 127.734 22.6563C127.657 21.8716 127.56 21.0868 127.462 20.3021C127.443 20.1145 127.326 19.978 127.19 19.8756V19.688C127.132 19.3468 126.627 19.2615 126.394 19.4492L126.433 19.2274C126.472 18.8862 125.869 18.7156 125.753 19.0738C125.228 20.5921 124.801 22.1446 124.218 23.6458C123.655 25.1299 122.955 26.5799 122.198 27.9788C120.605 30.8959 118.662 33.6595 116.525 36.3037C112.173 41.6945 107.084 46.5564 102.343 51.6742C97.7005 56.7237 93.4654 62.0462 90.6874 68.1023C88.0259 73.8854 86.5494 80.112 86.3163 86.3386C86.0832 92.5823 87.0934 98.8431 89.3469 104.763C89.58 105.394 89.852 106.008 90.124 106.622C89.7743 110.631 89.7354 114.657 90.0268 118.683C90.3571 123.067 91.0759 127.417 92.1832 131.682C89.5606 126.377 87.1128 121.02 84.8787 115.578C84.8399 115.476 84.801 115.356 84.7427 115.237C84.7427 115.101 84.7427 114.964 84.7039 114.794C84.6456 114.452 84.5873 114.111 84.5096 113.77C84.3736 113.088 84.1988 112.405 84.0239 111.723C83.8491 111.058 83.6548 110.375 83.4217 109.727C83.1886 109.062 82.8583 108.447 82.5086 107.816C82.4504 107.697 82.2949 107.68 82.1784 107.714C81.9453 107.1 81.7121 106.486 81.4984 105.871C81.0516 104.524 80.6825 103.142 80.3911 101.76C79.7889 98.9795 79.478 96.1648 79.3421 93.35C79.0701 87.4986 79.614 81.6473 80.1191 75.813C80.6437 69.6888 81.1099 63.5474 80.5854 57.4061C80.0997 51.6059 78.5261 45.9252 76.3503 40.4321C75.1458 37.3955 73.7665 34.4102 72.2901 31.4589C71.5324 29.9577 70.7748 28.4394 69.9589 26.9723C69.4343 25.9999 68.9292 25.0105 68.327 24.0723V24.0381C68.2882 23.9016 68.2105 23.7993 68.1133 23.731L68.055 23.6458L68.0162 23.6116C67.8025 23.3216 67.5888 23.0316 67.3362 22.7587C67.2003 22.6222 66.9088 22.7075 66.9477 22.8952C66.9866 23.0487 67.0448 23.2022 67.0837 23.3387C66.9671 23.3898 66.87 23.4581 66.7923 23.5604C66.2483 24.294 65.7238 25.0446 65.1993 25.7952L65.1021 25.8635C64.8885 26.1705 64.7136 26.4946 64.4999 26.8017C61.411 31.2712 58.5941 35.9114 56.3795 40.7562C53.6597 46.6587 51.7753 52.9536 51.4645 59.3338C51.1536 65.8675 52.6689 72.2988 55.4276 78.3549C58.2639 84.5986 62.3241 90.3646 66.7729 95.8236C69.0458 98.6213 71.3965 101.368 73.8054 104.063C75.0681 105.479 76.3309 106.895 77.6131 108.311C78.6815 109.505 79.7306 110.716 80.8574 111.893C80.8185 112.013 80.8574 112.132 80.9739 112.235C81.1682 112.388 81.3625 112.559 81.5373 112.729C81.615 113.002 81.7121 113.275 81.8093 113.548C81.9064 113.838 82.2172 113.889 82.4892 113.804C82.5475 113.889 82.6058 113.958 82.6641 114.043C86.2969 123.118 90.4931 132.023 95.1944 140.707C95.5635 141.611 95.952 142.498 96.36 143.385C96.8068 144.374 97.3314 145.33 97.8365 146.285C97.953 146.49 98.2056 146.49 98.361 146.353C102.518 153.603 107.025 160.717 111.863 167.626C110.406 165.971 108.929 164.317 107.433 162.679C104.927 159.216 102.557 155.668 100.207 152.102C95.1944 144.443 90.26 136.715 84.2571 129.618C78.4484 122.76 71.5907 116.516 63.276 111.996C55.1167 107.543 45.9861 104.746 36.6612 102.869C27.2003 100.975 17.5257 100.003 7.88998 99.2696C7.34602 99.2354 6.80207 99.2013 6.25812 99.1672C6.06385 99.4572 5.86958 99.7301 5.65588 100.003H5.69474C7.24889 100.975 8.82247 101.965 10.3378 102.988C10.4738 103.091 10.6097 103.176 10.7457 103.278C12.669 104.626 14.534 106.025 16.3407 107.509C20.1095 110.597 23.6452 113.906 27.0837 117.284C33.9997 124.04 40.6631 131.051 48.4922 137.039C52.5524 140.144 56.9429 142.856 61.6247 145.21C66.6174 147.701 71.8627 149.799 77.0885 151.897C82.3144 153.996 87.5596 156.077 92.5718 158.568C97.5451 161.041 102.169 163.958 106.423 167.302C114.893 173.938 121.868 181.888 128.628 189.837C129.444 190.81 130.279 191.765 131.173 192.703C131.328 192.874 131.523 192.942 131.698 192.942C146.948 210.411 164.354 226.395 183.354 240.776C179.779 239.343 176.379 237.672 173.174 235.659C169.211 233.168 165.559 230.336 162.003 227.402C159.847 225.611 157.71 223.802 155.573 221.994C155.495 221.875 155.418 221.755 155.34 221.636C154.971 221.056 154.563 220.51 154.116 219.981C153.184 218.906 152.076 217.934 150.911 217.03C150.872 216.996 150.833 216.962 150.794 216.945C150.736 216.791 150.619 216.672 150.406 216.62C150.406 216.62 150.367 216.62 150.347 216.62C149.201 215.75 147.997 214.914 146.831 214.061C145.199 212.321 143.431 210.667 141.586 209.097C141.294 208.671 141.022 208.244 140.712 207.852C140.576 207.681 140.265 207.801 140.284 207.988C138.264 206.351 136.166 204.815 133.99 203.399C127.249 198.964 119.731 195.433 111.766 192.993C103.606 190.503 95.0196 189.155 86.394 189.104C77.4965 189.053 68.6378 190.281 60.1871 192.703C51.717 195.126 43.6937 198.759 36.5835 203.468C35.7093 204.048 34.8545 204.645 33.9997 205.242C33.3586 205.702 33.9609 206.555 34.6214 206.419C34.466 206.692 34.6408 207.118 35.0682 207.016C35.6316 206.88 36.1949 206.743 36.7583 206.607C42.4893 210.121 48.8418 213.004 55.3693 215.204C62.7126 217.678 70.4057 219.128 78.2736 219.316C86.7631 219.52 95.1944 218.514 103.567 217.507C111.435 216.569 119.323 215.614 127.268 215.682C134.728 215.75 142.285 216.689 149.162 219.333C149.803 219.572 150.425 219.828 151.047 220.083C152.251 221.056 153.417 222.045 154.602 223.035C154.738 223.291 154.874 223.546 155.165 223.717C155.262 223.768 155.379 223.785 155.515 223.785C156.7 224.775 157.885 225.764 159.07 226.754C166.005 232.52 173.465 238.405 182.499 241.51C183.47 241.851 184.461 242.107 185.471 242.346C208.589 259.61 233.883 274.554 260.478 287.382C259.099 287.007 257.72 286.649 256.34 286.273C250.376 284.636 244.393 283.032 238.39 281.514C230.386 279.484 222.324 277.573 214.223 275.833C209.968 274.52 205.675 273.257 201.362 272.08C192.076 269.521 182.674 267.303 173.116 265.7C164.024 264.182 154.796 263.209 145.529 263.09C136.613 262.97 127.676 263.585 118.915 265.137C110.309 266.672 101.877 269.112 94.0482 272.592C93.8345 272.643 93.6208 272.694 93.4265 272.745C91.989 273.121 90.5708 273.513 89.1332 273.922C88.4533 274.11 88.7835 275.151 89.4829 274.98L89.6966 274.929C97.3508 279.143 105.743 282.299 114.408 284.533C123.13 286.785 132.144 288.099 141.236 288.423C150.678 288.747 160.022 287.911 169.308 286.444C177.895 285.096 186.384 283.356 194.971 282.06C198.623 281.804 202.295 281.548 205.947 281.377C210.532 281.156 215.117 281.07 219.701 280.968C220.498 280.951 221.314 280.917 222.11 280.866C229.395 281.753 236.642 282.93 243.771 284.431C244.937 284.67 246.083 284.943 247.229 285.199C248.764 285.591 250.318 286 251.853 286.393C253.873 286.922 255.894 287.468 257.914 288.013C263.179 289.583 268.327 291.408 273.339 293.524C275.767 294.803 278.273 295.997 280.857 297.055C282.062 297.55 283.266 298.01 284.509 298.454C284.704 298.522 284.859 298.505 285.014 298.471C285.403 298.641 285.811 298.795 286.2 298.966C286.452 299.119 286.685 299.29 286.938 299.443C287.482 299.801 288.006 300.279 288.686 300.381C288.88 300.416 289.075 300.33 289.191 300.211C308.676 308.314 328.686 315.428 349.045 321.62C352.814 322.763 356.583 323.872 360.371 324.93C361.401 325.22 362.062 323.855 361.012 323.548L361.032 323.684ZM174.242 173.512C177.798 170.304 181.372 167.131 184.694 163.737C191.377 156.93 197.205 149.39 200.624 140.86C200.682 140.741 200.721 140.604 200.76 140.485C200.721 140.604 200.702 140.741 200.663 140.86C199.458 144.852 197.788 148.741 195.67 152.426C193.553 156.111 190.988 159.591 188.055 162.815C185.005 166.142 181.489 169.059 177.895 171.925C175.952 173.477 174.029 175.081 172.261 176.804C171.931 177.128 171.6 177.469 171.27 177.793C171.328 177.657 171.387 177.538 171.445 177.401C171.717 176.702 172.028 176.019 172.339 175.337C172.96 174.706 173.601 174.109 174.262 173.512H174.242ZM173.31 173.273C173.97 171.925 174.689 170.577 175.447 169.264C177.526 165.681 179.915 162.27 182.382 158.892C187.317 152.187 192.64 145.671 196.952 138.625C199.148 135.043 201.09 131.324 202.392 127.417C202.198 131.512 201.498 135.521 200.1 139.461C198.565 143.76 196.331 147.871 193.65 151.727C188.269 159.472 181.217 166.074 174.068 172.573C173.815 172.812 173.543 173.051 173.29 173.29L173.31 173.273ZM191.649 162.952C188.269 166.568 184.15 169.434 179.934 172.266C178.128 173.477 176.243 174.723 174.475 176.07C175.583 175.081 176.71 174.126 177.856 173.153C181.314 170.219 184.83 167.37 187.919 164.129C194 157.749 198.545 150.226 201.265 142.276C202.023 140.041 202.644 137.789 203.111 135.503C203.208 135.06 203.286 134.616 203.383 134.156C203.383 140.024 202.062 145.893 199.517 151.352C197.574 155.531 194.932 159.455 191.668 162.952H191.649ZM202.334 126.377C200.954 130.096 199.206 133.712 197.127 137.158C194.971 140.724 192.504 144.135 189.939 147.479C184.869 154.132 179.39 160.547 175.019 167.575C173.815 169.52 172.669 171.516 171.697 173.546C171.425 174.126 171.173 174.706 170.92 175.303L170.882 175.354C170.687 175.678 170.493 176.019 170.299 176.343C170.143 176.531 169.968 176.736 169.813 176.94C171.387 171.925 173.504 167.063 176.01 162.355C179.429 155.975 183.528 149.884 187.977 144.016C192.445 138.114 197.302 132.467 202.042 126.735C202.139 126.616 202.237 126.479 202.334 126.36V126.377ZM170.454 154.49C174.126 145.961 180.459 138.404 188.56 132.706C192.309 130.062 196.428 127.827 200.799 126.07C198.915 128.168 197.127 130.335 195.321 132.501C192.892 135.418 190.522 138.352 188.21 141.338C183.645 147.24 179.391 153.348 175.797 159.745C172.28 166.005 169.444 172.556 167.637 179.363C167.521 179.806 167.424 180.25 167.307 180.676C165.772 171.908 166.86 162.815 170.435 154.508L170.454 154.49ZM132.3 121.873C132.513 128.97 133.562 136.049 135.253 142.993C136.923 149.867 139.196 156.623 141.858 163.259C144.539 169.929 147.608 176.48 150.852 182.945C153.747 188.694 156.836 194.375 160.08 199.988C159.497 199.288 158.895 198.589 158.273 197.923C158.176 197.821 158.079 197.719 157.963 197.599C155.068 193.079 152.212 188.558 149.434 183.969C144.034 175.047 139.119 165.886 135.971 156.145C132.921 146.711 131.367 136.885 131.348 127.076C131.348 121.975 131.775 116.909 132.591 111.893C132.3 115.22 132.222 118.547 132.319 121.873H132.3ZM158.526 194.887C156.739 191.663 154.99 188.421 153.3 185.163C149.978 178.732 146.812 172.249 143.975 165.63C141.158 159.062 138.672 152.358 136.768 145.534C134.864 138.676 133.543 131.699 133.057 124.637C132.572 117.523 132.999 110.426 134.34 103.398C134.417 103.023 134.495 102.63 134.573 102.255C134.825 101.265 135.097 100.293 135.369 99.3207C135.369 99.3549 135.369 99.406 135.369 99.4402C134.145 105.462 133.854 111.603 134.242 117.728C134.689 124.62 135.971 131.426 137.798 138.148C139.624 144.835 141.974 151.386 144.578 157.868C147.2 164.436 150.036 170.919 152.815 177.435C154.874 182.28 156.914 187.125 158.74 192.038C159.264 194.119 159.828 196.2 160.469 198.265C159.808 197.139 159.167 196.013 158.526 194.87V194.887ZM143.703 140.809C146.656 148.656 149.862 156.452 152.251 164.453C154.31 171.311 155.651 178.288 157.166 185.248C156.428 183.44 155.69 181.632 154.932 179.841C152.193 173.358 149.318 166.91 146.617 160.41C143.917 153.91 141.372 147.36 139.352 140.689C137.351 134.088 135.835 127.349 135.097 120.542C134.514 115.066 134.514 109.522 135.175 104.046C135.175 108.362 135.641 112.678 136.438 116.926C137.992 125.063 140.731 132.979 143.684 140.792L143.703 140.809ZM135.797 93.93C135.33 95.073 134.767 96.1989 134.378 97.3589C133.99 98.519 133.621 99.679 133.291 100.856C132.591 103.296 132.008 105.752 131.523 108.226C130.551 113.122 129.988 118.086 129.794 123.067C129.425 132.945 130.532 142.873 133.193 152.477C135.933 162.372 140.401 171.737 145.685 180.762C147.997 184.719 150.444 188.626 152.931 192.516C151.532 191.151 150.114 189.803 148.754 188.421C142.382 182.024 136.807 175.03 132.358 167.473C127.929 159.984 124.626 151.966 122.955 143.641C121.304 135.435 121.265 126.974 122.955 118.768C124.102 113.173 126.083 107.731 128.842 102.596C130.338 100.447 131.931 98.3484 133.64 96.3354C134.34 95.5165 135.058 94.7147 135.797 93.9129V93.93ZM134.825 93.5035C134.825 93.5206 134.786 93.5376 134.767 93.5547C134.767 93.5376 134.806 93.5035 134.825 93.4864V93.5035ZM132.708 174.706C129.677 171.362 126.899 167.814 124.665 164.01C122.12 159.694 120.236 155.088 119.031 150.345C116.622 140.877 116.894 130.983 119.614 121.6C121.032 116.704 123.111 111.996 125.714 107.509C124.646 110.034 123.752 112.627 123.053 115.254C120.877 123.374 120.41 131.853 121.557 140.144C122.722 148.554 125.52 156.811 129.522 164.521C133.543 172.3 138.827 179.585 144.966 186.204C148.307 189.803 152.057 193.164 155.495 196.729C154.446 195.672 153.397 194.614 152.309 193.573C145.763 187.295 138.749 181.393 132.708 174.723V174.706ZM123.033 57.0308C121.324 62.9844 119.012 68.8017 116.156 74.4142C113.281 80.0437 109.862 85.4686 105.918 90.5693C103.956 93.1111 101.877 95.5677 99.6626 97.956C97.4479 100.344 95.0584 102.562 92.7466 104.865C92.3775 105.223 92.0084 105.581 91.6393 105.923C91.6393 105.786 91.6781 105.65 91.6976 105.513C97.5256 97.5295 103.14 89.4263 108.405 81.1355C111.144 76.8366 113.766 72.4694 116.195 68.034C118.623 63.5986 120.974 59.1461 122.975 54.5401C123.538 53.2607 124.082 51.9812 124.607 50.7018C124.16 52.8171 123.635 54.9325 123.033 57.0308ZM126.064 41.8821C126.005 42.4621 125.908 43.0422 125.831 43.6222C125.675 44.441 125.461 45.2599 125.209 46.0616C124.471 48.4158 123.538 50.7359 122.586 53.0218C120.702 57.5766 118.643 62.0974 116.292 66.4816C111.591 75.2671 106.151 83.7285 100.44 92.0535C97.5839 96.2159 94.6699 100.378 91.7947 104.541C91.853 104.097 91.8918 103.654 91.9501 103.21C92.3969 101.641 92.9409 100.105 93.6208 98.6042C94.7281 96.1477 96.088 93.7765 97.545 91.4394C100.595 86.5092 103.878 81.7156 106.889 76.7684C109.978 71.6847 112.97 66.5669 115.865 61.3809C118.72 56.2461 121.557 51.0771 124.16 45.8399C124.84 44.4922 125.481 43.0934 126.064 41.6604C126.064 41.7457 126.064 41.8139 126.064 41.8992V41.8821ZM126.608 29.2753L126.647 29.4629C126.705 31.9877 126.647 34.5125 126.511 37.0373C125.967 39.4938 125.034 41.9163 123.985 44.2704C121.615 49.5759 118.779 54.7277 115.962 59.8455C113.145 64.9633 110.211 70.047 107.181 75.0795C104.17 80.0608 101.022 84.9739 97.9336 89.9211C96.3212 92.5311 94.7282 95.1583 93.4654 97.9048C93.1157 98.6554 92.7855 99.4401 92.4746 100.208C92.7272 98.7919 93.0186 97.376 93.3488 95.9601C95.4469 87.3451 99.2546 79.259 104.053 71.5311C108.929 63.6327 114.544 56.0925 119.07 48.0405C122.373 42.1551 125.306 35.809 126.627 29.2582L126.608 29.2753ZM89.0944 99.3207C88.1813 95.7042 87.6956 92.0023 87.6762 88.2834C87.6568 82.0909 88.8612 75.8813 91.2896 70.0641C93.8151 64.008 97.7587 58.6173 102.266 53.5507C106.87 48.3988 111.96 43.571 116.35 38.2826C117.438 36.9861 118.487 35.6384 119.497 34.2566C116.156 40.4491 112.251 46.437 108.385 52.3565C101.664 62.6603 94.9224 73.1859 91.445 84.7521C90.0268 89.4605 89.0944 94.4077 89.0749 99.3207H89.0944ZM89.6383 101.3C89.5606 99.2696 89.58 97.2224 89.8131 95.2094C90.1434 92.2923 90.7262 89.3922 91.5421 86.5604C93.1934 80.7432 95.6801 75.1477 98.6135 69.7399C104.364 59.0949 111.804 49.2517 118.021 38.8114C121.188 33.506 123.985 28.0471 126.044 22.3493C125.714 25.8805 125.209 29.3606 124.179 32.8236C122.897 37.1567 121.032 41.3363 118.895 45.3964C114.563 53.5678 108.968 61.1591 103.956 69.0234C99.0603 76.7001 94.9418 84.6668 92.5523 93.2476C91.581 96.6936 90.9011 100.208 90.4542 103.739C90.1628 102.937 89.8909 102.118 89.6577 101.3H89.6383ZM70.6388 30.8789C71.9404 33.5401 73.1837 36.2185 74.3105 38.9309C76.5834 44.3728 78.3124 50.0024 78.9924 55.7855C80.294 67.0958 77.885 78.3719 77.8073 89.6822C77.6908 89.0681 77.5548 88.471 77.4382 87.8569C77.1468 85.5368 77.0108 83.2168 76.9137 80.8967C76.7389 76.2225 76.7 71.5482 76.564 66.874C76.2726 57.6279 75.8452 48.2452 72.97 39.272C72.1735 36.7984 71.241 34.359 70.4057 31.9025C69.9783 30.606 69.5509 29.3265 69.2012 28.0129V27.9276C69.6675 28.9171 70.1726 29.8895 70.6582 30.8789H70.6388ZM68.8127 30.9812C69.5509 33.2501 70.464 35.4678 71.2799 37.7026C72.9118 42.1551 74.0968 46.6928 74.7962 51.333C76.156 60.6303 75.8064 70.0129 76.2338 79.3614C76.2726 80.4361 76.3503 81.5108 76.4086 82.5856C76.2143 81.562 76.0006 80.5385 75.8064 79.5149C74.7379 73.8683 73.7277 68.2217 72.8341 62.558C71.9404 56.8943 71.0273 51.2306 70.2697 45.5499C69.8423 42.3598 69.4926 39.1697 69.1429 35.9796C68.9487 34.1372 68.7933 32.2777 68.599 30.4353C68.6573 30.623 68.7156 30.8107 68.7738 30.9983L68.8127 30.9812ZM67.9773 28.61C68.1327 30.7424 68.4047 32.8578 68.6184 34.9731C68.9098 37.822 69.2401 40.6709 69.5703 43.5198C70.2503 49.2517 70.8525 54.9836 71.6684 60.6985C73.3003 72.06 75.2041 83.3703 77.4965 94.6294C77.5742 95.0559 77.6713 95.4654 77.7491 95.8748C71.6102 76.1372 68.1522 55.7343 67.9385 35.2631C67.9191 33.0454 67.9385 30.8277 67.9773 28.593V28.61ZM69.8617 97.6319C65.3741 92.2753 61.1585 86.6969 58.0113 80.6238C54.9807 74.7724 52.9992 68.4776 52.8632 62.0121C52.7272 55.6831 54.3008 49.4223 56.8263 43.5369C57.5645 41.7797 58.3999 40.0738 59.2935 38.3679C57.1566 45.311 56.5738 52.6295 57.2148 59.8114C58.3222 72.1112 63.1983 83.865 69.6092 94.7659C71.4159 97.8536 73.3586 100.856 75.4178 103.824C75.6898 104.217 75.9618 104.609 76.2338 105.001C74.1162 102.545 71.9598 100.105 69.8812 97.6148L69.8617 97.6319ZM77.0108 104.404C75.1653 101.794 73.3974 99.1331 71.7073 96.4548C68.327 91.0811 65.3547 85.5198 62.9846 79.7367C58.3999 68.5628 56.2241 56.536 58.225 44.7139C58.7107 41.7968 59.4878 38.9309 60.498 36.1161C62.1881 33.1307 64.0531 30.2136 66.0346 27.3647C65.0244 29.463 64.3057 31.7148 63.7423 33.9154C63.0235 36.7132 62.5572 39.545 62.3047 42.3939C61.7802 48.1088 62.091 53.8748 62.8486 59.5726C64.3834 71.1729 67.5499 82.6709 72.1541 93.6229C73.9025 97.8195 75.9229 101.931 78.1376 105.957C77.7685 105.428 77.3799 104.916 76.9914 104.387L77.0108 104.404ZM67.9773 78.9008C64.5971 67.8122 62.3047 56.1949 62.9069 44.6969C63.0818 41.5239 63.4703 38.3508 64.1697 35.229C64.8885 32.0218 66.0346 28.9682 67.142 25.8464L67.2003 25.7611C65.7044 52.8513 70.328 80.0778 79.5752 105.906C79.6335 106.042 79.6723 106.179 79.7306 106.315C74.835 97.5295 70.8719 88.3175 67.9968 78.9008H67.9773ZM32.9507 103.483C42.2173 105.138 51.3868 107.629 59.682 111.689C68.1716 115.851 75.2624 121.72 81.2265 128.424C87.3654 135.299 92.3581 142.89 97.2925 150.447C98.3998 152.153 99.5266 153.859 100.653 155.565C95.0196 149.714 89.1721 144.033 82.9749 138.625C75.8841 132.45 68.3659 126.633 60.3231 121.43C52.533 116.38 44.2765 111.876 35.5927 108.157C28.8322 105.257 21.7996 102.818 14.5534 101.044C20.7311 101.692 26.8895 102.408 32.9895 103.5L32.9507 103.483ZM82.159 152.426C71.8433 148.247 61.3139 144.391 52.3193 138.165C44.1405 132.501 37.3023 125.558 30.3669 118.802C27.822 116.329 25.2576 113.838 22.5767 111.433C23.5286 112.064 24.4611 112.712 25.413 113.343C31.0662 117.165 36.7 120.986 42.3533 124.807C53.6209 132.467 65.005 140.007 76.3503 147.598C79.4975 149.697 82.6252 151.812 85.7724 153.91C84.5873 153.399 83.3828 152.904 82.1784 152.426H82.159ZM90.26 155.889C89.3469 155.275 88.4533 154.678 87.5402 154.064C84.7039 152.17 81.8676 150.26 79.0312 148.366C73.3586 144.562 67.7054 140.775 62.0327 136.971C50.6874 129.379 39.3227 121.839 27.9579 114.265C24.9662 112.286 21.9939 110.29 19.0022 108.311C15.7579 105.599 12.3387 103.04 8.64762 100.788C15.8356 104.456 23.1207 107.953 30.2697 111.672C37.7685 115.578 45.1313 119.69 52.1638 124.227C59.0992 128.697 65.6072 133.559 71.7656 138.813C77.8462 143.965 83.6743 149.339 89.9686 154.303C91.8918 155.821 93.8734 157.305 95.9132 158.721C94.0676 157.732 92.1832 156.793 90.26 155.906V155.889ZM103.431 162.355C99.9346 160.308 96.5931 158.09 93.4071 155.702C86.9185 150.874 80.9545 145.517 74.8933 140.28C68.735 134.975 62.363 129.925 55.4858 125.353C48.4727 120.696 41.0905 116.499 33.5529 112.525C26.0735 108.584 18.4388 104.848 10.7069 101.266C10.2406 101.061 9.79381 100.856 9.32757 100.634C17.0983 102.46 24.6748 104.865 31.9599 107.85C40.7214 111.433 49.0361 115.817 56.8846 120.747C64.9079 125.797 72.4261 131.426 79.4975 137.448C86.8797 143.743 93.7957 150.464 100.381 157.408C102.479 159.625 104.539 161.86 106.579 164.112C106.676 164.231 106.773 164.351 106.851 164.487C105.743 163.72 104.578 163.037 103.431 162.355ZM38.2542 206.334C43.0526 205.105 47.7928 203.706 52.6301 202.581C58.497 201.216 64.4611 200.141 70.464 199.408C81.9841 198.009 93.718 197.94 105.199 199.698C115.981 201.352 126.549 204.594 135.874 209.677C138.536 211.127 141.022 212.731 143.451 214.437C143.528 214.522 143.606 214.59 143.684 214.676C141.916 214.181 140.129 213.72 138.322 213.294C134.709 212.407 131.076 211.605 127.404 210.923C120.119 209.541 112.717 208.603 105.316 208.022C97.9336 207.442 90.4931 207.238 83.072 207.442C75.8064 207.647 68.5796 208.347 61.3139 208.671C53.6209 209.029 45.9667 208.671 38.6233 206.538C38.4873 206.47 38.3708 206.402 38.2348 206.334H38.2542ZM142.946 212.151C143.023 212.236 143.121 212.321 143.198 212.407C143.082 212.321 142.946 212.236 142.829 212.151C142.46 211.793 142.091 211.434 141.722 211.076C142.13 211.434 142.538 211.776 142.946 212.134V212.151ZM41.2459 207.937C46.6855 209.404 52.5135 209.677 58.1473 209.558C65.3741 209.404 72.5621 208.62 79.7889 208.33C94.6893 207.767 109.726 208.91 124.335 211.554C128.453 212.304 132.533 213.14 136.574 214.113C136.69 214.147 136.807 214.164 136.904 214.198C134.029 213.789 131.154 213.43 128.278 213.106C120.857 212.304 113.378 211.98 105.918 211.912C98.3804 211.844 90.8622 212.253 83.344 212.714C75.9035 213.174 68.3853 213.498 60.9448 212.85C54.7476 212.304 48.5893 211.042 42.9166 208.756C42.3533 208.466 41.7899 208.193 41.2265 207.903L41.2459 207.937ZM83.208 190.571C91.717 190.332 100.265 191.339 108.385 193.539C115.282 195.399 121.887 198.094 127.968 201.472C122.101 198.742 115.651 197.036 109.221 195.706C100.789 193.966 92.1055 192.959 83.4411 192.925C75.2624 192.891 67.0643 193.727 59.1575 195.569C54.5922 196.627 50.1435 198.043 45.8695 199.817C49.6189 197.94 53.5237 196.337 57.5645 195.006C65.7627 192.328 74.4465 190.827 83.1886 190.571H83.208ZM36.3892 205.378C37.2246 204.798 38.0988 204.235 38.9536 203.689C41.1877 202.495 43.48 201.369 45.8501 200.397C49.3275 198.947 52.9215 197.736 56.5932 196.763C64.3056 194.699 72.3484 193.676 80.3911 193.59C88.9001 193.505 97.3896 194.375 105.704 195.979C113.514 197.497 121.46 199.425 128.473 202.888C131.814 204.542 134.786 206.624 137.526 208.91C128.842 204.048 119.128 200.738 109.085 198.845C97.7782 196.712 86.0832 196.405 74.5825 197.48C68.5019 198.043 62.4795 198.981 56.5155 200.209C50.5903 201.438 44.6651 202.888 38.973 204.798C38.2348 205.054 37.4965 205.31 36.7583 205.583C36.6223 205.515 36.5058 205.447 36.3698 205.395L36.3892 205.378ZM107.802 215.784C99.3906 216.791 90.9788 218.002 82.4698 218.19C74.4271 218.377 66.5009 217.405 58.8661 215.153C55.1556 214.061 51.5616 212.714 48.0453 211.195C58.0502 214.147 69.1818 214.096 79.614 213.584C87.3071 213.209 94.9613 212.68 102.674 212.697C110.192 212.697 117.652 213.208 125.112 213.976C126.549 214.13 127.968 214.3 129.386 214.488C122.159 214.283 114.952 214.949 107.783 215.802L107.802 215.784ZM276.661 293.268C276.661 293.268 276.7 293.268 276.719 293.268C276.758 293.285 276.797 293.319 276.836 293.336C276.777 293.319 276.719 293.285 276.661 293.268ZM267.958 288.474C267.958 288.474 267.958 288.389 267.958 288.355C267.958 288.269 267.919 288.184 267.899 288.099C268.074 288.338 268.249 288.576 268.443 288.798C268.268 288.696 268.113 288.593 267.958 288.474ZM245.52 215.409C249.813 223.939 253.426 232.741 256.321 241.697C259.216 250.654 261.372 259.797 262.79 269.026C262.926 269.879 263.023 270.732 263.14 271.585C262.732 270.255 262.343 268.924 261.935 267.594C259.837 260.685 257.681 253.81 255.369 246.952C253.057 240.111 250.609 233.321 247.987 226.566C245.345 219.81 242.508 213.106 239.4 206.504C237.574 202.615 235.631 198.759 233.592 194.938C238.021 201.54 242.003 208.381 245.52 215.392V215.409ZM230.6 190.605C230.697 190.741 230.794 190.895 230.891 191.031C233.261 195.399 235.534 199.817 237.652 204.287C240.779 210.854 243.616 217.507 246.277 224.229C248.939 230.967 251.387 237.774 253.679 244.615C255.991 251.49 258.186 258.416 260.284 265.342C261.508 269.385 262.712 273.445 263.897 277.505C264.208 279.501 264.636 281.48 265.335 283.407C265.568 284.073 265.879 284.738 266.209 285.386C266.268 285.625 266.345 285.847 266.404 286.086C266.578 286.683 266.773 287.28 266.986 287.86C262.304 284.738 258.574 280.507 255.894 275.867C250.959 267.321 249.56 257.631 248.259 248.231C247.598 243.42 246.918 238.627 245.928 233.867C244.976 229.278 243.791 224.706 242.392 220.203C239.614 211.23 235.981 202.461 231.552 194C229.939 190.929 228.23 187.91 226.404 184.941C227.841 186.818 229.24 188.711 230.6 190.622V190.605ZM215.622 172.01C217.409 174.45 219.216 176.872 220.906 179.363C223.645 183.423 226.19 187.585 228.541 191.833C233.184 200.278 237.03 209.063 240.002 218.087C243.052 227.299 245.015 236.716 246.355 246.235C247.695 255.788 248.861 265.683 253.485 274.537C253.698 274.946 253.951 275.373 254.184 275.782C253.97 275.492 253.776 275.202 253.562 274.912C251.134 271.415 248.88 267.815 246.802 264.148C242.644 256.812 239.225 249.187 236.544 241.339C233.941 233.68 232.173 225.849 230.503 218.002C228.851 210.206 227.2 202.393 224.908 194.733C222.79 187.705 220.051 180.728 216.068 174.33C215.952 173.989 215.835 173.648 215.699 173.324C215.525 172.863 215.33 172.42 215.117 171.959C215.019 171.686 214.922 171.413 214.825 171.157C215.097 171.447 215.35 171.737 215.622 172.027V172.01ZM216.904 176.821C219.643 181.871 221.78 187.159 223.47 192.567C225.86 200.192 227.453 208.005 229.046 215.784C230.658 223.649 232.329 231.53 234.777 239.241C237.263 247.105 240.507 254.765 244.432 262.169C244.879 263.005 245.325 263.823 245.792 264.642C242.508 259.03 239.594 253.247 236.991 247.361C233.902 240.367 231.299 233.219 229.007 225.986C226.598 218.36 224.519 210.667 222.654 202.939C221.119 196.61 219.798 190.247 218.38 183.901C218.108 181.512 217.584 179.141 216.904 176.821ZM239.128 261.077C233.048 252.223 228.541 242.55 225.374 232.605C222.188 222.574 220.362 212.236 219.526 201.847C219.196 197.736 219.002 193.573 218.613 189.428C218.613 188.865 218.613 188.319 218.613 187.756C219.468 191.953 220.362 196.149 221.314 200.346C223.082 208.159 225.005 215.955 227.317 223.666C229.492 230.933 231.999 238.132 234.913 245.195C237.749 252.035 240.993 258.74 244.781 265.205C246.938 268.907 249.269 272.541 251.775 276.072C247.016 271.449 242.78 266.399 239.109 261.06L239.128 261.077ZM261.255 286.12C261.119 286.052 260.964 285.983 260.828 285.915C260.867 285.915 260.906 285.915 260.945 285.898C261.042 285.966 261.139 286.052 261.255 286.137V286.12ZM260.284 285.574L260.401 285.693C260.401 285.693 260.323 285.659 260.265 285.625C260.265 285.608 260.265 285.591 260.284 285.574ZM103.703 272.831C107.88 272.353 112.076 271.961 116.273 271.637C124.723 270.988 133.213 270.681 141.702 270.698C150.134 270.698 158.584 271.039 166.977 271.688C175.389 272.336 183.742 273.291 192.076 274.537C199.789 275.697 207.423 277.147 215 278.818C213.329 278.818 211.678 278.887 210.027 278.989C198.74 278.238 187.453 277.897 176.127 277.812C162.683 277.727 149.24 277.88 135.816 277.658C122.489 277.437 109.143 276.84 95.9132 275.253C95.0001 275.151 94.0871 275.031 93.174 274.929C93.038 274.861 92.8826 274.81 92.7466 274.741C93.1546 274.537 93.582 274.349 93.9899 274.161C97.2148 273.684 100.459 273.223 103.703 272.848V272.831ZM203.422 279.518C201.071 279.501 198.72 279.484 196.389 279.484C187.608 279.484 178.827 279.671 170.066 280.03C161.265 280.388 152.465 281.019 143.664 281.463C135.058 281.906 126.433 282.094 117.866 281.207C110.134 280.405 102.46 278.767 95.4081 275.85C107.064 277.403 118.915 278.017 130.668 278.307C143.975 278.648 157.283 278.528 170.59 278.58C181.819 278.614 193.067 278.784 204.296 279.45C204.004 279.484 203.713 279.518 203.422 279.535V279.518ZM92.8437 275.492C93.174 275.543 93.5043 275.577 93.8151 275.628C100.129 278.648 107.239 280.354 114.31 281.326C122.625 282.469 131.095 282.589 139.488 282.316C148.385 282.026 157.263 281.394 166.18 281.036C175.117 280.678 184.053 280.507 192.989 280.49C193.922 280.49 194.854 280.49 195.806 280.49C193.203 280.883 190.6 281.309 188.016 281.753C181.625 282.282 175.233 282.862 168.822 283.339C160.216 283.987 151.591 284.431 142.946 284.363C134.786 284.312 126.608 283.8 118.584 282.554C110.503 281.292 102.674 279.279 95.1361 276.396C94.3785 276.106 93.6014 275.799 92.8632 275.475L92.8437 275.492ZM215.602 277.693C216.923 278.085 218.225 278.477 219.546 278.887C218.788 278.853 218.031 278.836 217.254 278.818C210.066 277.01 202.703 275.663 195.379 274.434C187.045 273.052 178.633 272.029 170.202 271.295C161.731 270.562 153.203 270.152 144.694 270.067C136.263 269.982 127.832 270.204 119.42 270.732C114.582 271.022 109.765 271.449 104.966 271.944C111.571 270.835 118.235 269.999 124.937 269.504C137.02 268.617 149.201 268.719 161.285 269.555C173.426 270.391 185.491 271.995 197.419 274.093C203.499 275.168 209.56 276.379 215.602 277.676V277.693ZM116.078 267.065C124.665 265.308 133.504 264.489 142.324 264.438C151.416 264.386 160.488 265.154 169.444 266.502C178.944 267.935 188.307 270.016 197.555 272.455C198.312 272.66 199.051 272.882 199.808 273.087C188.463 271.022 177.02 269.385 165.481 268.429C153.417 267.423 141.275 267.133 129.191 267.798C123.091 268.122 117.011 268.702 110.969 269.538C107.958 269.965 104.947 270.425 101.936 270.988C106.52 269.385 111.26 268.071 116.078 267.082V267.065ZM145.277 287.28C136.224 287.28 127.152 286.256 118.371 284.295C113.922 283.305 109.551 282.06 105.277 280.576C103.839 280.081 102.421 279.535 101.003 278.972C105.607 280.473 110.367 281.65 115.165 282.52C123.189 283.987 131.367 284.721 139.546 284.96C148.016 285.216 156.486 284.909 164.937 284.397C169.541 284.107 174.145 283.766 178.749 283.407C177.001 283.732 175.233 284.039 173.465 284.346C164.16 285.949 154.777 287.263 145.257 287.28H145.277Z" fill="#272727"/>
</svg>
