<svg width="505" height="690" viewBox="0 0 505 690" fill="none" xmlns="http://www.w3.org/2000/svg">
<path d="M175.6 29.8706C166.8 60.1373 164.133 70.404 156 105.337L151.733 123.871L147.867 117.737L144 111.471L146.8 99.8706C149.067 90.5373 149.6 85.0706 149.2 73.4706C148.933 65.3373 148.8 48.1373 148.8 35.204C148.8 22.1373 148.8 11.604 148.533 11.8706C148.4 12.004 146.4 21.0706 144 32.1373C139.2 54.404 137.6 76.9373 139.6 94.404C140.267 100.137 140.667 104.804 140.4 104.804C140.267 104.804 139.067 103.337 137.867 101.471C136.133 98.804 135.333 93.204 134.667 78.404C133.6 57.0706 133.733 57.4706 121.6 34.804C118.4 28.9373 117.067 24.2706 116.4 17.4706C115.2 5.60398 113.6 10.004 113.467 25.4706C113.333 39.204 115.2 50.6706 120 64.804C122 71.0706 123.6 76.2706 123.467 76.404C123.333 76.5373 118.533 72.404 112.667 67.204C102.8 58.6706 57.2 26.004 56.2667 26.804C55.4667 27.4706 82.8 62.1373 91.2 71.0706C99.2 79.7373 112.267 88.6706 125.6 94.804C132.667 98.004 140 104.537 140 107.604C140 108.404 137.467 107.204 134.267 104.937C123.733 97.7373 112.667 92.9373 98.5333 89.4706C84.2667 86.004 62.6667 82.1373 58 82.1373C54.9333 82.2706 100.133 102.004 114 106.671C119.2 108.404 127.867 110.937 133.467 112.137L143.6 114.537L148.4 124.271C151.067 129.737 152.933 134.137 152.533 134.137C152.133 134.137 142.533 129.071 131.2 122.804C119.867 116.537 106.667 109.871 101.867 108.004C92.9333 104.671 34.8 89.4706 34 90.404C33.6 90.804 67.6 106.537 98 119.871C104.667 122.804 120.4 128.937 133.2 133.471C156.133 141.737 159.733 143.871 160 149.604C160 150.537 152.667 147.871 143.733 143.871C120.4 133.471 114.133 131.737 88.8 128.004C63.7333 124.271 52.2667 120.671 25.4667 108.004C17.0667 104.004 9.86667 100.804 9.46667 100.804C9.06667 100.804 12.9333 103.871 18 107.604C30 116.271 44.1333 123.471 60.8 129.204C68 131.737 80 136.937 87.3333 140.671C106.133 150.404 132.267 157.737 156.533 160.271L165.2 161.204L168 167.737C169.6 171.471 170.533 174.671 170.267 175.071C169.867 175.337 156.133 171.204 139.733 165.604C106 154.271 91.2 150.937 65.3333 148.804C55.4667 148.004 38.4 146.404 27.4667 145.337C5.73333 143.337 4.66667 143.204 5.46667 144.004C5.73333 144.271 19.2 148.004 35.3333 152.137C51.4667 156.271 70.9333 161.337 78.6667 163.471C100.533 169.337 126.667 174.937 150.667 178.804C162.8 180.804 173.333 183.071 174.133 184.004C175.867 185.737 184.533 207.337 183.867 208.004C183.6 208.271 169.6 202.271 152.667 194.671C135.867 187.071 115.733 178.804 108 176.271C95.8667 172.271 5.73333 153.204 4.66667 154.404C4 155.071 76 181.337 111.333 193.337C128.933 199.337 153.333 206.937 165.6 210.137C185.733 215.471 188.133 216.404 189.2 219.471C189.867 221.337 192 226.804 193.867 231.737L197.2 240.671L189.6 237.204C185.467 235.204 171.867 228.671 159.6 222.537C121.6 203.737 113.2 200.804 70.6667 191.471C54.1333 187.871 33.8667 183.337 25.4667 181.471C17.2 179.604 10.1333 178.137 9.86667 178.404C9.6 178.671 15.2 181.204 22.4 184.004C29.4667 186.804 49.2 194.804 66 201.737C114 221.471 132.933 228.404 168 239.337L200.667 249.604L205.2 261.871C207.6 268.671 209.467 274.537 209.067 274.804C208.8 275.204 188.4 267.071 163.867 256.804C120.8 238.937 118.667 238.271 100 234.937C79.6 231.471 71.2 228.537 30 210.137C3.33333 198.271 0 196.804 0 197.337C0 197.604 4.4 200.404 9.73333 203.471C14.9333 206.671 23.6 212.004 28.6667 215.471C41.3333 224.004 55.3333 231.471 71.8667 238.804C79.6 242.137 87.6 246.271 89.8667 248.004C98.1333 254.271 112.4 262.271 124.4 267.471C138.933 273.604 154.533 277.604 187.333 283.337C200.533 285.737 212.133 288.004 213.2 288.537C214.133 289.071 216.667 294.137 218.8 299.871C222.533 310.271 222.533 310.271 219.6 309.337C218 308.937 196 300.804 170.667 291.471C124.267 274.404 118.933 272.804 82.6667 266.804C75.7333 265.604 57.2 262.004 41.4667 258.671C25.7333 255.471 12.6667 252.937 12.4 253.337C12.1333 253.604 14.5333 254.404 17.8667 255.337C28.5333 258.004 65.7333 270.404 78.8 275.604C85.8667 278.404 97.8667 284.671 105.467 289.604C133.2 307.871 149.467 312.804 223.6 325.471C227.467 326.137 228 326.937 231.2 336.404C233.067 342.004 234.533 346.804 234.267 346.937C234 347.204 228.267 345.604 221.333 343.471C201.067 337.071 176.267 330.537 164 328.271C157.733 327.204 137.867 325.604 119.867 324.804C93.0667 323.737 85.3333 322.937 77.8667 320.671C64.8 316.671 46.5333 307.471 32 297.604C25.0667 292.804 19.0667 289.204 18.8 289.604C16.6667 291.737 44.9333 314.937 59.7333 323.204C74.4 331.337 84.5333 334.004 108 336.271C134.4 338.804 145.333 341.604 159.333 349.604C169.067 355.204 180 356.937 210.133 357.737L238.4 358.537L243.333 373.737C246 382.137 248 389.471 247.733 390.137C247.333 391.071 238.267 387.871 176.4 364.937C142.4 352.404 127.733 349.737 70.6667 345.604C46.8 344.004 27.0667 342.804 26.8 342.937C26.1333 343.471 26.4 343.604 50.2667 349.337C74.8 355.204 97.8667 362.671 130 375.071C176.933 393.337 181.733 394.537 226.4 399.604C240.133 401.071 251.733 402.804 252.133 403.204C253.2 404.537 258.933 424.937 258.4 425.604C258.133 425.871 234.8 417.337 206.667 406.804C149.333 385.071 149.6 385.204 117.333 379.471C104.533 377.204 78.6667 372.137 60.1333 368.137C41.4667 364.137 25.4667 360.804 24.8 360.804C24 360.937 31.2 363.337 40.6667 366.271C84.5333 379.604 111.867 390.537 127.867 401.204C159.333 422.271 176.133 428.137 237.333 439.337L264.533 444.271L268.133 456.537C270.133 463.337 271.467 468.804 271.2 468.804C270.933 468.804 262.533 465.071 252.4 460.671C224.667 448.271 215.733 445.337 190.533 440.271C147.333 431.471 145.333 431.337 86 430.804C51.4667 430.404 33.0667 430.671 36 431.471C38.5333 432.137 47.6 433.071 56 433.471C83.8667 434.937 106.933 441.204 142.133 456.804C171.733 470.004 199.333 476.004 262.4 483.471C277.467 485.337 277.333 485.204 279.333 495.871L280.267 500.537L268.4 498.004C262 496.537 245.867 492.671 232.667 489.471C196.8 480.671 188.133 479.471 150.667 478.137C132 477.471 106.8 475.737 94.6667 474.137C73.2 471.471 35.0667 465.604 28.1333 463.871C26.2667 463.471 24.9333 463.471 25.3333 463.871C26.5333 465.071 72.9333 478.937 82 480.804C92.8 482.937 113.733 488.937 132.133 495.337C174.4 509.871 195.467 513.204 255.333 514.804C271.467 515.337 284.8 515.871 285.067 516.137C285.467 516.404 292 539.471 292 540.404C292 540.537 287.733 538.937 282.533 536.804C277.333 534.537 267.467 531.071 260.533 528.804L248 524.804H209.6C169.067 524.804 144.8 526.404 98.6667 532.137C60.4 536.937 58.8 537.871 87.7333 538.004C110.667 538.137 120.133 539.071 151.333 544.137C164.133 546.271 241.733 550.137 270.533 550.137C295.2 550.137 295.067 550.137 297.6 559.604C299.2 565.737 299.333 567.471 298 567.471C297.067 567.471 286.533 565.071 274.533 562.004C253.067 556.671 252.4 556.537 233.333 557.071C211.2 557.737 207.333 558.804 188.933 570.004C178.133 576.537 150.667 596.537 142 604.137L138 607.737L142.667 605.071C145.2 603.604 156.667 596.937 168 590.271C196.267 573.604 200 572.271 217.333 572.271C228 572.271 234.133 573.071 243.333 575.604C254 578.404 258 578.804 279.067 578.804H302.8L304.133 584.137C304.933 587.071 306 591.604 306.8 594.137C307.467 596.671 308 599.204 308 599.604C308 600.004 303.333 599.604 297.733 598.671C281.6 596.004 254.8 596.404 241.067 599.471C226 602.804 222.933 604.537 214.4 614.404C205.067 625.204 202.8 627.604 198 631.204L194 634.271L199.6 631.471C216 623.604 232.667 619.471 248.933 619.471C255.867 619.471 269.2 617.737 284.8 614.804C298.533 612.137 310.133 610.537 310.667 611.071C311.733 612.271 323.733 661.204 327.333 678.804C328.533 684.671 329.733 689.604 330 689.871C330.8 690.671 340 675.871 340 673.737C340 672.137 317.6 594.271 315.2 587.604C314.667 586.004 318.533 585.871 340.4 586.537C359.733 587.204 370.4 586.937 382.4 585.471C414.8 581.471 416.533 580.937 451.733 563.604C469.467 554.804 484 547.204 484 546.671C484 546.271 482.933 546.271 481.733 546.804C470.267 551.204 417.467 566.671 410.667 567.604C405.867 568.271 390.667 568.804 376.667 568.804C353.867 568.804 349.467 569.204 332 572.804C321.333 574.937 312.533 576.804 312.4 576.804C311.867 576.804 308 563.071 308 561.204C308 560.271 325.867 550.537 347.733 539.604C369.467 528.671 392 516.671 397.6 512.937C403.467 509.071 419.067 495.737 433.733 481.871C447.867 468.404 468.667 449.071 480 438.937C511.067 411.071 511.733 410.004 487.333 429.337C471.733 441.604 454.667 451.071 424.8 464.004C399.067 475.071 386.667 483.471 334.4 525.604L304.133 550.004L301.333 540.404C299.733 535.071 298 529.071 297.2 526.937C296.533 524.804 296 522.937 296 522.671C296 522.271 331.467 500.271 350.667 488.804C379.333 471.737 399.6 455.871 410.667 442.137C421.067 429.071 457.333 379.737 457.333 378.537C457.333 378.004 444 390.804 427.733 407.071L398 436.537L368 451.071C333.867 467.604 325.333 473.737 305.067 495.604C298.4 502.804 292.533 508.537 292.133 508.137C291.067 507.071 282.8 479.204 282.667 476.671C282.667 474.404 302.667 464.671 334 451.471C350.133 444.671 370.267 434.404 379.333 428.404C383.067 426.004 395.867 415.337 408 404.804C420.133 394.137 439.867 377.337 451.867 367.471C481.733 342.937 484.667 340.137 466.667 352.937C449.6 365.204 431.6 374.137 402.267 385.337C374.133 396.004 359.333 404.937 307.867 442.937C292.4 454.271 279.333 463.204 278.8 462.804C277.6 462.137 274 450.271 274.8 449.737C276.667 448.404 312.533 426.404 325.333 418.804C347.067 405.871 366.133 392.937 374.4 385.471C378.267 382.004 386.933 372.804 393.6 364.937C411.733 344.004 434.4 318.671 454.4 297.204C464.133 286.671 471.867 278.137 471.467 278.137C470.933 278.137 463.867 284.537 455.6 292.537C436.933 310.404 420.533 321.337 384.667 339.871C363.6 350.804 348.133 363.471 301.067 408.937L270.8 438.137L267.467 427.071C265.6 420.937 263.867 414.671 263.733 413.071C263.467 410.937 268 407.204 287.333 394.137C316 374.671 316.533 374.137 348.133 346.004C361.867 333.737 376.8 321.071 381.467 317.871C391.867 310.537 423.6 291.471 447.6 278.137C457.333 272.671 465.067 268.137 464.933 267.871C463.467 266.404 334.267 330.271 321.333 338.804C308 347.604 279.333 378.937 265.733 399.737C263.867 402.537 262 404.804 261.467 404.804C260.667 404.804 252 376.004 252 373.204C252 372.404 260.533 365.471 271.067 358.004C338.4 309.471 349.467 297.871 380.933 243.737C402.533 206.671 420.267 172.804 418.133 172.804C417.867 172.804 410.533 182.804 401.867 195.071C389.867 211.871 380.8 222.671 364.667 239.471C352.933 251.604 335.733 270.137 326.533 280.804C311.333 298.271 250.4 359.471 248.133 359.471C247.2 359.471 239.467 336.804 240.267 336.271C243.067 334.137 306.533 282.937 316 275.071C331.733 261.871 348.933 243.204 357.067 230.404C360.533 225.071 372.8 206.137 384.533 188.404C396.133 170.671 407.2 153.737 409.067 150.804L412.4 145.471L409.2 148.137C407.467 149.471 395.867 160.671 383.333 172.804C370.933 184.937 346.533 208.537 329.2 225.204C296.4 256.671 282.4 271.737 254.667 305.471C245.733 316.404 237.867 325.604 237.2 325.871C236.667 326.137 234.533 321.204 232.533 315.071L228.933 303.871L256.267 271.337C304.667 213.604 307.6 209.071 326.4 166.804C332.933 152.137 342.667 130.537 348 118.804C363.067 85.4706 363.2 85.7373 346.667 109.471C340.533 118.271 323.067 142.937 307.867 164.271C275.6 209.471 263.733 227.737 244.4 261.871C236.667 275.604 229.2 288.537 228 290.537L225.733 294.404L219.733 278.004L213.733 261.737L238.8 230.137C275.2 184.137 274.933 184.537 299.867 126.271C308.8 105.471 316.4 87.8706 316.8 87.204C317.2 86.6706 317.2 86.1373 316.8 86.1373C315.733 86.1373 252.133 181.204 243.067 196.137C238.667 203.471 229.733 219.204 223.333 231.204C216.933 243.204 211.2 252.537 210.533 251.871C209.333 250.671 201.333 230.671 201.333 228.937C201.333 228.271 212.533 211.071 226.133 190.537C239.867 170.137 252.133 150.804 253.6 147.471C255.067 144.137 259.2 132.137 262.933 120.804C266.667 109.471 273.733 88.6706 278.8 74.5373C283.867 60.5373 288 48.5373 288 47.8706C288 47.3373 284.533 54.2706 280.267 63.4706C269.067 87.604 259.067 105.071 241.467 131.604C224.267 157.337 214.4 175.737 204.667 200.137C201.067 208.937 197.867 216.537 197.333 217.071C196.667 218.004 186.667 196.271 186.667 193.871C186.667 193.337 194.4 178.404 204 160.537C218.667 132.937 221.867 125.871 225.467 112.804C227.733 104.404 233.2 84.9373 237.467 69.604C241.867 54.2706 245.067 41.4706 244.8 41.204C244.533 40.9373 243.067 44.5373 241.333 49.0706C235.333 66.004 227.333 83.4706 211.467 114.804C196.4 144.271 193.867 150.537 183.067 183.471C182.533 185.204 174.667 170.271 174.667 167.337C174.667 166.804 183.6 150.004 194.533 130.137C207.467 106.671 214.667 92.1373 215.2 88.404C215.733 85.3373 220.133 69.0706 225.2 52.404C230.133 35.7373 233.867 22.5373 233.333 23.0706C230.4 26.404 198 97.604 187.2 124.537C180.267 141.871 174 157.604 173.2 159.471C171.733 162.671 171.6 162.537 167.2 153.871L162.8 145.071L176.8 114.537C186.667 93.3373 191.733 80.6706 193.467 72.804C194.8 66.5373 198.4 52.1373 201.2 40.804C204.133 29.4706 206.4 20.1373 206.267 19.8706C205.333 19.0706 177.867 91.3373 170.667 113.471C166.133 127.337 161.867 139.204 161.467 139.871C160.933 140.404 159.067 137.871 157.333 134.271L154.267 127.604L161.733 111.204C174.4 82.9373 177.467 72.9373 178.667 54.804C179.333 46.004 181.067 30.1373 182.667 19.7373C184.267 9.20398 185.333 0.270647 184.933 0.00397992C184.667 -0.262687 180.533 13.0706 175.6 29.8706Z" fill="#597765"/>
</svg>
