<svg width="1707" height="850" viewBox="0 0 1707 850" fill="none" xmlns="http://www.w3.org/2000/svg">
<path d="M413.467 6.00025C389.6 11.4669 372 20.4003 356.133 35.3336C319.867 69.3336 308.133 134.8 327.6 194C336.933 222.534 348.667 241.067 371.067 263.334C400.4 292.4 437.333 313.734 488 330.934C507.6 337.467 500.4 336.267 471.067 328C420 313.467 376.533 294 335.333 266.934C318.133 255.734 308.667 248.667 272.667 220.534C262.4 212.534 250.4 203.6 246 200.8C241.6 197.867 237.733 195.467 237.6 195.2C237.333 195.067 238.667 190.267 240.667 184.534C243.733 175.6 244.133 172.534 243.733 162C243.333 151.2 242.8 148.8 238.4 139.867C235.2 133.6 227.733 123.2 217.867 111.467C188.933 76.8002 185.2 70.9336 183.333 58.4002C182.8 54.9336 181.6 51.0669 180.667 49.8669C179.2 47.7336 178.8 47.8669 176.667 51.2002C174.533 54.5336 174.133 58.2669 174.133 83.0669C174 108.667 174.267 112.267 177.067 121.734C182.667 141.2 194.4 160.8 210.4 177.6C214.4 181.867 217.067 185.334 216.267 185.334C215.467 185.334 208.667 183.867 201.067 182C183.867 177.734 166.8 176.534 151.333 178.534C144.8 179.467 138.4 180.4 137.2 180.8C135.333 181.334 135.067 179.334 135.067 165.067C135.067 147.2 133.467 140.667 127.067 132.267C120.667 123.867 104.667 119.467 101.067 125.334C99.4666 127.734 99.3333 127.734 97.7333 124C96.5333 121.067 95.2 120 92.6666 120C90.4 120 88.8 118.934 87.7333 116.667C86 112.8 82 112.267 80.1333 115.6C79.0666 117.6 78.4 117.734 76.1333 116.267C71.6 113.6 70.6666 114.4 70.6666 120.534C70.6666 123.867 70 126.934 69.3333 127.334C67.3333 128.534 67.7333 132.134 70.1333 134C71.8666 135.2 72.4 138.134 72.5333 147.2C72.6666 154.934 73.2 159.067 74.4 159.867C75.6 160.534 75.2 161.6 72.8 163.867C70.1333 166.4 69.8666 167.467 70.6666 171.6C72.5333 179.867 80.8 186.134 93.8666 189.467L100 190.934L89.8666 195.467C80.8 199.334 73.7333 203.467 80.6666 200.667C96.2666 194.667 108.933 190.667 113.067 190.667C115.733 190.667 121.867 189.467 126.667 187.867C132.933 185.867 140.267 184.934 153.333 184.534L171.333 183.867L162 188.4C149.2 194.667 142.133 200.134 138.267 206.934C133.467 215.2 132.8 220.134 135.333 228.667C137.067 235.067 137.867 236 140.667 236C144.4 236 145.067 238 141.867 239.2C140.133 239.867 139.867 241.067 140.667 244.8C141.333 248.4 140.933 250.267 139.2 252.134C136.533 255.067 137.6 258.667 141.333 258.667C143.467 258.667 144 259.6 144 262.667C144 267.2 145.067 267.467 150.8 264.667C152.933 263.467 155.333 262.934 156 263.334C158.267 264.8 162.667 262.534 162.667 260.134C162.667 258.4 165.733 256.134 172.667 252.8C178.133 250.134 183.067 246.934 183.867 245.6C184.933 243.734 185.733 243.6 189.067 244.8C192.533 246.134 193.467 245.867 197.067 242.534C202.533 237.467 204.533 230.8 203.6 220.8C202.533 210.134 198.133 198.8 192.4 192C189.733 188.934 187.867 186.267 188.267 186C188.533 185.734 194.133 186.667 200.667 188.134C223.6 193.067 243.6 204.8 310.267 252.134C391.867 310 407.867 318.134 467.333 332.8C517.067 344.934 558.8 350.4 664 358.667C799.6 369.2 818.133 371.867 928 396.667C1012.13 415.734 1039.73 421.067 1033.33 417.467C1026.27 413.334 903.467 382.134 860.267 373.467C812.133 363.734 774.4 358.667 692 350.667C630.267 344.667 603.467 341.467 574 336.534C477.6 320.4 415.6 293.467 372.533 249.2C360.267 236.534 354.133 227.467 345.867 210.134C324.267 164.534 319.467 114.667 333.333 78.9336C344.933 48.9336 371.2 26.5336 406 17.2003C419.733 13.4669 447.6 13.0669 462.267 16.4003C501.6 25.3336 534.667 50.6669 550.133 83.3336C568.133 121.6 561.733 159.734 532.133 191.2C524.533 199.067 522.533 201.734 526.267 198.934C533.733 193.067 544.8 180.8 550.4 172.134C565.6 148.534 568.133 116.4 557.333 88.0002C542.667 50.2669 507.333 18.8003 467.333 8.00025C453.467 4.13359 425.867 3.20025 413.467 6.00025Z" fill="#597765"/>
<path d="M988 159.6C950.933 165.733 924.4 198.8 918.4 246C913.6 283.467 931.2 323.867 969.2 363.067C997.6 392.267 1021.87 409.6 1078.67 440.667C1108.67 457.067 1138.67 474.4 1138.67 475.333C1138.67 475.6 1128.93 471.067 1117.07 465.333C1041.87 429.067 976.267 419.333 913.067 435.333C886.4 442.133 860.667 454.267 836.133 471.6C832.933 473.867 832.933 473.867 834.4 471.067C836.267 467.6 836.667 467.733 823.333 463.6C806.667 458.4 794.267 456.933 774.4 457.733C748.4 458.8 729.733 464.933 707.867 479.6C693.6 489.2 686.933 495.6 656.8 528.533C607.067 582.8 595.867 591.867 571.333 598.667C565.467 600.267 560.133 602.133 559.467 602.8C554.933 607.067 592 610.133 624.8 608.133C666.267 605.6 697.867 599.467 718.4 590C730.533 584.267 748.267 571.2 764.8 555.6L776.933 544L773.733 552C764.667 574.533 761.467 605.867 765.867 628.133C770.533 651.467 780.8 670 799.333 688.8C844 734.133 906.267 747.6 966.133 725.067C1017.07 705.733 1046.53 662.533 1041.87 613.467L1040.8 602L1039.87 620C1039.2 635.333 1038.4 639.867 1034.67 651.067C1022.4 687.733 994.4 713.6 955.333 724C940.133 728.133 912.667 729.067 896.933 726.133C863.333 719.733 831.733 702.4 806.933 676.8C756 624.133 761.2 557.6 820.667 498C847.733 470.8 878.8 453.6 917.333 444.4C936.667 439.867 973.6 438.667 996 441.867C1062.13 451.467 1128.4 483.733 1221.33 551.333C1246.27 569.6 1272.8 589.867 1322 628.667C1418.53 704.8 1486.53 749.733 1564.67 789.333C1598.93 806.667 1665.47 834.933 1667.47 833.067C1667.73 832.8 1660.8 829.6 1652.27 826.133C1585.33 798.4 1504.53 751.333 1425.6 694.267C1399.33 675.333 1364.4 648.667 1354.27 639.733L1349.2 635.333L1353.2 626.667C1369.6 591.333 1370.4 544.4 1354.93 514C1350.67 505.467 1345.6 498 1318.67 460.667C1292.8 424.933 1285.07 413.467 1277.73 400.533C1270.67 388.133 1269.73 384.933 1267.33 366.933C1266.27 358.667 1264.8 350.933 1264.13 349.733C1263.2 347.867 1262.67 348 1260.93 350.8C1258.27 354.933 1252.8 373.867 1249.33 390.933C1241.87 428.267 1239.87 469.467 1244.53 490.533C1250.27 517.2 1263.2 546.267 1280.4 571.733L1290.67 586.8L1280.27 578C1198.4 507.467 1174.27 489.6 1093.47 440.4C1018.8 394.8 993.733 377.2 969.467 353.067C939.2 323.2 925.733 296.4 924.4 263.2C922.933 230.667 932.267 205.6 952.533 187.067C971.467 169.733 998 162.267 1022.8 167.2C1038.93 170.533 1049.6 176.133 1060.67 187.333C1075.33 201.867 1081.33 217.467 1081.33 240.133C1081.33 265.6 1072.67 282.933 1054.13 294.933C1045.2 300.667 1045.2 301.733 1054.27 296.533C1083.47 279.333 1094.4 236.4 1078 204C1062.8 174.133 1021.87 153.867 988 159.6Z" fill="#597765"/>
<path d="M38 200C23.8667 202.533 16.4 208 12.6667 218.533C10 226.4 10.1334 230.133 13.3334 232.4C16 234.267 16 234.4 12.1334 235.067C9.06669 235.733 8.13336 236.667 7.73336 239.6C7.46669 242.133 6.13336 243.867 3.73336 245.067C-0.66664 247.067 -1.06664 250 2.66669 252C5.20003 253.333 5.20003 253.733 3.33336 256.4C0.400027 260.533 0.800027 261.333 5.86669 261.333C8.26669 261.333 12 262.267 14.1334 263.333C17.4667 265.067 18.1334 265.067 20.4 263.067C22.4 261.2 24.9334 260.8 33.3334 261.2C39.0667 261.333 44.9334 260.933 46.5334 260.133C48.6667 258.933 49.4667 259.2 51.2 261.467C52.8 263.867 54 264.267 58 263.6C60.8 263.2 64.4 261.867 66.1334 260.8C72.9334 256.267 80 238.267 80 225.333C80 219.467 77.0667 204.533 75.6 203.2C72.9334 200.4 47.6 198.4 38 200Z" fill="#597765"/>
<path d="M1038.8 599.467C1038.8 600.933 1039.2 601.333 1039.6 600.267C1040 599.333 1039.87 598.133 1039.47 597.733C1039.07 597.2 1038.67 598 1038.8 599.467Z" fill="#597765"/>
</svg>
