<svg width="24" height="24" viewBox="0 0 24 24" fill="none" xmlns="http://www.w3.org/2000/svg">
    <g clip-path="url(#clip0_36_100)">
        <path d="M22.7066 17.6047L20.3759 15.2741C19.9541 14.8525 19.4258 14.5533 18.8473 14.4084C18.2688 14.2635 17.6618 14.2784 17.0911 14.4513C16.5204 14.6243 16.0073 14.949 15.6066 15.3907C15.2059 15.8324 14.9327 16.3746 14.8159 16.9594C10.9726 16.2407 7.23457 12.5181 7.00191 9.19073C7.65529 9.07054 8.25661 8.7543 8.72591 8.28406C9.34381 7.66608 9.69094 6.82797 9.69094 5.95406C9.69094 5.08016 9.34381 4.24205 8.72591 3.62406L6.39591 1.2934C5.77792 0.675496 4.93981 0.328369 4.06591 0.328369C3.19201 0.328369 2.35389 0.675496 1.73591 1.2934C-5.25476 8.28406 15.7159 29.2547 22.7066 22.2641C23.3241 21.646 23.671 20.8081 23.671 19.9344C23.671 19.0607 23.3241 18.2228 22.7066 17.6047Z"
              fill="#272727"/>
    </g>
    <defs>
        <clipPath id="clip0_36_100">
            <rect width="24" height="24" fill="white"/>
        </clipPath>
    </defs>
</svg>
